G04 #@! TF.GenerationSoftware,KiCad,Pcbnew,(5.0.2)-1*
G04 #@! TF.CreationDate,2019-06-03T11:30:13-05:00*
G04 #@! TF.ProjectId,ppg,7070672e-6b69-4636-9164-5f7063625858,V01*
G04 #@! TF.SameCoordinates,Original*
G04 #@! TF.FileFunction,Copper,L2,Bot*
G04 #@! TF.FilePolarity,Positive*
%FSLAX46Y46*%
G04 Gerber Fmt 4.6, Leading zero omitted, Abs format (unit mm)*
G04 Created by KiCad (PCBNEW (5.0.2)-1) date 6/3/2019 11:30:13 AM*
%MOMM*%
%LPD*%
G01*
G04 APERTURE LIST*
G04 #@! TA.AperFunction,Conductor*
%ADD10C,0.100000*%
G04 #@! TD*
G04 #@! TA.AperFunction,SMDPad,CuDef*
%ADD11C,0.875000*%
G04 #@! TD*
G04 #@! TA.AperFunction,SMDPad,CuDef*
%ADD12O,2.500000X0.800000*%
G04 #@! TD*
G04 #@! TA.AperFunction,SMDPad,CuDef*
%ADD13O,0.800000X2.500000*%
G04 #@! TD*
G04 #@! TA.AperFunction,SMDPad,CuDef*
%ADD14R,1.800000X1.000000*%
G04 #@! TD*
G04 #@! TA.AperFunction,ComponentPad*
%ADD15C,1.750000*%
G04 #@! TD*
G04 #@! TA.AperFunction,ViaPad*
%ADD16C,0.685800*%
G04 #@! TD*
G04 #@! TA.AperFunction,Conductor*
%ADD17C,0.152400*%
G04 #@! TD*
G04 APERTURE END LIST*
D10*
G04 #@! TO.N,GND*
G04 #@! TO.C,C1*
G36*
X125207691Y-117768553D02*
X125228926Y-117771703D01*
X125249750Y-117776919D01*
X125269962Y-117784151D01*
X125289368Y-117793330D01*
X125307781Y-117804366D01*
X125325024Y-117817154D01*
X125340930Y-117831570D01*
X125355346Y-117847476D01*
X125368134Y-117864719D01*
X125379170Y-117883132D01*
X125388349Y-117902538D01*
X125395581Y-117922750D01*
X125400797Y-117943574D01*
X125403947Y-117964809D01*
X125405000Y-117986250D01*
X125405000Y-118423750D01*
X125403947Y-118445191D01*
X125400797Y-118466426D01*
X125395581Y-118487250D01*
X125388349Y-118507462D01*
X125379170Y-118526868D01*
X125368134Y-118545281D01*
X125355346Y-118562524D01*
X125340930Y-118578430D01*
X125325024Y-118592846D01*
X125307781Y-118605634D01*
X125289368Y-118616670D01*
X125269962Y-118625849D01*
X125249750Y-118633081D01*
X125228926Y-118638297D01*
X125207691Y-118641447D01*
X125186250Y-118642500D01*
X124673750Y-118642500D01*
X124652309Y-118641447D01*
X124631074Y-118638297D01*
X124610250Y-118633081D01*
X124590038Y-118625849D01*
X124570632Y-118616670D01*
X124552219Y-118605634D01*
X124534976Y-118592846D01*
X124519070Y-118578430D01*
X124504654Y-118562524D01*
X124491866Y-118545281D01*
X124480830Y-118526868D01*
X124471651Y-118507462D01*
X124464419Y-118487250D01*
X124459203Y-118466426D01*
X124456053Y-118445191D01*
X124455000Y-118423750D01*
X124455000Y-117986250D01*
X124456053Y-117964809D01*
X124459203Y-117943574D01*
X124464419Y-117922750D01*
X124471651Y-117902538D01*
X124480830Y-117883132D01*
X124491866Y-117864719D01*
X124504654Y-117847476D01*
X124519070Y-117831570D01*
X124534976Y-117817154D01*
X124552219Y-117804366D01*
X124570632Y-117793330D01*
X124590038Y-117784151D01*
X124610250Y-117776919D01*
X124631074Y-117771703D01*
X124652309Y-117768553D01*
X124673750Y-117767500D01*
X125186250Y-117767500D01*
X125207691Y-117768553D01*
X125207691Y-117768553D01*
G37*
D11*
G04 #@! TD*
G04 #@! TO.P,C1,2*
G04 #@! TO.N,GND*
X124930000Y-118205000D03*
D10*
G04 #@! TO.N,/VDD*
G04 #@! TO.C,C1*
G36*
X125207691Y-116193553D02*
X125228926Y-116196703D01*
X125249750Y-116201919D01*
X125269962Y-116209151D01*
X125289368Y-116218330D01*
X125307781Y-116229366D01*
X125325024Y-116242154D01*
X125340930Y-116256570D01*
X125355346Y-116272476D01*
X125368134Y-116289719D01*
X125379170Y-116308132D01*
X125388349Y-116327538D01*
X125395581Y-116347750D01*
X125400797Y-116368574D01*
X125403947Y-116389809D01*
X125405000Y-116411250D01*
X125405000Y-116848750D01*
X125403947Y-116870191D01*
X125400797Y-116891426D01*
X125395581Y-116912250D01*
X125388349Y-116932462D01*
X125379170Y-116951868D01*
X125368134Y-116970281D01*
X125355346Y-116987524D01*
X125340930Y-117003430D01*
X125325024Y-117017846D01*
X125307781Y-117030634D01*
X125289368Y-117041670D01*
X125269962Y-117050849D01*
X125249750Y-117058081D01*
X125228926Y-117063297D01*
X125207691Y-117066447D01*
X125186250Y-117067500D01*
X124673750Y-117067500D01*
X124652309Y-117066447D01*
X124631074Y-117063297D01*
X124610250Y-117058081D01*
X124590038Y-117050849D01*
X124570632Y-117041670D01*
X124552219Y-117030634D01*
X124534976Y-117017846D01*
X124519070Y-117003430D01*
X124504654Y-116987524D01*
X124491866Y-116970281D01*
X124480830Y-116951868D01*
X124471651Y-116932462D01*
X124464419Y-116912250D01*
X124459203Y-116891426D01*
X124456053Y-116870191D01*
X124455000Y-116848750D01*
X124455000Y-116411250D01*
X124456053Y-116389809D01*
X124459203Y-116368574D01*
X124464419Y-116347750D01*
X124471651Y-116327538D01*
X124480830Y-116308132D01*
X124491866Y-116289719D01*
X124504654Y-116272476D01*
X124519070Y-116256570D01*
X124534976Y-116242154D01*
X124552219Y-116229366D01*
X124570632Y-116218330D01*
X124590038Y-116209151D01*
X124610250Y-116201919D01*
X124631074Y-116196703D01*
X124652309Y-116193553D01*
X124673750Y-116192500D01*
X125186250Y-116192500D01*
X125207691Y-116193553D01*
X125207691Y-116193553D01*
G37*
D11*
G04 #@! TD*
G04 #@! TO.P,C1,1*
G04 #@! TO.N,/VDD*
X124930000Y-116630000D03*
D10*
G04 #@! TO.N,/VDD*
G04 #@! TO.C,C5*
G36*
X134355191Y-102936053D02*
X134376426Y-102939203D01*
X134397250Y-102944419D01*
X134417462Y-102951651D01*
X134436868Y-102960830D01*
X134455281Y-102971866D01*
X134472524Y-102984654D01*
X134488430Y-102999070D01*
X134502846Y-103014976D01*
X134515634Y-103032219D01*
X134526670Y-103050632D01*
X134535849Y-103070038D01*
X134543081Y-103090250D01*
X134548297Y-103111074D01*
X134551447Y-103132309D01*
X134552500Y-103153750D01*
X134552500Y-103666250D01*
X134551447Y-103687691D01*
X134548297Y-103708926D01*
X134543081Y-103729750D01*
X134535849Y-103749962D01*
X134526670Y-103769368D01*
X134515634Y-103787781D01*
X134502846Y-103805024D01*
X134488430Y-103820930D01*
X134472524Y-103835346D01*
X134455281Y-103848134D01*
X134436868Y-103859170D01*
X134417462Y-103868349D01*
X134397250Y-103875581D01*
X134376426Y-103880797D01*
X134355191Y-103883947D01*
X134333750Y-103885000D01*
X133896250Y-103885000D01*
X133874809Y-103883947D01*
X133853574Y-103880797D01*
X133832750Y-103875581D01*
X133812538Y-103868349D01*
X133793132Y-103859170D01*
X133774719Y-103848134D01*
X133757476Y-103835346D01*
X133741570Y-103820930D01*
X133727154Y-103805024D01*
X133714366Y-103787781D01*
X133703330Y-103769368D01*
X133694151Y-103749962D01*
X133686919Y-103729750D01*
X133681703Y-103708926D01*
X133678553Y-103687691D01*
X133677500Y-103666250D01*
X133677500Y-103153750D01*
X133678553Y-103132309D01*
X133681703Y-103111074D01*
X133686919Y-103090250D01*
X133694151Y-103070038D01*
X133703330Y-103050632D01*
X133714366Y-103032219D01*
X133727154Y-103014976D01*
X133741570Y-102999070D01*
X133757476Y-102984654D01*
X133774719Y-102971866D01*
X133793132Y-102960830D01*
X133812538Y-102951651D01*
X133832750Y-102944419D01*
X133853574Y-102939203D01*
X133874809Y-102936053D01*
X133896250Y-102935000D01*
X134333750Y-102935000D01*
X134355191Y-102936053D01*
X134355191Y-102936053D01*
G37*
D11*
G04 #@! TD*
G04 #@! TO.P,C5,1*
G04 #@! TO.N,/VDD*
X134115000Y-103410000D03*
D10*
G04 #@! TO.N,GND*
G04 #@! TO.C,C5*
G36*
X132780191Y-102936053D02*
X132801426Y-102939203D01*
X132822250Y-102944419D01*
X132842462Y-102951651D01*
X132861868Y-102960830D01*
X132880281Y-102971866D01*
X132897524Y-102984654D01*
X132913430Y-102999070D01*
X132927846Y-103014976D01*
X132940634Y-103032219D01*
X132951670Y-103050632D01*
X132960849Y-103070038D01*
X132968081Y-103090250D01*
X132973297Y-103111074D01*
X132976447Y-103132309D01*
X132977500Y-103153750D01*
X132977500Y-103666250D01*
X132976447Y-103687691D01*
X132973297Y-103708926D01*
X132968081Y-103729750D01*
X132960849Y-103749962D01*
X132951670Y-103769368D01*
X132940634Y-103787781D01*
X132927846Y-103805024D01*
X132913430Y-103820930D01*
X132897524Y-103835346D01*
X132880281Y-103848134D01*
X132861868Y-103859170D01*
X132842462Y-103868349D01*
X132822250Y-103875581D01*
X132801426Y-103880797D01*
X132780191Y-103883947D01*
X132758750Y-103885000D01*
X132321250Y-103885000D01*
X132299809Y-103883947D01*
X132278574Y-103880797D01*
X132257750Y-103875581D01*
X132237538Y-103868349D01*
X132218132Y-103859170D01*
X132199719Y-103848134D01*
X132182476Y-103835346D01*
X132166570Y-103820930D01*
X132152154Y-103805024D01*
X132139366Y-103787781D01*
X132128330Y-103769368D01*
X132119151Y-103749962D01*
X132111919Y-103729750D01*
X132106703Y-103708926D01*
X132103553Y-103687691D01*
X132102500Y-103666250D01*
X132102500Y-103153750D01*
X132103553Y-103132309D01*
X132106703Y-103111074D01*
X132111919Y-103090250D01*
X132119151Y-103070038D01*
X132128330Y-103050632D01*
X132139366Y-103032219D01*
X132152154Y-103014976D01*
X132166570Y-102999070D01*
X132182476Y-102984654D01*
X132199719Y-102971866D01*
X132218132Y-102960830D01*
X132237538Y-102951651D01*
X132257750Y-102944419D01*
X132278574Y-102939203D01*
X132299809Y-102936053D01*
X132321250Y-102935000D01*
X132758750Y-102935000D01*
X132780191Y-102936053D01*
X132780191Y-102936053D01*
G37*
D11*
G04 #@! TD*
G04 #@! TO.P,C5,2*
G04 #@! TO.N,GND*
X132540000Y-103410000D03*
D10*
G04 #@! TO.N,/~BT_RESET*
G04 #@! TO.C,R1*
G36*
X123562691Y-106906053D02*
X123583926Y-106909203D01*
X123604750Y-106914419D01*
X123624962Y-106921651D01*
X123644368Y-106930830D01*
X123662781Y-106941866D01*
X123680024Y-106954654D01*
X123695930Y-106969070D01*
X123710346Y-106984976D01*
X123723134Y-107002219D01*
X123734170Y-107020632D01*
X123743349Y-107040038D01*
X123750581Y-107060250D01*
X123755797Y-107081074D01*
X123758947Y-107102309D01*
X123760000Y-107123750D01*
X123760000Y-107636250D01*
X123758947Y-107657691D01*
X123755797Y-107678926D01*
X123750581Y-107699750D01*
X123743349Y-107719962D01*
X123734170Y-107739368D01*
X123723134Y-107757781D01*
X123710346Y-107775024D01*
X123695930Y-107790930D01*
X123680024Y-107805346D01*
X123662781Y-107818134D01*
X123644368Y-107829170D01*
X123624962Y-107838349D01*
X123604750Y-107845581D01*
X123583926Y-107850797D01*
X123562691Y-107853947D01*
X123541250Y-107855000D01*
X123103750Y-107855000D01*
X123082309Y-107853947D01*
X123061074Y-107850797D01*
X123040250Y-107845581D01*
X123020038Y-107838349D01*
X123000632Y-107829170D01*
X122982219Y-107818134D01*
X122964976Y-107805346D01*
X122949070Y-107790930D01*
X122934654Y-107775024D01*
X122921866Y-107757781D01*
X122910830Y-107739368D01*
X122901651Y-107719962D01*
X122894419Y-107699750D01*
X122889203Y-107678926D01*
X122886053Y-107657691D01*
X122885000Y-107636250D01*
X122885000Y-107123750D01*
X122886053Y-107102309D01*
X122889203Y-107081074D01*
X122894419Y-107060250D01*
X122901651Y-107040038D01*
X122910830Y-107020632D01*
X122921866Y-107002219D01*
X122934654Y-106984976D01*
X122949070Y-106969070D01*
X122964976Y-106954654D01*
X122982219Y-106941866D01*
X123000632Y-106930830D01*
X123020038Y-106921651D01*
X123040250Y-106914419D01*
X123061074Y-106909203D01*
X123082309Y-106906053D01*
X123103750Y-106905000D01*
X123541250Y-106905000D01*
X123562691Y-106906053D01*
X123562691Y-106906053D01*
G37*
D11*
G04 #@! TD*
G04 #@! TO.P,R1,1*
G04 #@! TO.N,/~BT_RESET*
X123322500Y-107380000D03*
D10*
G04 #@! TO.N,/VDD*
G04 #@! TO.C,R1*
G36*
X125137691Y-106906053D02*
X125158926Y-106909203D01*
X125179750Y-106914419D01*
X125199962Y-106921651D01*
X125219368Y-106930830D01*
X125237781Y-106941866D01*
X125255024Y-106954654D01*
X125270930Y-106969070D01*
X125285346Y-106984976D01*
X125298134Y-107002219D01*
X125309170Y-107020632D01*
X125318349Y-107040038D01*
X125325581Y-107060250D01*
X125330797Y-107081074D01*
X125333947Y-107102309D01*
X125335000Y-107123750D01*
X125335000Y-107636250D01*
X125333947Y-107657691D01*
X125330797Y-107678926D01*
X125325581Y-107699750D01*
X125318349Y-107719962D01*
X125309170Y-107739368D01*
X125298134Y-107757781D01*
X125285346Y-107775024D01*
X125270930Y-107790930D01*
X125255024Y-107805346D01*
X125237781Y-107818134D01*
X125219368Y-107829170D01*
X125199962Y-107838349D01*
X125179750Y-107845581D01*
X125158926Y-107850797D01*
X125137691Y-107853947D01*
X125116250Y-107855000D01*
X124678750Y-107855000D01*
X124657309Y-107853947D01*
X124636074Y-107850797D01*
X124615250Y-107845581D01*
X124595038Y-107838349D01*
X124575632Y-107829170D01*
X124557219Y-107818134D01*
X124539976Y-107805346D01*
X124524070Y-107790930D01*
X124509654Y-107775024D01*
X124496866Y-107757781D01*
X124485830Y-107739368D01*
X124476651Y-107719962D01*
X124469419Y-107699750D01*
X124464203Y-107678926D01*
X124461053Y-107657691D01*
X124460000Y-107636250D01*
X124460000Y-107123750D01*
X124461053Y-107102309D01*
X124464203Y-107081074D01*
X124469419Y-107060250D01*
X124476651Y-107040038D01*
X124485830Y-107020632D01*
X124496866Y-107002219D01*
X124509654Y-106984976D01*
X124524070Y-106969070D01*
X124539976Y-106954654D01*
X124557219Y-106941866D01*
X124575632Y-106930830D01*
X124595038Y-106921651D01*
X124615250Y-106914419D01*
X124636074Y-106909203D01*
X124657309Y-106906053D01*
X124678750Y-106905000D01*
X125116250Y-106905000D01*
X125137691Y-106906053D01*
X125137691Y-106906053D01*
G37*
D11*
G04 #@! TD*
G04 #@! TO.P,R1,2*
G04 #@! TO.N,/VDD*
X124897500Y-107380000D03*
D12*
G04 #@! TO.P,U1,1*
G04 #@! TO.N,GND*
X120560000Y-102070000D03*
G04 #@! TO.P,U1,2*
G04 #@! TO.N,Net-(U1-Pad2)*
X120560000Y-103270000D03*
G04 #@! TO.P,U1,3*
G04 #@! TO.N,Net-(U1-Pad3)*
X120560000Y-104470000D03*
G04 #@! TO.P,U1,4*
G04 #@! TO.N,Net-(U1-Pad4)*
X120560000Y-105670000D03*
G04 #@! TO.P,U1,5*
G04 #@! TO.N,/~BT_RESET*
X120560000Y-106870000D03*
G04 #@! TO.P,U1,6*
G04 #@! TO.N,Net-(U1-Pad6)*
X120560000Y-108070000D03*
G04 #@! TO.P,U1,7*
G04 #@! TO.N,Net-(U1-Pad7)*
X120560000Y-109270000D03*
G04 #@! TO.P,U1,8*
G04 #@! TO.N,Net-(U1-Pad8)*
X120560000Y-110470000D03*
G04 #@! TO.P,U1,9*
G04 #@! TO.N,Net-(U1-Pad9)*
X120560000Y-111670000D03*
G04 #@! TO.P,U1,10*
G04 #@! TO.N,Net-(U1-Pad10)*
X120560000Y-112870000D03*
G04 #@! TO.P,U1,11*
G04 #@! TO.N,/VDD*
X120560000Y-114070000D03*
G04 #@! TO.P,U1,12*
G04 #@! TO.N,GND*
X120560000Y-115270000D03*
D13*
G04 #@! TO.P,U1,35*
G04 #@! TO.N,Net-(U1-Pad35)*
X118260000Y-117770000D03*
G04 #@! TO.P,U1,29*
G04 #@! TO.N,GND*
X117260000Y-117770000D03*
G04 #@! TO.P,U1,34*
G04 #@! TO.N,Net-(U1-Pad34)*
X115960000Y-117770000D03*
G04 #@! TO.P,U1,33*
G04 #@! TO.N,Net-(U1-Pad33)*
X114760000Y-117770000D03*
G04 #@! TO.P,U1,32*
G04 #@! TO.N,Net-(U1-Pad32)*
X113560000Y-117770000D03*
G04 #@! TO.P,U1,31*
G04 #@! TO.N,Net-(U1-Pad31)*
X112360000Y-117770000D03*
G04 #@! TO.P,U1,28*
G04 #@! TO.N,GND*
X111060000Y-117770000D03*
G04 #@! TO.P,U1,30*
G04 #@! TO.N,Net-(U1-Pad30)*
X110060000Y-117770000D03*
D12*
G04 #@! TO.P,U1,13*
G04 #@! TO.N,/TxD*
X107760000Y-115270000D03*
G04 #@! TO.P,U1,14*
G04 #@! TO.N,/RxD*
X107760000Y-114070000D03*
G04 #@! TO.P,U1,15*
G04 #@! TO.N,Net-(R3-Pad1)*
X107760000Y-112870000D03*
G04 #@! TO.P,U1,16*
G04 #@! TO.N,Net-(R3-Pad2)*
X107760000Y-111670000D03*
G04 #@! TO.P,U1,17*
G04 #@! TO.N,Net-(U1-Pad17)*
X107760000Y-110470000D03*
G04 #@! TO.P,U1,18*
G04 #@! TO.N,Net-(U1-Pad18)*
X107760000Y-109270000D03*
G04 #@! TO.P,U1,19*
G04 #@! TO.N,/BT_status*
X107760000Y-108070000D03*
G04 #@! TO.P,U1,20*
G04 #@! TO.N,Net-(U1-Pad20)*
X107760000Y-106870000D03*
G04 #@! TO.P,U1,21*
G04 #@! TO.N,Net-(U1-Pad21)*
X107760000Y-105670000D03*
G04 #@! TO.P,U1,22*
G04 #@! TO.N,Net-(U1-Pad22)*
X107760000Y-104470000D03*
G04 #@! TO.P,U1,23*
G04 #@! TO.N,Net-(U1-Pad23)*
X107760000Y-103270000D03*
G04 #@! TO.P,U1,24*
G04 #@! TO.N,Net-(U1-Pad24)*
X107760000Y-102070000D03*
D14*
G04 #@! TO.P,U1,36*
G04 #@! TO.N,Net-(U1-Pad36)*
X119760000Y-117370000D03*
X108560000Y-117370000D03*
X108560000Y-98370000D03*
X119760000Y-98370000D03*
G04 #@! TD*
D15*
G04 #@! TO.P,U3,1*
G04 #@! TO.N,/INT*
X125651000Y-103226000D03*
G04 #@! TO.P,U3,2*
G04 #@! TO.N,/SCL*
X128016000Y-103226000D03*
G04 #@! TO.P,U3,3*
G04 #@! TO.N,/SDA*
X130716000Y-103226000D03*
G04 #@! TO.P,U3,4*
G04 #@! TO.N,GND*
X124026000Y-98351000D03*
G04 #@! TO.P,U3,5*
G04 #@! TO.N,/VDD*
X133026000Y-98351000D03*
G04 #@! TO.P,U3,6*
G04 #@! TO.N,Net-(U3-Pad6)*
X125651000Y-93726000D03*
G04 #@! TO.P,U3,7*
G04 #@! TO.N,Net-(U3-Pad7)*
X128016000Y-93726000D03*
G04 #@! TO.P,U3,8*
G04 #@! TO.N,Net-(U3-Pad8)*
X130716000Y-93726000D03*
G04 #@! TD*
D16*
G04 #@! TO.N,GND*
X127430000Y-118210000D03*
X111410000Y-114100000D03*
X128360000Y-112310000D03*
X125552436Y-100330000D03*
X122893346Y-105286049D03*
X126492000Y-97790000D03*
X117793000Y-99568000D03*
X110998000Y-96266000D03*
X129794000Y-96774000D03*
G04 #@! TO.N,/VDD*
X112930000Y-113880000D03*
X124100000Y-103780000D03*
X127254000Y-107442000D03*
X127254000Y-109220000D03*
G04 #@! TO.N,Net-(D2-Pad2)*
X118364000Y-103632000D03*
X123444000Y-101092000D03*
G04 #@! TO.N,Net-(R3-Pad1)*
X106470300Y-113150000D03*
G04 #@! TO.N,Net-(R3-Pad2)*
X110120000Y-111290000D03*
G04 #@! TO.N,/SCL*
X128510000Y-98080000D03*
X117460000Y-104260000D03*
G04 #@! TO.N,Net-(R10-Pad1)*
X109982000Y-101600000D03*
X110490000Y-99568000D03*
G04 #@! TO.N,Net-(R11-Pad2)*
X123444000Y-108712000D03*
X132842000Y-108204000D03*
G04 #@! TO.N,/SDA*
X123444000Y-105918000D03*
X126746000Y-105664000D03*
X124968000Y-105410000D03*
G04 #@! TO.N,Net-(J1-Pad3)*
X115080000Y-101110000D03*
X113730000Y-97630000D03*
G04 #@! TO.N,Net-(R9-Pad2)*
X114170000Y-102430000D03*
X116780000Y-101450000D03*
G04 #@! TO.N,/BT_status*
X117094000Y-106934000D03*
X112522000Y-108204000D03*
X114046000Y-109728000D03*
G04 #@! TO.N,/TxD*
X112550000Y-102330000D03*
G04 #@! TO.N,/RxD*
X112780000Y-103610000D03*
X109579635Y-105712822D03*
X111050000Y-107690000D03*
G04 #@! TD*
D17*
G04 #@! TO.N,GND*
X124935000Y-118210000D02*
X124930000Y-118205000D01*
X127430000Y-118210000D02*
X124935000Y-118210000D01*
X121962400Y-115270000D02*
X122460000Y-115767600D01*
X120560000Y-115270000D02*
X121962400Y-115270000D01*
X122460000Y-115767600D02*
X122460000Y-118010000D01*
X122655000Y-118205000D02*
X124930000Y-118205000D01*
X122460000Y-118010000D02*
X122655000Y-118205000D01*
X118357600Y-115270000D02*
X120560000Y-115270000D01*
X117260000Y-117770000D02*
X117260000Y-116367600D01*
X117980000Y-115647600D02*
X116837600Y-115647600D01*
X117980000Y-115647600D02*
X118357600Y-115270000D01*
X117260000Y-116367600D02*
X117980000Y-115647600D01*
X116837600Y-115647600D02*
X116390000Y-115200000D01*
X116390000Y-115200000D02*
X111460000Y-115200000D01*
X111460000Y-115200000D02*
X111430000Y-115170000D01*
X111430000Y-114120000D02*
X111410000Y-114100000D01*
X132540000Y-103985000D02*
X133520000Y-104965000D01*
X132540000Y-103410000D02*
X132540000Y-103985000D01*
X133520000Y-104965000D02*
X133520000Y-115040000D01*
X133520000Y-115040000D02*
X132530000Y-116030000D01*
X132530000Y-116030000D02*
X128690000Y-116030000D01*
X128690000Y-116030000D02*
X128360000Y-115700000D01*
X128360000Y-115700000D02*
X128360000Y-112310000D01*
X125537436Y-100345000D02*
X125552436Y-100330000D01*
X125552436Y-100330000D02*
X129460000Y-100330000D01*
X129620000Y-100330000D02*
X129460000Y-100330000D01*
X130160000Y-100330000D02*
X129620000Y-100330000D01*
X123960000Y-102070000D02*
X124300000Y-101730000D01*
X111430000Y-115997600D02*
X111430000Y-115062000D01*
X111060000Y-116367600D02*
X111430000Y-115997600D01*
X111060000Y-117770000D02*
X111060000Y-116367600D01*
X111430000Y-115170000D02*
X111430000Y-115062000D01*
X111430000Y-115062000D02*
X111430000Y-114120000D01*
X124300000Y-101730000D02*
X124330000Y-101730000D01*
X125552436Y-100507564D02*
X125552436Y-100330000D01*
X124330000Y-101730000D02*
X125552436Y-100507564D01*
X122936000Y-102070000D02*
X123960000Y-102070000D01*
X120560000Y-102070000D02*
X122936000Y-102070000D01*
X122936000Y-105243395D02*
X122893346Y-105286049D01*
X122936000Y-102070000D02*
X122936000Y-105243395D01*
X130922000Y-99568000D02*
X130922000Y-99680000D01*
X132540000Y-101298000D02*
X132540000Y-103410000D01*
X130922000Y-99680000D02*
X132540000Y-101298000D01*
X130810000Y-96774000D02*
X130810000Y-99680000D01*
X130922000Y-99568000D02*
X130810000Y-99680000D01*
X130810000Y-99680000D02*
X130160000Y-100330000D01*
X126492000Y-97790000D02*
X126492000Y-96012000D01*
X126492000Y-96012000D02*
X126238000Y-95758000D01*
X126238000Y-95758000D02*
X117094000Y-95758000D01*
X117793000Y-99505000D02*
X117793000Y-99568000D01*
X117094000Y-98806000D02*
X117793000Y-99505000D01*
X117094000Y-97536000D02*
X117094000Y-98552000D01*
X117094000Y-97536000D02*
X117094000Y-98806000D01*
X117094000Y-95758000D02*
X117094000Y-97536000D01*
X117094000Y-98552000D02*
X115824000Y-98552000D01*
X115824000Y-98552000D02*
X115824000Y-96266000D01*
X115824000Y-96266000D02*
X115316000Y-95758000D01*
X115316000Y-95758000D02*
X112268000Y-95758000D01*
X112268000Y-95758000D02*
X111760000Y-96266000D01*
X111760000Y-96266000D02*
X110998000Y-96266000D01*
X130810000Y-96774000D02*
X129794000Y-96774000D01*
G04 #@! TO.N,/VDD*
X112930000Y-113880000D02*
X118140000Y-113880000D01*
X118330000Y-114070000D02*
X120560000Y-114070000D01*
X118140000Y-113880000D02*
X118330000Y-114070000D01*
X120560000Y-114070000D02*
X124830000Y-114070000D01*
X124930000Y-114170000D02*
X124930000Y-116630000D01*
X124830000Y-114070000D02*
X124930000Y-114170000D01*
X124930000Y-116630000D02*
X132990000Y-116630000D01*
X132990000Y-116630000D02*
X134220000Y-115400000D01*
X134115000Y-115295000D02*
X134115000Y-103410000D01*
X134220000Y-115400000D02*
X134115000Y-115295000D01*
X134576612Y-102948388D02*
X134576612Y-101813388D01*
X134115000Y-103410000D02*
X134576612Y-102948388D01*
X124100000Y-104264933D02*
X124070000Y-104294933D01*
X124100000Y-103780000D02*
X124100000Y-104264933D01*
X124070000Y-106552500D02*
X124897500Y-107380000D01*
X124070000Y-104294933D02*
X124070000Y-106552500D01*
X134630000Y-102895000D02*
X134115000Y-103410000D01*
X125435000Y-107380000D02*
X125497000Y-107442000D01*
X124897500Y-107380000D02*
X125435000Y-107380000D01*
X125497000Y-107442000D02*
X127254000Y-107442000D01*
X127254000Y-109220000D02*
X125984000Y-110490000D01*
X125984000Y-110490000D02*
X124968000Y-110490000D01*
X124968000Y-114132000D02*
X124930000Y-114170000D01*
X124968000Y-110490000D02*
X124968000Y-114132000D01*
X134630000Y-98298000D02*
X134630000Y-102895000D01*
X134577000Y-98351000D02*
X133026000Y-98351000D01*
X134630000Y-98298000D02*
X134577000Y-98351000D01*
G04 #@! TO.N,Net-(D2-Pad2)*
X118364000Y-103632000D02*
X118364000Y-101092000D01*
X118364000Y-101092000D02*
X118364000Y-100838000D01*
X118364000Y-100838000D02*
X123190000Y-100838000D01*
X123190000Y-100838000D02*
X123444000Y-101092000D01*
G04 #@! TO.N,/~BT_RESET*
X122812500Y-106870000D02*
X123322500Y-107380000D01*
X120560000Y-106870000D02*
X122812500Y-106870000D01*
G04 #@! TO.N,Net-(R3-Pad1)*
X107480000Y-113150000D02*
X107760000Y-112870000D01*
X106470300Y-113150000D02*
X107480000Y-113150000D01*
G04 #@! TO.N,Net-(R3-Pad2)*
X109740000Y-111670000D02*
X107760000Y-111670000D01*
X110120000Y-111290000D02*
X109740000Y-111670000D01*
G04 #@! TO.N,/SCL*
X128510000Y-98080000D02*
X128350000Y-97920000D01*
X127022000Y-99568000D02*
X127530000Y-99060000D01*
X117460000Y-103431012D02*
X117470000Y-103421012D01*
X117460000Y-104260000D02*
X117460000Y-103431012D01*
X117470000Y-103421012D02*
X117470000Y-100490000D01*
X117470000Y-100490000D02*
X117500000Y-100460000D01*
X127530000Y-99060000D02*
X128510000Y-98080000D01*
X117500000Y-100460000D02*
X123568000Y-100460000D01*
X124460000Y-99568000D02*
X127022000Y-99568000D01*
X123568000Y-100460000D02*
X124460000Y-99568000D01*
G04 #@! TO.N,Net-(R10-Pad1)*
X110324899Y-101257101D02*
X110324899Y-99733101D01*
X109982000Y-101600000D02*
X110324899Y-101257101D01*
X110324899Y-99733101D02*
X110490000Y-99568000D01*
G04 #@! TO.N,Net-(R11-Pad2)*
X123444000Y-108712000D02*
X123952000Y-108204000D01*
X123952000Y-108204000D02*
X129639330Y-108204000D01*
X129639330Y-108204000D02*
X132842000Y-108204000D01*
G04 #@! TO.N,/SDA*
X123444000Y-105664000D02*
X123444000Y-105918000D01*
X126746000Y-105664000D02*
X125476000Y-105664000D01*
X125476000Y-105664000D02*
X125222000Y-105410000D01*
X125222000Y-105410000D02*
X124968000Y-105410000D01*
G04 #@! TO.N,Net-(J1-Pad3)*
X115080000Y-101110000D02*
X115080000Y-100640000D01*
X115080000Y-100640000D02*
X115060000Y-100620000D01*
X115060000Y-100620000D02*
X115060000Y-98310000D01*
X115060000Y-98310000D02*
X114360000Y-97610000D01*
X114360000Y-97610000D02*
X113750000Y-97610000D01*
X113750000Y-97610000D02*
X113730000Y-97630000D01*
G04 #@! TO.N,Net-(R9-Pad2)*
X114170000Y-102430000D02*
X114654933Y-102430000D01*
X115780000Y-102430000D02*
X116590000Y-102430000D01*
X114654933Y-102430000D02*
X115780000Y-102430000D01*
X115780000Y-100830000D02*
X115780000Y-102430000D01*
X116644933Y-100830000D02*
X115780000Y-100830000D01*
X116780000Y-100965067D02*
X116644933Y-100830000D01*
X116780000Y-101450000D02*
X116780000Y-100965067D01*
G04 #@! TO.N,/BT_status*
X107760000Y-108070000D02*
X108610000Y-108070000D01*
X107760000Y-108070000D02*
X109162400Y-108070000D01*
X107760000Y-108070000D02*
X110000000Y-108070000D01*
X110000000Y-108070000D02*
X110000000Y-106698000D01*
X110000000Y-106698000D02*
X110526000Y-106172000D01*
X110526000Y-106172000D02*
X111252000Y-106172000D01*
X111252000Y-106172000D02*
X112014000Y-105410000D01*
X112014000Y-105410000D02*
X112014000Y-106934000D01*
X112014000Y-106934000D02*
X112776000Y-106934000D01*
X112776000Y-106934000D02*
X112776000Y-107950000D01*
X112776000Y-107950000D02*
X112522000Y-108204000D01*
X114046000Y-109728000D02*
X114046000Y-106934000D01*
X114046000Y-106934000D02*
X117094000Y-106934000D01*
G04 #@! TO.N,/TxD*
X113470000Y-104300000D02*
X113470000Y-103454178D01*
X113461501Y-104308499D02*
X113470000Y-104300000D01*
X113370000Y-103354178D02*
X113370000Y-102170000D01*
X113470000Y-103454178D02*
X113370000Y-103354178D01*
X107760000Y-115270000D02*
X109490000Y-115270000D01*
X109490000Y-115270000D02*
X109770000Y-114990000D01*
X109770000Y-114990000D02*
X109770000Y-114540000D01*
X109770000Y-114540000D02*
X111670000Y-112640000D01*
X112710000Y-102170000D02*
X112550000Y-102330000D01*
X113370000Y-102170000D02*
X112710000Y-102170000D01*
X113461501Y-104308499D02*
X113461501Y-108889501D01*
X113461501Y-108889501D02*
X113385002Y-108966000D01*
X111924000Y-108966000D02*
X111670000Y-109220000D01*
X113385002Y-108966000D02*
X111924000Y-108966000D01*
X111670000Y-112640000D02*
X111670000Y-109220000D01*
G04 #@! TO.N,/RxD*
X107760000Y-114070000D02*
X109162400Y-114070000D01*
X112780000Y-103610000D02*
X109680000Y-103610000D01*
X109680000Y-103610000D02*
X109680000Y-105690000D01*
X109680000Y-105690000D02*
X109657178Y-105712822D01*
X109657178Y-105712822D02*
X109579635Y-105712822D01*
X111050000Y-107690000D02*
X111050000Y-112320000D01*
X109300000Y-114070000D02*
X107760000Y-114070000D01*
X111050000Y-112320000D02*
X109300000Y-114070000D01*
G04 #@! TD*
M02*
