G04 #@! TF.GenerationSoftware,KiCad,Pcbnew,(5.0.2)-1*
G04 #@! TF.CreationDate,2019-06-03T11:30:13-05:00*
G04 #@! TF.ProjectId,ppg,7070672e-6b69-4636-9164-5f7063625858,V01*
G04 #@! TF.SameCoordinates,Original*
G04 #@! TF.FileFunction,Legend,Top*
G04 #@! TF.FilePolarity,Positive*
%FSLAX46Y46*%
G04 Gerber Fmt 4.6, Leading zero omitted, Abs format (unit mm)*
G04 Created by KiCad (PCBNEW (5.0.2)-1) date 6/3/2019 11:30:13 AM*
%MOMM*%
%LPD*%
G01*
G04 APERTURE LIST*
%ADD10C,0.120000*%
%ADD11C,0.150000*%
%ADD12C,0.203200*%
%ADD13C,0.088900*%
%ADD14C,0.050000*%
G04 APERTURE END LIST*
D10*
G04 #@! TO.C,BT1*
X131760000Y-109440000D02*
X131760000Y-110890000D01*
X129160000Y-106840000D02*
X131760000Y-109440000D01*
X129160000Y-106040000D02*
X129160000Y-106840000D01*
X120860000Y-106040000D02*
X129160000Y-106040000D01*
X120860000Y-106840000D02*
X120860000Y-106040000D01*
X118260000Y-109440000D02*
X120860000Y-106840000D01*
X118260000Y-110890000D02*
X118260000Y-109440000D01*
X118260000Y-114890000D02*
X118260000Y-116990000D01*
X131760000Y-114890000D02*
X131760000Y-116990000D01*
X118260000Y-116940000D02*
G75*
G03X119710000Y-118490000I1500000J-50000D01*
G01*
X131760000Y-116940000D02*
G75*
G02X130310000Y-118490000I-1500000J-50000D01*
G01*
X129500661Y-118078671D02*
G75*
G03X120510000Y-118090000I-4490661J-3711329D01*
G01*
X119595385Y-118474160D02*
G75*
G03X120510000Y-118090000I124615J984160D01*
G01*
X130424615Y-118474160D02*
G75*
G02X129510000Y-118090000I-124615J984160D01*
G01*
G04 #@! TO.C,R12*
X115961279Y-108460000D02*
X115635721Y-108460000D01*
X115961279Y-107440000D02*
X115635721Y-107440000D01*
G04 #@! TO.C,C2*
X108429721Y-98110000D02*
X108755279Y-98110000D01*
X108429721Y-99130000D02*
X108755279Y-99130000D01*
G04 #@! TO.C,C3*
X116715279Y-98030000D02*
X116389721Y-98030000D01*
X116715279Y-99050000D02*
X116389721Y-99050000D01*
G04 #@! TO.C,C4*
X132399721Y-95248000D02*
X132725279Y-95248000D01*
X132399721Y-96268000D02*
X132725279Y-96268000D01*
G04 #@! TO.C,D1*
X108255000Y-111095000D02*
X108255000Y-108635000D01*
X108255000Y-108635000D02*
X106785000Y-108635000D01*
X106785000Y-108635000D02*
X106785000Y-111095000D01*
G04 #@! TO.C,D2*
X119824500Y-104621000D02*
X122109500Y-104621000D01*
X122109500Y-104621000D02*
X122109500Y-103151000D01*
X122109500Y-103151000D02*
X119824500Y-103151000D01*
G04 #@! TO.C,R2*
X107020000Y-113389721D02*
X107020000Y-113715279D01*
X108040000Y-113389721D02*
X108040000Y-113715279D01*
G04 #@! TO.C,R3*
X107664721Y-107410000D02*
X107990279Y-107410000D01*
X107664721Y-108430000D02*
X107990279Y-108430000D01*
G04 #@! TO.C,R4*
X111070279Y-110860000D02*
X110744721Y-110860000D01*
X111070279Y-109840000D02*
X110744721Y-109840000D01*
G04 #@! TO.C,R5*
X107360000Y-103635279D02*
X107360000Y-103309721D01*
X108380000Y-103635279D02*
X108380000Y-103309721D01*
G04 #@! TO.C,R6*
X119382000Y-106614279D02*
X119382000Y-106288721D01*
X118362000Y-106614279D02*
X118362000Y-106288721D01*
G04 #@! TO.C,R7*
X108459721Y-99790000D02*
X108785279Y-99790000D01*
X108459721Y-100810000D02*
X108785279Y-100810000D01*
G04 #@! TO.C,R8*
X112077221Y-99210000D02*
X112402779Y-99210000D01*
X112077221Y-98190000D02*
X112402779Y-98190000D01*
G04 #@! TO.C,R9*
X119510279Y-101090000D02*
X119184721Y-101090000D01*
X119510279Y-102110000D02*
X119184721Y-102110000D01*
G04 #@! TO.C,R10*
X112084721Y-100750000D02*
X112410279Y-100750000D01*
X112084721Y-99730000D02*
X112410279Y-99730000D01*
G04 #@! TO.C,R11*
X119947221Y-98770000D02*
X120272779Y-98770000D01*
X119947221Y-99790000D02*
X120272779Y-99790000D01*
G04 #@! TO.C,R13*
X116640279Y-109260000D02*
X116314721Y-109260000D01*
X116640279Y-110280000D02*
X116314721Y-110280000D01*
D11*
G04 #@! TO.C,U2*
X112050000Y-101570000D02*
X112050000Y-106850000D01*
X112050000Y-106850000D02*
X114790000Y-106860000D01*
X112080000Y-101500000D02*
X114770000Y-101540000D01*
X114770000Y-101540000D02*
X114780000Y-106850000D01*
D12*
X112890227Y-102190000D02*
G75*
G03X112890227Y-102190000I-220227J0D01*
G01*
D11*
X110240000Y-101530000D02*
X111440000Y-101530000D01*
G04 #@! TO.C,J1*
X107240000Y-94880000D02*
X119300000Y-94880000D01*
X119340000Y-94890000D02*
X119340000Y-97490000D01*
X119300000Y-97470000D02*
X106440000Y-97470000D01*
X106440000Y-97480000D02*
X106440000Y-94880000D01*
X106440000Y-94880000D02*
X107440000Y-94880000D01*
G04 #@! TO.C,BT1*
D13*
X124321142Y-119090285D02*
X124392571Y-119114095D01*
X124416380Y-119137904D01*
X124440190Y-119185523D01*
X124440190Y-119256952D01*
X124416380Y-119304571D01*
X124392571Y-119328380D01*
X124344952Y-119352190D01*
X124154476Y-119352190D01*
X124154476Y-118852190D01*
X124321142Y-118852190D01*
X124368761Y-118876000D01*
X124392571Y-118899809D01*
X124416380Y-118947428D01*
X124416380Y-118995047D01*
X124392571Y-119042666D01*
X124368761Y-119066476D01*
X124321142Y-119090285D01*
X124154476Y-119090285D01*
X124583047Y-118852190D02*
X124868761Y-118852190D01*
X124725904Y-119352190D02*
X124725904Y-118852190D01*
X125297333Y-119352190D02*
X125011619Y-119352190D01*
X125154476Y-119352190D02*
X125154476Y-118852190D01*
X125106857Y-118923619D01*
X125059238Y-118971238D01*
X125011619Y-118995047D01*
G04 #@! TO.C,R12*
X118296571Y-109954190D02*
X118129904Y-109716095D01*
X118010857Y-109954190D02*
X118010857Y-109454190D01*
X118201333Y-109454190D01*
X118248952Y-109478000D01*
X118272761Y-109501809D01*
X118296571Y-109549428D01*
X118296571Y-109620857D01*
X118272761Y-109668476D01*
X118248952Y-109692285D01*
X118201333Y-109716095D01*
X118010857Y-109716095D01*
X118772761Y-109954190D02*
X118487047Y-109954190D01*
X118629904Y-109954190D02*
X118629904Y-109454190D01*
X118582285Y-109525619D01*
X118534666Y-109573238D01*
X118487047Y-109597047D01*
X118963238Y-109501809D02*
X118987047Y-109478000D01*
X119034666Y-109454190D01*
X119153714Y-109454190D01*
X119201333Y-109478000D01*
X119225142Y-109501809D01*
X119248952Y-109549428D01*
X119248952Y-109597047D01*
X119225142Y-109668476D01*
X118939428Y-109954190D01*
X119248952Y-109954190D01*
G04 #@! TO.C,C2*
X106596666Y-98730571D02*
X106572857Y-98754380D01*
X106501428Y-98778190D01*
X106453809Y-98778190D01*
X106382380Y-98754380D01*
X106334761Y-98706761D01*
X106310952Y-98659142D01*
X106287142Y-98563904D01*
X106287142Y-98492476D01*
X106310952Y-98397238D01*
X106334761Y-98349619D01*
X106382380Y-98302000D01*
X106453809Y-98278190D01*
X106501428Y-98278190D01*
X106572857Y-98302000D01*
X106596666Y-98325809D01*
X106787142Y-98325809D02*
X106810952Y-98302000D01*
X106858571Y-98278190D01*
X106977619Y-98278190D01*
X107025238Y-98302000D01*
X107049047Y-98325809D01*
X107072857Y-98373428D01*
X107072857Y-98421047D01*
X107049047Y-98492476D01*
X106763333Y-98778190D01*
X107072857Y-98778190D01*
G04 #@! TO.C,C3*
X116469166Y-100148571D02*
X116445357Y-100172380D01*
X116373928Y-100196190D01*
X116326309Y-100196190D01*
X116254880Y-100172380D01*
X116207261Y-100124761D01*
X116183452Y-100077142D01*
X116159642Y-99981904D01*
X116159642Y-99910476D01*
X116183452Y-99815238D01*
X116207261Y-99767619D01*
X116254880Y-99720000D01*
X116326309Y-99696190D01*
X116373928Y-99696190D01*
X116445357Y-99720000D01*
X116469166Y-99743809D01*
X116635833Y-99696190D02*
X116945357Y-99696190D01*
X116778690Y-99886666D01*
X116850119Y-99886666D01*
X116897738Y-99910476D01*
X116921547Y-99934285D01*
X116945357Y-99981904D01*
X116945357Y-100100952D01*
X116921547Y-100148571D01*
X116897738Y-100172380D01*
X116850119Y-100196190D01*
X116707261Y-100196190D01*
X116659642Y-100172380D01*
X116635833Y-100148571D01*
G04 #@! TO.C,C4*
X132741071Y-94411333D02*
X132764880Y-94435142D01*
X132788690Y-94506571D01*
X132788690Y-94554190D01*
X132764880Y-94625619D01*
X132717261Y-94673238D01*
X132669642Y-94697047D01*
X132574404Y-94720857D01*
X132502976Y-94720857D01*
X132407738Y-94697047D01*
X132360119Y-94673238D01*
X132312500Y-94625619D01*
X132288690Y-94554190D01*
X132288690Y-94506571D01*
X132312500Y-94435142D01*
X132336309Y-94411333D01*
X132455357Y-93982761D02*
X132788690Y-93982761D01*
X132264880Y-94101809D02*
X132622023Y-94220857D01*
X132622023Y-93911333D01*
G04 #@! TO.C,D1*
X108938190Y-110605047D02*
X108438190Y-110605047D01*
X108438190Y-110486000D01*
X108462000Y-110414571D01*
X108509619Y-110366952D01*
X108557238Y-110343142D01*
X108652476Y-110319333D01*
X108723904Y-110319333D01*
X108819142Y-110343142D01*
X108866761Y-110366952D01*
X108914380Y-110414571D01*
X108938190Y-110486000D01*
X108938190Y-110605047D01*
X108938190Y-109843142D02*
X108938190Y-110128857D01*
X108938190Y-109986000D02*
X108438190Y-109986000D01*
X108509619Y-110033619D01*
X108557238Y-110081238D01*
X108581047Y-110128857D01*
G04 #@! TO.C,D2*
X120255452Y-105542190D02*
X120255452Y-105042190D01*
X120374500Y-105042190D01*
X120445928Y-105066000D01*
X120493547Y-105113619D01*
X120517357Y-105161238D01*
X120541166Y-105256476D01*
X120541166Y-105327904D01*
X120517357Y-105423142D01*
X120493547Y-105470761D01*
X120445928Y-105518380D01*
X120374500Y-105542190D01*
X120255452Y-105542190D01*
X120731642Y-105089809D02*
X120755452Y-105066000D01*
X120803071Y-105042190D01*
X120922119Y-105042190D01*
X120969738Y-105066000D01*
X120993547Y-105089809D01*
X121017357Y-105137428D01*
X121017357Y-105185047D01*
X120993547Y-105256476D01*
X120707833Y-105542190D01*
X121017357Y-105542190D01*
G04 #@! TO.C,R2*
X107358666Y-115542190D02*
X107192000Y-115304095D01*
X107072952Y-115542190D02*
X107072952Y-115042190D01*
X107263428Y-115042190D01*
X107311047Y-115066000D01*
X107334857Y-115089809D01*
X107358666Y-115137428D01*
X107358666Y-115208857D01*
X107334857Y-115256476D01*
X107311047Y-115280285D01*
X107263428Y-115304095D01*
X107072952Y-115304095D01*
X107549142Y-115089809D02*
X107572952Y-115066000D01*
X107620571Y-115042190D01*
X107739619Y-115042190D01*
X107787238Y-115066000D01*
X107811047Y-115089809D01*
X107834857Y-115137428D01*
X107834857Y-115185047D01*
X107811047Y-115256476D01*
X107525333Y-115542190D01*
X107834857Y-115542190D01*
G04 #@! TO.C,R3*
X109898666Y-108176190D02*
X109732000Y-107938095D01*
X109612952Y-108176190D02*
X109612952Y-107676190D01*
X109803428Y-107676190D01*
X109851047Y-107700000D01*
X109874857Y-107723809D01*
X109898666Y-107771428D01*
X109898666Y-107842857D01*
X109874857Y-107890476D01*
X109851047Y-107914285D01*
X109803428Y-107938095D01*
X109612952Y-107938095D01*
X110065333Y-107676190D02*
X110374857Y-107676190D01*
X110208190Y-107866666D01*
X110279619Y-107866666D01*
X110327238Y-107890476D01*
X110351047Y-107914285D01*
X110374857Y-107961904D01*
X110374857Y-108080952D01*
X110351047Y-108128571D01*
X110327238Y-108152380D01*
X110279619Y-108176190D01*
X110136761Y-108176190D01*
X110089142Y-108152380D01*
X110065333Y-108128571D01*
G04 #@! TO.C,R4*
X113086666Y-110656190D02*
X112920000Y-110418095D01*
X112800952Y-110656190D02*
X112800952Y-110156190D01*
X112991428Y-110156190D01*
X113039047Y-110180000D01*
X113062857Y-110203809D01*
X113086666Y-110251428D01*
X113086666Y-110322857D01*
X113062857Y-110370476D01*
X113039047Y-110394285D01*
X112991428Y-110418095D01*
X112800952Y-110418095D01*
X113515238Y-110322857D02*
X113515238Y-110656190D01*
X113396190Y-110132380D02*
X113277142Y-110489523D01*
X113586666Y-110489523D01*
G04 #@! TO.C,R5*
X108156190Y-105885833D02*
X107918095Y-106052500D01*
X108156190Y-106171547D02*
X107656190Y-106171547D01*
X107656190Y-105981071D01*
X107680000Y-105933452D01*
X107703809Y-105909642D01*
X107751428Y-105885833D01*
X107822857Y-105885833D01*
X107870476Y-105909642D01*
X107894285Y-105933452D01*
X107918095Y-105981071D01*
X107918095Y-106171547D01*
X107656190Y-105433452D02*
X107656190Y-105671547D01*
X107894285Y-105695357D01*
X107870476Y-105671547D01*
X107846666Y-105623928D01*
X107846666Y-105504880D01*
X107870476Y-105457261D01*
X107894285Y-105433452D01*
X107941904Y-105409642D01*
X108060952Y-105409642D01*
X108108571Y-105433452D01*
X108132380Y-105457261D01*
X108156190Y-105504880D01*
X108156190Y-105623928D01*
X108132380Y-105671547D01*
X108108571Y-105695357D01*
G04 #@! TO.C,R6*
X119098190Y-108846333D02*
X118860095Y-109013000D01*
X119098190Y-109132047D02*
X118598190Y-109132047D01*
X118598190Y-108941571D01*
X118622000Y-108893952D01*
X118645809Y-108870142D01*
X118693428Y-108846333D01*
X118764857Y-108846333D01*
X118812476Y-108870142D01*
X118836285Y-108893952D01*
X118860095Y-108941571D01*
X118860095Y-109132047D01*
X118598190Y-108417761D02*
X118598190Y-108513000D01*
X118622000Y-108560619D01*
X118645809Y-108584428D01*
X118717238Y-108632047D01*
X118812476Y-108655857D01*
X119002952Y-108655857D01*
X119050571Y-108632047D01*
X119074380Y-108608238D01*
X119098190Y-108560619D01*
X119098190Y-108465380D01*
X119074380Y-108417761D01*
X119050571Y-108393952D01*
X119002952Y-108370142D01*
X118883904Y-108370142D01*
X118836285Y-108393952D01*
X118812476Y-108417761D01*
X118788666Y-108465380D01*
X118788666Y-108560619D01*
X118812476Y-108608238D01*
X118836285Y-108632047D01*
X118883904Y-108655857D01*
G04 #@! TO.C,R7*
X106596666Y-100556190D02*
X106430000Y-100318095D01*
X106310952Y-100556190D02*
X106310952Y-100056190D01*
X106501428Y-100056190D01*
X106549047Y-100080000D01*
X106572857Y-100103809D01*
X106596666Y-100151428D01*
X106596666Y-100222857D01*
X106572857Y-100270476D01*
X106549047Y-100294285D01*
X106501428Y-100318095D01*
X106310952Y-100318095D01*
X106763333Y-100056190D02*
X107096666Y-100056190D01*
X106882380Y-100556190D01*
G04 #@! TO.C,R8*
X113962666Y-98956190D02*
X113796000Y-98718095D01*
X113676952Y-98956190D02*
X113676952Y-98456190D01*
X113867428Y-98456190D01*
X113915047Y-98480000D01*
X113938857Y-98503809D01*
X113962666Y-98551428D01*
X113962666Y-98622857D01*
X113938857Y-98670476D01*
X113915047Y-98694285D01*
X113867428Y-98718095D01*
X113676952Y-98718095D01*
X114248380Y-98670476D02*
X114200761Y-98646666D01*
X114176952Y-98622857D01*
X114153142Y-98575238D01*
X114153142Y-98551428D01*
X114176952Y-98503809D01*
X114200761Y-98480000D01*
X114248380Y-98456190D01*
X114343619Y-98456190D01*
X114391238Y-98480000D01*
X114415047Y-98503809D01*
X114438857Y-98551428D01*
X114438857Y-98575238D01*
X114415047Y-98622857D01*
X114391238Y-98646666D01*
X114343619Y-98670476D01*
X114248380Y-98670476D01*
X114200761Y-98694285D01*
X114176952Y-98718095D01*
X114153142Y-98765714D01*
X114153142Y-98860952D01*
X114176952Y-98908571D01*
X114200761Y-98932380D01*
X114248380Y-98956190D01*
X114343619Y-98956190D01*
X114391238Y-98932380D01*
X114415047Y-98908571D01*
X114438857Y-98860952D01*
X114438857Y-98765714D01*
X114415047Y-98718095D01*
X114391238Y-98694285D01*
X114343619Y-98670476D01*
G04 #@! TO.C,R9*
X121328666Y-101826190D02*
X121162000Y-101588095D01*
X121042952Y-101826190D02*
X121042952Y-101326190D01*
X121233428Y-101326190D01*
X121281047Y-101350000D01*
X121304857Y-101373809D01*
X121328666Y-101421428D01*
X121328666Y-101492857D01*
X121304857Y-101540476D01*
X121281047Y-101564285D01*
X121233428Y-101588095D01*
X121042952Y-101588095D01*
X121566761Y-101826190D02*
X121662000Y-101826190D01*
X121709619Y-101802380D01*
X121733428Y-101778571D01*
X121781047Y-101707142D01*
X121804857Y-101611904D01*
X121804857Y-101421428D01*
X121781047Y-101373809D01*
X121757238Y-101350000D01*
X121709619Y-101326190D01*
X121614380Y-101326190D01*
X121566761Y-101350000D01*
X121542952Y-101373809D01*
X121519142Y-101421428D01*
X121519142Y-101540476D01*
X121542952Y-101588095D01*
X121566761Y-101611904D01*
X121614380Y-101635714D01*
X121709619Y-101635714D01*
X121757238Y-101611904D01*
X121781047Y-101588095D01*
X121804857Y-101540476D01*
G04 #@! TO.C,R10*
X113978571Y-100556190D02*
X113811904Y-100318095D01*
X113692857Y-100556190D02*
X113692857Y-100056190D01*
X113883333Y-100056190D01*
X113930952Y-100080000D01*
X113954761Y-100103809D01*
X113978571Y-100151428D01*
X113978571Y-100222857D01*
X113954761Y-100270476D01*
X113930952Y-100294285D01*
X113883333Y-100318095D01*
X113692857Y-100318095D01*
X114454761Y-100556190D02*
X114169047Y-100556190D01*
X114311904Y-100556190D02*
X114311904Y-100056190D01*
X114264285Y-100127619D01*
X114216666Y-100175238D01*
X114169047Y-100199047D01*
X114764285Y-100056190D02*
X114811904Y-100056190D01*
X114859523Y-100080000D01*
X114883333Y-100103809D01*
X114907142Y-100151428D01*
X114930952Y-100246666D01*
X114930952Y-100365714D01*
X114907142Y-100460952D01*
X114883333Y-100508571D01*
X114859523Y-100532380D01*
X114811904Y-100556190D01*
X114764285Y-100556190D01*
X114716666Y-100532380D01*
X114692857Y-100508571D01*
X114669047Y-100460952D01*
X114645238Y-100365714D01*
X114645238Y-100246666D01*
X114669047Y-100151428D01*
X114692857Y-100103809D01*
X114716666Y-100080000D01*
X114764285Y-100056190D01*
G04 #@! TO.C,R11*
X121852571Y-99540190D02*
X121685904Y-99302095D01*
X121566857Y-99540190D02*
X121566857Y-99040190D01*
X121757333Y-99040190D01*
X121804952Y-99064000D01*
X121828761Y-99087809D01*
X121852571Y-99135428D01*
X121852571Y-99206857D01*
X121828761Y-99254476D01*
X121804952Y-99278285D01*
X121757333Y-99302095D01*
X121566857Y-99302095D01*
X122328761Y-99540190D02*
X122043047Y-99540190D01*
X122185904Y-99540190D02*
X122185904Y-99040190D01*
X122138285Y-99111619D01*
X122090666Y-99159238D01*
X122043047Y-99183047D01*
X122804952Y-99540190D02*
X122519238Y-99540190D01*
X122662095Y-99540190D02*
X122662095Y-99040190D01*
X122614476Y-99111619D01*
X122566857Y-99159238D01*
X122519238Y-99183047D01*
G04 #@! TO.C,R13*
D14*
X116156071Y-111426190D02*
X115989404Y-111188095D01*
X115870357Y-111426190D02*
X115870357Y-110926190D01*
X116060833Y-110926190D01*
X116108452Y-110950000D01*
X116132261Y-110973809D01*
X116156071Y-111021428D01*
X116156071Y-111092857D01*
X116132261Y-111140476D01*
X116108452Y-111164285D01*
X116060833Y-111188095D01*
X115870357Y-111188095D01*
X116632261Y-111426190D02*
X116346547Y-111426190D01*
X116489404Y-111426190D02*
X116489404Y-110926190D01*
X116441785Y-110997619D01*
X116394166Y-111045238D01*
X116346547Y-111069047D01*
X116798928Y-110926190D02*
X117108452Y-110926190D01*
X116941785Y-111116666D01*
X117013214Y-111116666D01*
X117060833Y-111140476D01*
X117084642Y-111164285D01*
X117108452Y-111211904D01*
X117108452Y-111330952D01*
X117084642Y-111378571D01*
X117060833Y-111402380D01*
X117013214Y-111426190D01*
X116870357Y-111426190D01*
X116822738Y-111402380D01*
X116798928Y-111378571D01*
G04 #@! TO.C,SW1*
D13*
X111601333Y-115772380D02*
X111672761Y-115796190D01*
X111791809Y-115796190D01*
X111839428Y-115772380D01*
X111863238Y-115748571D01*
X111887047Y-115700952D01*
X111887047Y-115653333D01*
X111863238Y-115605714D01*
X111839428Y-115581904D01*
X111791809Y-115558095D01*
X111696571Y-115534285D01*
X111648952Y-115510476D01*
X111625142Y-115486666D01*
X111601333Y-115439047D01*
X111601333Y-115391428D01*
X111625142Y-115343809D01*
X111648952Y-115320000D01*
X111696571Y-115296190D01*
X111815619Y-115296190D01*
X111887047Y-115320000D01*
X112053714Y-115296190D02*
X112172761Y-115796190D01*
X112268000Y-115439047D01*
X112363238Y-115796190D01*
X112482285Y-115296190D01*
X112934666Y-115796190D02*
X112648952Y-115796190D01*
X112791809Y-115796190D02*
X112791809Y-115296190D01*
X112744190Y-115367619D01*
X112696571Y-115415238D01*
X112648952Y-115439047D01*
G04 #@! TO.C,U2*
X113129047Y-107126190D02*
X113129047Y-107530952D01*
X113152857Y-107578571D01*
X113176666Y-107602380D01*
X113224285Y-107626190D01*
X113319523Y-107626190D01*
X113367142Y-107602380D01*
X113390952Y-107578571D01*
X113414761Y-107530952D01*
X113414761Y-107126190D01*
X113629047Y-107173809D02*
X113652857Y-107150000D01*
X113700476Y-107126190D01*
X113819523Y-107126190D01*
X113867142Y-107150000D01*
X113890952Y-107173809D01*
X113914761Y-107221428D01*
X113914761Y-107269047D01*
X113890952Y-107340476D01*
X113605238Y-107626190D01*
X113914761Y-107626190D01*
G04 #@! TO.C,J1*
X119975333Y-95738190D02*
X119975333Y-96095333D01*
X119951523Y-96166761D01*
X119903904Y-96214380D01*
X119832476Y-96238190D01*
X119784857Y-96238190D01*
X120475333Y-96238190D02*
X120189619Y-96238190D01*
X120332476Y-96238190D02*
X120332476Y-95738190D01*
X120284857Y-95809619D01*
X120237238Y-95857238D01*
X120189619Y-95881047D01*
G04 #@! TD*
M02*
