G04 #@! TF.GenerationSoftware,KiCad,Pcbnew,(5.0.2)-1*
G04 #@! TF.CreationDate,2019-05-31T16:15:03-05:00*
G04 #@! TF.ProjectId,ppg,7070672e-6b69-4636-9164-5f7063625858,V01*
G04 #@! TF.SameCoordinates,Original*
G04 #@! TF.FileFunction,Soldermask,Top*
G04 #@! TF.FilePolarity,Negative*
%FSLAX46Y46*%
G04 Gerber Fmt 4.6, Leading zero omitted, Abs format (unit mm)*
G04 Created by KiCad (PCBNEW (5.0.2)-1) date 5/31/2019 4:15:03 PM*
%MOMM*%
%LPD*%
G01*
G04 APERTURE LIST*
%ADD10C,0.100000*%
%ADD11C,0.976600*%
%ADD12R,3.601600X3.401600*%
%ADD13R,4.101600X4.101600*%
%ADD14C,1.051600*%
%ADD15R,1.351600X2.851600*%
%ADD16R,1.301600X0.601600*%
%ADD17C,1.851600*%
%ADD18R,1.101600X1.851600*%
G04 APERTURE END LIST*
D10*
G04 #@! TO.C,R12*
G36*
X116854081Y-107425376D02*
X116877781Y-107428891D01*
X116901023Y-107434713D01*
X116923582Y-107442785D01*
X116945242Y-107453029D01*
X116965792Y-107465347D01*
X116985037Y-107479619D01*
X117002790Y-107495710D01*
X117018881Y-107513463D01*
X117033153Y-107532708D01*
X117045471Y-107553258D01*
X117055715Y-107574918D01*
X117063787Y-107597477D01*
X117069609Y-107620719D01*
X117073124Y-107644419D01*
X117074300Y-107668350D01*
X117074300Y-108231650D01*
X117073124Y-108255581D01*
X117069609Y-108279281D01*
X117063787Y-108302523D01*
X117055715Y-108325082D01*
X117045471Y-108346742D01*
X117033153Y-108367292D01*
X117018881Y-108386537D01*
X117002790Y-108404290D01*
X116985037Y-108420381D01*
X116965792Y-108434653D01*
X116945242Y-108446971D01*
X116923582Y-108457215D01*
X116901023Y-108465287D01*
X116877781Y-108471109D01*
X116854081Y-108474624D01*
X116830150Y-108475800D01*
X116341850Y-108475800D01*
X116317919Y-108474624D01*
X116294219Y-108471109D01*
X116270977Y-108465287D01*
X116248418Y-108457215D01*
X116226758Y-108446971D01*
X116206208Y-108434653D01*
X116186963Y-108420381D01*
X116169210Y-108404290D01*
X116153119Y-108386537D01*
X116138847Y-108367292D01*
X116126529Y-108346742D01*
X116116285Y-108325082D01*
X116108213Y-108302523D01*
X116102391Y-108279281D01*
X116098876Y-108255581D01*
X116097700Y-108231650D01*
X116097700Y-107668350D01*
X116098876Y-107644419D01*
X116102391Y-107620719D01*
X116108213Y-107597477D01*
X116116285Y-107574918D01*
X116126529Y-107553258D01*
X116138847Y-107532708D01*
X116153119Y-107513463D01*
X116169210Y-107495710D01*
X116186963Y-107479619D01*
X116206208Y-107465347D01*
X116226758Y-107453029D01*
X116248418Y-107442785D01*
X116270977Y-107434713D01*
X116294219Y-107428891D01*
X116317919Y-107425376D01*
X116341850Y-107424200D01*
X116830150Y-107424200D01*
X116854081Y-107425376D01*
X116854081Y-107425376D01*
G37*
D11*
X116586000Y-107950000D03*
D10*
G36*
X115279081Y-107425376D02*
X115302781Y-107428891D01*
X115326023Y-107434713D01*
X115348582Y-107442785D01*
X115370242Y-107453029D01*
X115390792Y-107465347D01*
X115410037Y-107479619D01*
X115427790Y-107495710D01*
X115443881Y-107513463D01*
X115458153Y-107532708D01*
X115470471Y-107553258D01*
X115480715Y-107574918D01*
X115488787Y-107597477D01*
X115494609Y-107620719D01*
X115498124Y-107644419D01*
X115499300Y-107668350D01*
X115499300Y-108231650D01*
X115498124Y-108255581D01*
X115494609Y-108279281D01*
X115488787Y-108302523D01*
X115480715Y-108325082D01*
X115470471Y-108346742D01*
X115458153Y-108367292D01*
X115443881Y-108386537D01*
X115427790Y-108404290D01*
X115410037Y-108420381D01*
X115390792Y-108434653D01*
X115370242Y-108446971D01*
X115348582Y-108457215D01*
X115326023Y-108465287D01*
X115302781Y-108471109D01*
X115279081Y-108474624D01*
X115255150Y-108475800D01*
X114766850Y-108475800D01*
X114742919Y-108474624D01*
X114719219Y-108471109D01*
X114695977Y-108465287D01*
X114673418Y-108457215D01*
X114651758Y-108446971D01*
X114631208Y-108434653D01*
X114611963Y-108420381D01*
X114594210Y-108404290D01*
X114578119Y-108386537D01*
X114563847Y-108367292D01*
X114551529Y-108346742D01*
X114541285Y-108325082D01*
X114533213Y-108302523D01*
X114527391Y-108279281D01*
X114523876Y-108255581D01*
X114522700Y-108231650D01*
X114522700Y-107668350D01*
X114523876Y-107644419D01*
X114527391Y-107620719D01*
X114533213Y-107597477D01*
X114541285Y-107574918D01*
X114551529Y-107553258D01*
X114563847Y-107532708D01*
X114578119Y-107513463D01*
X114594210Y-107495710D01*
X114611963Y-107479619D01*
X114631208Y-107465347D01*
X114651758Y-107453029D01*
X114673418Y-107442785D01*
X114695977Y-107434713D01*
X114719219Y-107428891D01*
X114742919Y-107425376D01*
X114766850Y-107424200D01*
X115255150Y-107424200D01*
X115279081Y-107425376D01*
X115279081Y-107425376D01*
G37*
D11*
X115011000Y-107950000D03*
G04 #@! TD*
D12*
G04 #@! TO.C,BT1*
X117110000Y-112890000D03*
X132910000Y-112890000D03*
D13*
X125010000Y-112890000D03*
G04 #@! TD*
D10*
G04 #@! TO.C,C2*
G36*
X108073081Y-98095376D02*
X108096781Y-98098891D01*
X108120023Y-98104713D01*
X108142582Y-98112785D01*
X108164242Y-98123029D01*
X108184792Y-98135347D01*
X108204037Y-98149619D01*
X108221790Y-98165710D01*
X108237881Y-98183463D01*
X108252153Y-98202708D01*
X108264471Y-98223258D01*
X108274715Y-98244918D01*
X108282787Y-98267477D01*
X108288609Y-98290719D01*
X108292124Y-98314419D01*
X108293300Y-98338350D01*
X108293300Y-98901650D01*
X108292124Y-98925581D01*
X108288609Y-98949281D01*
X108282787Y-98972523D01*
X108274715Y-98995082D01*
X108264471Y-99016742D01*
X108252153Y-99037292D01*
X108237881Y-99056537D01*
X108221790Y-99074290D01*
X108204037Y-99090381D01*
X108184792Y-99104653D01*
X108164242Y-99116971D01*
X108142582Y-99127215D01*
X108120023Y-99135287D01*
X108096781Y-99141109D01*
X108073081Y-99144624D01*
X108049150Y-99145800D01*
X107560850Y-99145800D01*
X107536919Y-99144624D01*
X107513219Y-99141109D01*
X107489977Y-99135287D01*
X107467418Y-99127215D01*
X107445758Y-99116971D01*
X107425208Y-99104653D01*
X107405963Y-99090381D01*
X107388210Y-99074290D01*
X107372119Y-99056537D01*
X107357847Y-99037292D01*
X107345529Y-99016742D01*
X107335285Y-98995082D01*
X107327213Y-98972523D01*
X107321391Y-98949281D01*
X107317876Y-98925581D01*
X107316700Y-98901650D01*
X107316700Y-98338350D01*
X107317876Y-98314419D01*
X107321391Y-98290719D01*
X107327213Y-98267477D01*
X107335285Y-98244918D01*
X107345529Y-98223258D01*
X107357847Y-98202708D01*
X107372119Y-98183463D01*
X107388210Y-98165710D01*
X107405963Y-98149619D01*
X107425208Y-98135347D01*
X107445758Y-98123029D01*
X107467418Y-98112785D01*
X107489977Y-98104713D01*
X107513219Y-98098891D01*
X107536919Y-98095376D01*
X107560850Y-98094200D01*
X108049150Y-98094200D01*
X108073081Y-98095376D01*
X108073081Y-98095376D01*
G37*
D11*
X107805000Y-98620000D03*
D10*
G36*
X109648081Y-98095376D02*
X109671781Y-98098891D01*
X109695023Y-98104713D01*
X109717582Y-98112785D01*
X109739242Y-98123029D01*
X109759792Y-98135347D01*
X109779037Y-98149619D01*
X109796790Y-98165710D01*
X109812881Y-98183463D01*
X109827153Y-98202708D01*
X109839471Y-98223258D01*
X109849715Y-98244918D01*
X109857787Y-98267477D01*
X109863609Y-98290719D01*
X109867124Y-98314419D01*
X109868300Y-98338350D01*
X109868300Y-98901650D01*
X109867124Y-98925581D01*
X109863609Y-98949281D01*
X109857787Y-98972523D01*
X109849715Y-98995082D01*
X109839471Y-99016742D01*
X109827153Y-99037292D01*
X109812881Y-99056537D01*
X109796790Y-99074290D01*
X109779037Y-99090381D01*
X109759792Y-99104653D01*
X109739242Y-99116971D01*
X109717582Y-99127215D01*
X109695023Y-99135287D01*
X109671781Y-99141109D01*
X109648081Y-99144624D01*
X109624150Y-99145800D01*
X109135850Y-99145800D01*
X109111919Y-99144624D01*
X109088219Y-99141109D01*
X109064977Y-99135287D01*
X109042418Y-99127215D01*
X109020758Y-99116971D01*
X109000208Y-99104653D01*
X108980963Y-99090381D01*
X108963210Y-99074290D01*
X108947119Y-99056537D01*
X108932847Y-99037292D01*
X108920529Y-99016742D01*
X108910285Y-98995082D01*
X108902213Y-98972523D01*
X108896391Y-98949281D01*
X108892876Y-98925581D01*
X108891700Y-98901650D01*
X108891700Y-98338350D01*
X108892876Y-98314419D01*
X108896391Y-98290719D01*
X108902213Y-98267477D01*
X108910285Y-98244918D01*
X108920529Y-98223258D01*
X108932847Y-98202708D01*
X108947119Y-98183463D01*
X108963210Y-98165710D01*
X108980963Y-98149619D01*
X109000208Y-98135347D01*
X109020758Y-98123029D01*
X109042418Y-98112785D01*
X109064977Y-98104713D01*
X109088219Y-98098891D01*
X109111919Y-98095376D01*
X109135850Y-98094200D01*
X109624150Y-98094200D01*
X109648081Y-98095376D01*
X109648081Y-98095376D01*
G37*
D11*
X109380000Y-98620000D03*
G04 #@! TD*
D10*
G04 #@! TO.C,C3*
G36*
X116033081Y-98015376D02*
X116056781Y-98018891D01*
X116080023Y-98024713D01*
X116102582Y-98032785D01*
X116124242Y-98043029D01*
X116144792Y-98055347D01*
X116164037Y-98069619D01*
X116181790Y-98085710D01*
X116197881Y-98103463D01*
X116212153Y-98122708D01*
X116224471Y-98143258D01*
X116234715Y-98164918D01*
X116242787Y-98187477D01*
X116248609Y-98210719D01*
X116252124Y-98234419D01*
X116253300Y-98258350D01*
X116253300Y-98821650D01*
X116252124Y-98845581D01*
X116248609Y-98869281D01*
X116242787Y-98892523D01*
X116234715Y-98915082D01*
X116224471Y-98936742D01*
X116212153Y-98957292D01*
X116197881Y-98976537D01*
X116181790Y-98994290D01*
X116164037Y-99010381D01*
X116144792Y-99024653D01*
X116124242Y-99036971D01*
X116102582Y-99047215D01*
X116080023Y-99055287D01*
X116056781Y-99061109D01*
X116033081Y-99064624D01*
X116009150Y-99065800D01*
X115520850Y-99065800D01*
X115496919Y-99064624D01*
X115473219Y-99061109D01*
X115449977Y-99055287D01*
X115427418Y-99047215D01*
X115405758Y-99036971D01*
X115385208Y-99024653D01*
X115365963Y-99010381D01*
X115348210Y-98994290D01*
X115332119Y-98976537D01*
X115317847Y-98957292D01*
X115305529Y-98936742D01*
X115295285Y-98915082D01*
X115287213Y-98892523D01*
X115281391Y-98869281D01*
X115277876Y-98845581D01*
X115276700Y-98821650D01*
X115276700Y-98258350D01*
X115277876Y-98234419D01*
X115281391Y-98210719D01*
X115287213Y-98187477D01*
X115295285Y-98164918D01*
X115305529Y-98143258D01*
X115317847Y-98122708D01*
X115332119Y-98103463D01*
X115348210Y-98085710D01*
X115365963Y-98069619D01*
X115385208Y-98055347D01*
X115405758Y-98043029D01*
X115427418Y-98032785D01*
X115449977Y-98024713D01*
X115473219Y-98018891D01*
X115496919Y-98015376D01*
X115520850Y-98014200D01*
X116009150Y-98014200D01*
X116033081Y-98015376D01*
X116033081Y-98015376D01*
G37*
D11*
X115765000Y-98540000D03*
D10*
G36*
X117608081Y-98015376D02*
X117631781Y-98018891D01*
X117655023Y-98024713D01*
X117677582Y-98032785D01*
X117699242Y-98043029D01*
X117719792Y-98055347D01*
X117739037Y-98069619D01*
X117756790Y-98085710D01*
X117772881Y-98103463D01*
X117787153Y-98122708D01*
X117799471Y-98143258D01*
X117809715Y-98164918D01*
X117817787Y-98187477D01*
X117823609Y-98210719D01*
X117827124Y-98234419D01*
X117828300Y-98258350D01*
X117828300Y-98821650D01*
X117827124Y-98845581D01*
X117823609Y-98869281D01*
X117817787Y-98892523D01*
X117809715Y-98915082D01*
X117799471Y-98936742D01*
X117787153Y-98957292D01*
X117772881Y-98976537D01*
X117756790Y-98994290D01*
X117739037Y-99010381D01*
X117719792Y-99024653D01*
X117699242Y-99036971D01*
X117677582Y-99047215D01*
X117655023Y-99055287D01*
X117631781Y-99061109D01*
X117608081Y-99064624D01*
X117584150Y-99065800D01*
X117095850Y-99065800D01*
X117071919Y-99064624D01*
X117048219Y-99061109D01*
X117024977Y-99055287D01*
X117002418Y-99047215D01*
X116980758Y-99036971D01*
X116960208Y-99024653D01*
X116940963Y-99010381D01*
X116923210Y-98994290D01*
X116907119Y-98976537D01*
X116892847Y-98957292D01*
X116880529Y-98936742D01*
X116870285Y-98915082D01*
X116862213Y-98892523D01*
X116856391Y-98869281D01*
X116852876Y-98845581D01*
X116851700Y-98821650D01*
X116851700Y-98258350D01*
X116852876Y-98234419D01*
X116856391Y-98210719D01*
X116862213Y-98187477D01*
X116870285Y-98164918D01*
X116880529Y-98143258D01*
X116892847Y-98122708D01*
X116907119Y-98103463D01*
X116923210Y-98085710D01*
X116940963Y-98069619D01*
X116960208Y-98055347D01*
X116980758Y-98043029D01*
X117002418Y-98032785D01*
X117024977Y-98024713D01*
X117048219Y-98018891D01*
X117071919Y-98015376D01*
X117095850Y-98014200D01*
X117584150Y-98014200D01*
X117608081Y-98015376D01*
X117608081Y-98015376D01*
G37*
D11*
X117340000Y-98540000D03*
G04 #@! TD*
D10*
G04 #@! TO.C,D1*
G36*
X107808669Y-108845466D02*
X107834189Y-108849252D01*
X107859216Y-108855520D01*
X107883507Y-108864212D01*
X107906830Y-108875243D01*
X107928959Y-108888507D01*
X107949682Y-108903876D01*
X107968798Y-108921202D01*
X107986124Y-108940318D01*
X108001493Y-108961041D01*
X108014757Y-108983170D01*
X108025788Y-109006493D01*
X108034480Y-109030784D01*
X108040748Y-109055811D01*
X108044534Y-109081331D01*
X108045800Y-109107100D01*
X108045800Y-109732900D01*
X108044534Y-109758669D01*
X108040748Y-109784189D01*
X108034480Y-109809216D01*
X108025788Y-109833507D01*
X108014757Y-109856830D01*
X108001493Y-109878959D01*
X107986124Y-109899682D01*
X107968798Y-109918798D01*
X107949682Y-109936124D01*
X107928959Y-109951493D01*
X107906830Y-109964757D01*
X107883507Y-109975788D01*
X107859216Y-109984480D01*
X107834189Y-109990748D01*
X107808669Y-109994534D01*
X107782900Y-109995800D01*
X107257100Y-109995800D01*
X107231331Y-109994534D01*
X107205811Y-109990748D01*
X107180784Y-109984480D01*
X107156493Y-109975788D01*
X107133170Y-109964757D01*
X107111041Y-109951493D01*
X107090318Y-109936124D01*
X107071202Y-109918798D01*
X107053876Y-109899682D01*
X107038507Y-109878959D01*
X107025243Y-109856830D01*
X107014212Y-109833507D01*
X107005520Y-109809216D01*
X106999252Y-109784189D01*
X106995466Y-109758669D01*
X106994200Y-109732900D01*
X106994200Y-109107100D01*
X106995466Y-109081331D01*
X106999252Y-109055811D01*
X107005520Y-109030784D01*
X107014212Y-109006493D01*
X107025243Y-108983170D01*
X107038507Y-108961041D01*
X107053876Y-108940318D01*
X107071202Y-108921202D01*
X107090318Y-108903876D01*
X107111041Y-108888507D01*
X107133170Y-108875243D01*
X107156493Y-108864212D01*
X107180784Y-108855520D01*
X107205811Y-108849252D01*
X107231331Y-108845466D01*
X107257100Y-108844200D01*
X107782900Y-108844200D01*
X107808669Y-108845466D01*
X107808669Y-108845466D01*
G37*
D14*
X107520000Y-109420000D03*
D10*
G36*
X107808669Y-110595466D02*
X107834189Y-110599252D01*
X107859216Y-110605520D01*
X107883507Y-110614212D01*
X107906830Y-110625243D01*
X107928959Y-110638507D01*
X107949682Y-110653876D01*
X107968798Y-110671202D01*
X107986124Y-110690318D01*
X108001493Y-110711041D01*
X108014757Y-110733170D01*
X108025788Y-110756493D01*
X108034480Y-110780784D01*
X108040748Y-110805811D01*
X108044534Y-110831331D01*
X108045800Y-110857100D01*
X108045800Y-111482900D01*
X108044534Y-111508669D01*
X108040748Y-111534189D01*
X108034480Y-111559216D01*
X108025788Y-111583507D01*
X108014757Y-111606830D01*
X108001493Y-111628959D01*
X107986124Y-111649682D01*
X107968798Y-111668798D01*
X107949682Y-111686124D01*
X107928959Y-111701493D01*
X107906830Y-111714757D01*
X107883507Y-111725788D01*
X107859216Y-111734480D01*
X107834189Y-111740748D01*
X107808669Y-111744534D01*
X107782900Y-111745800D01*
X107257100Y-111745800D01*
X107231331Y-111744534D01*
X107205811Y-111740748D01*
X107180784Y-111734480D01*
X107156493Y-111725788D01*
X107133170Y-111714757D01*
X107111041Y-111701493D01*
X107090318Y-111686124D01*
X107071202Y-111668798D01*
X107053876Y-111649682D01*
X107038507Y-111628959D01*
X107025243Y-111606830D01*
X107014212Y-111583507D01*
X107005520Y-111559216D01*
X106999252Y-111534189D01*
X106995466Y-111508669D01*
X106994200Y-111482900D01*
X106994200Y-110857100D01*
X106995466Y-110831331D01*
X106999252Y-110805811D01*
X107005520Y-110780784D01*
X107014212Y-110756493D01*
X107025243Y-110733170D01*
X107038507Y-110711041D01*
X107053876Y-110690318D01*
X107071202Y-110671202D01*
X107090318Y-110653876D01*
X107111041Y-110638507D01*
X107133170Y-110625243D01*
X107156493Y-110614212D01*
X107180784Y-110605520D01*
X107205811Y-110599252D01*
X107231331Y-110595466D01*
X107257100Y-110594200D01*
X107782900Y-110594200D01*
X107808669Y-110595466D01*
X107808669Y-110595466D01*
G37*
D14*
X107520000Y-111170000D03*
G04 #@! TD*
D10*
G04 #@! TO.C,D2*
G36*
X121680081Y-103361376D02*
X121703781Y-103364891D01*
X121727023Y-103370713D01*
X121749582Y-103378785D01*
X121771242Y-103389029D01*
X121791792Y-103401347D01*
X121811037Y-103415619D01*
X121828790Y-103431710D01*
X121844881Y-103449463D01*
X121859153Y-103468708D01*
X121871471Y-103489258D01*
X121881715Y-103510918D01*
X121889787Y-103533477D01*
X121895609Y-103556719D01*
X121899124Y-103580419D01*
X121900300Y-103604350D01*
X121900300Y-104167650D01*
X121899124Y-104191581D01*
X121895609Y-104215281D01*
X121889787Y-104238523D01*
X121881715Y-104261082D01*
X121871471Y-104282742D01*
X121859153Y-104303292D01*
X121844881Y-104322537D01*
X121828790Y-104340290D01*
X121811037Y-104356381D01*
X121791792Y-104370653D01*
X121771242Y-104382971D01*
X121749582Y-104393215D01*
X121727023Y-104401287D01*
X121703781Y-104407109D01*
X121680081Y-104410624D01*
X121656150Y-104411800D01*
X121167850Y-104411800D01*
X121143919Y-104410624D01*
X121120219Y-104407109D01*
X121096977Y-104401287D01*
X121074418Y-104393215D01*
X121052758Y-104382971D01*
X121032208Y-104370653D01*
X121012963Y-104356381D01*
X120995210Y-104340290D01*
X120979119Y-104322537D01*
X120964847Y-104303292D01*
X120952529Y-104282742D01*
X120942285Y-104261082D01*
X120934213Y-104238523D01*
X120928391Y-104215281D01*
X120924876Y-104191581D01*
X120923700Y-104167650D01*
X120923700Y-103604350D01*
X120924876Y-103580419D01*
X120928391Y-103556719D01*
X120934213Y-103533477D01*
X120942285Y-103510918D01*
X120952529Y-103489258D01*
X120964847Y-103468708D01*
X120979119Y-103449463D01*
X120995210Y-103431710D01*
X121012963Y-103415619D01*
X121032208Y-103401347D01*
X121052758Y-103389029D01*
X121074418Y-103378785D01*
X121096977Y-103370713D01*
X121120219Y-103364891D01*
X121143919Y-103361376D01*
X121167850Y-103360200D01*
X121656150Y-103360200D01*
X121680081Y-103361376D01*
X121680081Y-103361376D01*
G37*
D11*
X121412000Y-103886000D03*
D10*
G36*
X120105081Y-103361376D02*
X120128781Y-103364891D01*
X120152023Y-103370713D01*
X120174582Y-103378785D01*
X120196242Y-103389029D01*
X120216792Y-103401347D01*
X120236037Y-103415619D01*
X120253790Y-103431710D01*
X120269881Y-103449463D01*
X120284153Y-103468708D01*
X120296471Y-103489258D01*
X120306715Y-103510918D01*
X120314787Y-103533477D01*
X120320609Y-103556719D01*
X120324124Y-103580419D01*
X120325300Y-103604350D01*
X120325300Y-104167650D01*
X120324124Y-104191581D01*
X120320609Y-104215281D01*
X120314787Y-104238523D01*
X120306715Y-104261082D01*
X120296471Y-104282742D01*
X120284153Y-104303292D01*
X120269881Y-104322537D01*
X120253790Y-104340290D01*
X120236037Y-104356381D01*
X120216792Y-104370653D01*
X120196242Y-104382971D01*
X120174582Y-104393215D01*
X120152023Y-104401287D01*
X120128781Y-104407109D01*
X120105081Y-104410624D01*
X120081150Y-104411800D01*
X119592850Y-104411800D01*
X119568919Y-104410624D01*
X119545219Y-104407109D01*
X119521977Y-104401287D01*
X119499418Y-104393215D01*
X119477758Y-104382971D01*
X119457208Y-104370653D01*
X119437963Y-104356381D01*
X119420210Y-104340290D01*
X119404119Y-104322537D01*
X119389847Y-104303292D01*
X119377529Y-104282742D01*
X119367285Y-104261082D01*
X119359213Y-104238523D01*
X119353391Y-104215281D01*
X119349876Y-104191581D01*
X119348700Y-104167650D01*
X119348700Y-103604350D01*
X119349876Y-103580419D01*
X119353391Y-103556719D01*
X119359213Y-103533477D01*
X119367285Y-103510918D01*
X119377529Y-103489258D01*
X119389847Y-103468708D01*
X119404119Y-103449463D01*
X119420210Y-103431710D01*
X119437963Y-103415619D01*
X119457208Y-103401347D01*
X119477758Y-103389029D01*
X119499418Y-103378785D01*
X119521977Y-103370713D01*
X119545219Y-103364891D01*
X119568919Y-103361376D01*
X119592850Y-103360200D01*
X120081150Y-103360200D01*
X120105081Y-103361376D01*
X120105081Y-103361376D01*
G37*
D11*
X119837000Y-103886000D03*
G04 #@! TD*
D10*
G04 #@! TO.C,R2*
G36*
X107835581Y-113852876D02*
X107859281Y-113856391D01*
X107882523Y-113862213D01*
X107905082Y-113870285D01*
X107926742Y-113880529D01*
X107947292Y-113892847D01*
X107966537Y-113907119D01*
X107984290Y-113923210D01*
X108000381Y-113940963D01*
X108014653Y-113960208D01*
X108026971Y-113980758D01*
X108037215Y-114002418D01*
X108045287Y-114024977D01*
X108051109Y-114048219D01*
X108054624Y-114071919D01*
X108055800Y-114095850D01*
X108055800Y-114584150D01*
X108054624Y-114608081D01*
X108051109Y-114631781D01*
X108045287Y-114655023D01*
X108037215Y-114677582D01*
X108026971Y-114699242D01*
X108014653Y-114719792D01*
X108000381Y-114739037D01*
X107984290Y-114756790D01*
X107966537Y-114772881D01*
X107947292Y-114787153D01*
X107926742Y-114799471D01*
X107905082Y-114809715D01*
X107882523Y-114817787D01*
X107859281Y-114823609D01*
X107835581Y-114827124D01*
X107811650Y-114828300D01*
X107248350Y-114828300D01*
X107224419Y-114827124D01*
X107200719Y-114823609D01*
X107177477Y-114817787D01*
X107154918Y-114809715D01*
X107133258Y-114799471D01*
X107112708Y-114787153D01*
X107093463Y-114772881D01*
X107075710Y-114756790D01*
X107059619Y-114739037D01*
X107045347Y-114719792D01*
X107033029Y-114699242D01*
X107022785Y-114677582D01*
X107014713Y-114655023D01*
X107008891Y-114631781D01*
X107005376Y-114608081D01*
X107004200Y-114584150D01*
X107004200Y-114095850D01*
X107005376Y-114071919D01*
X107008891Y-114048219D01*
X107014713Y-114024977D01*
X107022785Y-114002418D01*
X107033029Y-113980758D01*
X107045347Y-113960208D01*
X107059619Y-113940963D01*
X107075710Y-113923210D01*
X107093463Y-113907119D01*
X107112708Y-113892847D01*
X107133258Y-113880529D01*
X107154918Y-113870285D01*
X107177477Y-113862213D01*
X107200719Y-113856391D01*
X107224419Y-113852876D01*
X107248350Y-113851700D01*
X107811650Y-113851700D01*
X107835581Y-113852876D01*
X107835581Y-113852876D01*
G37*
D11*
X107530000Y-114340000D03*
D10*
G36*
X107835581Y-112277876D02*
X107859281Y-112281391D01*
X107882523Y-112287213D01*
X107905082Y-112295285D01*
X107926742Y-112305529D01*
X107947292Y-112317847D01*
X107966537Y-112332119D01*
X107984290Y-112348210D01*
X108000381Y-112365963D01*
X108014653Y-112385208D01*
X108026971Y-112405758D01*
X108037215Y-112427418D01*
X108045287Y-112449977D01*
X108051109Y-112473219D01*
X108054624Y-112496919D01*
X108055800Y-112520850D01*
X108055800Y-113009150D01*
X108054624Y-113033081D01*
X108051109Y-113056781D01*
X108045287Y-113080023D01*
X108037215Y-113102582D01*
X108026971Y-113124242D01*
X108014653Y-113144792D01*
X108000381Y-113164037D01*
X107984290Y-113181790D01*
X107966537Y-113197881D01*
X107947292Y-113212153D01*
X107926742Y-113224471D01*
X107905082Y-113234715D01*
X107882523Y-113242787D01*
X107859281Y-113248609D01*
X107835581Y-113252124D01*
X107811650Y-113253300D01*
X107248350Y-113253300D01*
X107224419Y-113252124D01*
X107200719Y-113248609D01*
X107177477Y-113242787D01*
X107154918Y-113234715D01*
X107133258Y-113224471D01*
X107112708Y-113212153D01*
X107093463Y-113197881D01*
X107075710Y-113181790D01*
X107059619Y-113164037D01*
X107045347Y-113144792D01*
X107033029Y-113124242D01*
X107022785Y-113102582D01*
X107014713Y-113080023D01*
X107008891Y-113056781D01*
X107005376Y-113033081D01*
X107004200Y-113009150D01*
X107004200Y-112520850D01*
X107005376Y-112496919D01*
X107008891Y-112473219D01*
X107014713Y-112449977D01*
X107022785Y-112427418D01*
X107033029Y-112405758D01*
X107045347Y-112385208D01*
X107059619Y-112365963D01*
X107075710Y-112348210D01*
X107093463Y-112332119D01*
X107112708Y-112317847D01*
X107133258Y-112305529D01*
X107154918Y-112295285D01*
X107177477Y-112287213D01*
X107200719Y-112281391D01*
X107224419Y-112277876D01*
X107248350Y-112276700D01*
X107811650Y-112276700D01*
X107835581Y-112277876D01*
X107835581Y-112277876D01*
G37*
D11*
X107530000Y-112765000D03*
G04 #@! TD*
D10*
G04 #@! TO.C,R3*
G36*
X107308081Y-107395376D02*
X107331781Y-107398891D01*
X107355023Y-107404713D01*
X107377582Y-107412785D01*
X107399242Y-107423029D01*
X107419792Y-107435347D01*
X107439037Y-107449619D01*
X107456790Y-107465710D01*
X107472881Y-107483463D01*
X107487153Y-107502708D01*
X107499471Y-107523258D01*
X107509715Y-107544918D01*
X107517787Y-107567477D01*
X107523609Y-107590719D01*
X107527124Y-107614419D01*
X107528300Y-107638350D01*
X107528300Y-108201650D01*
X107527124Y-108225581D01*
X107523609Y-108249281D01*
X107517787Y-108272523D01*
X107509715Y-108295082D01*
X107499471Y-108316742D01*
X107487153Y-108337292D01*
X107472881Y-108356537D01*
X107456790Y-108374290D01*
X107439037Y-108390381D01*
X107419792Y-108404653D01*
X107399242Y-108416971D01*
X107377582Y-108427215D01*
X107355023Y-108435287D01*
X107331781Y-108441109D01*
X107308081Y-108444624D01*
X107284150Y-108445800D01*
X106795850Y-108445800D01*
X106771919Y-108444624D01*
X106748219Y-108441109D01*
X106724977Y-108435287D01*
X106702418Y-108427215D01*
X106680758Y-108416971D01*
X106660208Y-108404653D01*
X106640963Y-108390381D01*
X106623210Y-108374290D01*
X106607119Y-108356537D01*
X106592847Y-108337292D01*
X106580529Y-108316742D01*
X106570285Y-108295082D01*
X106562213Y-108272523D01*
X106556391Y-108249281D01*
X106552876Y-108225581D01*
X106551700Y-108201650D01*
X106551700Y-107638350D01*
X106552876Y-107614419D01*
X106556391Y-107590719D01*
X106562213Y-107567477D01*
X106570285Y-107544918D01*
X106580529Y-107523258D01*
X106592847Y-107502708D01*
X106607119Y-107483463D01*
X106623210Y-107465710D01*
X106640963Y-107449619D01*
X106660208Y-107435347D01*
X106680758Y-107423029D01*
X106702418Y-107412785D01*
X106724977Y-107404713D01*
X106748219Y-107398891D01*
X106771919Y-107395376D01*
X106795850Y-107394200D01*
X107284150Y-107394200D01*
X107308081Y-107395376D01*
X107308081Y-107395376D01*
G37*
D11*
X107040000Y-107920000D03*
D10*
G36*
X108883081Y-107395376D02*
X108906781Y-107398891D01*
X108930023Y-107404713D01*
X108952582Y-107412785D01*
X108974242Y-107423029D01*
X108994792Y-107435347D01*
X109014037Y-107449619D01*
X109031790Y-107465710D01*
X109047881Y-107483463D01*
X109062153Y-107502708D01*
X109074471Y-107523258D01*
X109084715Y-107544918D01*
X109092787Y-107567477D01*
X109098609Y-107590719D01*
X109102124Y-107614419D01*
X109103300Y-107638350D01*
X109103300Y-108201650D01*
X109102124Y-108225581D01*
X109098609Y-108249281D01*
X109092787Y-108272523D01*
X109084715Y-108295082D01*
X109074471Y-108316742D01*
X109062153Y-108337292D01*
X109047881Y-108356537D01*
X109031790Y-108374290D01*
X109014037Y-108390381D01*
X108994792Y-108404653D01*
X108974242Y-108416971D01*
X108952582Y-108427215D01*
X108930023Y-108435287D01*
X108906781Y-108441109D01*
X108883081Y-108444624D01*
X108859150Y-108445800D01*
X108370850Y-108445800D01*
X108346919Y-108444624D01*
X108323219Y-108441109D01*
X108299977Y-108435287D01*
X108277418Y-108427215D01*
X108255758Y-108416971D01*
X108235208Y-108404653D01*
X108215963Y-108390381D01*
X108198210Y-108374290D01*
X108182119Y-108356537D01*
X108167847Y-108337292D01*
X108155529Y-108316742D01*
X108145285Y-108295082D01*
X108137213Y-108272523D01*
X108131391Y-108249281D01*
X108127876Y-108225581D01*
X108126700Y-108201650D01*
X108126700Y-107638350D01*
X108127876Y-107614419D01*
X108131391Y-107590719D01*
X108137213Y-107567477D01*
X108145285Y-107544918D01*
X108155529Y-107523258D01*
X108167847Y-107502708D01*
X108182119Y-107483463D01*
X108198210Y-107465710D01*
X108215963Y-107449619D01*
X108235208Y-107435347D01*
X108255758Y-107423029D01*
X108277418Y-107412785D01*
X108299977Y-107404713D01*
X108323219Y-107398891D01*
X108346919Y-107395376D01*
X108370850Y-107394200D01*
X108859150Y-107394200D01*
X108883081Y-107395376D01*
X108883081Y-107395376D01*
G37*
D11*
X108615000Y-107920000D03*
G04 #@! TD*
D10*
G04 #@! TO.C,R4*
G36*
X111963081Y-109825376D02*
X111986781Y-109828891D01*
X112010023Y-109834713D01*
X112032582Y-109842785D01*
X112054242Y-109853029D01*
X112074792Y-109865347D01*
X112094037Y-109879619D01*
X112111790Y-109895710D01*
X112127881Y-109913463D01*
X112142153Y-109932708D01*
X112154471Y-109953258D01*
X112164715Y-109974918D01*
X112172787Y-109997477D01*
X112178609Y-110020719D01*
X112182124Y-110044419D01*
X112183300Y-110068350D01*
X112183300Y-110631650D01*
X112182124Y-110655581D01*
X112178609Y-110679281D01*
X112172787Y-110702523D01*
X112164715Y-110725082D01*
X112154471Y-110746742D01*
X112142153Y-110767292D01*
X112127881Y-110786537D01*
X112111790Y-110804290D01*
X112094037Y-110820381D01*
X112074792Y-110834653D01*
X112054242Y-110846971D01*
X112032582Y-110857215D01*
X112010023Y-110865287D01*
X111986781Y-110871109D01*
X111963081Y-110874624D01*
X111939150Y-110875800D01*
X111450850Y-110875800D01*
X111426919Y-110874624D01*
X111403219Y-110871109D01*
X111379977Y-110865287D01*
X111357418Y-110857215D01*
X111335758Y-110846971D01*
X111315208Y-110834653D01*
X111295963Y-110820381D01*
X111278210Y-110804290D01*
X111262119Y-110786537D01*
X111247847Y-110767292D01*
X111235529Y-110746742D01*
X111225285Y-110725082D01*
X111217213Y-110702523D01*
X111211391Y-110679281D01*
X111207876Y-110655581D01*
X111206700Y-110631650D01*
X111206700Y-110068350D01*
X111207876Y-110044419D01*
X111211391Y-110020719D01*
X111217213Y-109997477D01*
X111225285Y-109974918D01*
X111235529Y-109953258D01*
X111247847Y-109932708D01*
X111262119Y-109913463D01*
X111278210Y-109895710D01*
X111295963Y-109879619D01*
X111315208Y-109865347D01*
X111335758Y-109853029D01*
X111357418Y-109842785D01*
X111379977Y-109834713D01*
X111403219Y-109828891D01*
X111426919Y-109825376D01*
X111450850Y-109824200D01*
X111939150Y-109824200D01*
X111963081Y-109825376D01*
X111963081Y-109825376D01*
G37*
D11*
X111695000Y-110350000D03*
D10*
G36*
X110388081Y-109825376D02*
X110411781Y-109828891D01*
X110435023Y-109834713D01*
X110457582Y-109842785D01*
X110479242Y-109853029D01*
X110499792Y-109865347D01*
X110519037Y-109879619D01*
X110536790Y-109895710D01*
X110552881Y-109913463D01*
X110567153Y-109932708D01*
X110579471Y-109953258D01*
X110589715Y-109974918D01*
X110597787Y-109997477D01*
X110603609Y-110020719D01*
X110607124Y-110044419D01*
X110608300Y-110068350D01*
X110608300Y-110631650D01*
X110607124Y-110655581D01*
X110603609Y-110679281D01*
X110597787Y-110702523D01*
X110589715Y-110725082D01*
X110579471Y-110746742D01*
X110567153Y-110767292D01*
X110552881Y-110786537D01*
X110536790Y-110804290D01*
X110519037Y-110820381D01*
X110499792Y-110834653D01*
X110479242Y-110846971D01*
X110457582Y-110857215D01*
X110435023Y-110865287D01*
X110411781Y-110871109D01*
X110388081Y-110874624D01*
X110364150Y-110875800D01*
X109875850Y-110875800D01*
X109851919Y-110874624D01*
X109828219Y-110871109D01*
X109804977Y-110865287D01*
X109782418Y-110857215D01*
X109760758Y-110846971D01*
X109740208Y-110834653D01*
X109720963Y-110820381D01*
X109703210Y-110804290D01*
X109687119Y-110786537D01*
X109672847Y-110767292D01*
X109660529Y-110746742D01*
X109650285Y-110725082D01*
X109642213Y-110702523D01*
X109636391Y-110679281D01*
X109632876Y-110655581D01*
X109631700Y-110631650D01*
X109631700Y-110068350D01*
X109632876Y-110044419D01*
X109636391Y-110020719D01*
X109642213Y-109997477D01*
X109650285Y-109974918D01*
X109660529Y-109953258D01*
X109672847Y-109932708D01*
X109687119Y-109913463D01*
X109703210Y-109895710D01*
X109720963Y-109879619D01*
X109740208Y-109865347D01*
X109760758Y-109853029D01*
X109782418Y-109842785D01*
X109804977Y-109834713D01*
X109828219Y-109828891D01*
X109851919Y-109825376D01*
X109875850Y-109824200D01*
X110364150Y-109824200D01*
X110388081Y-109825376D01*
X110388081Y-109825376D01*
G37*
D11*
X110120000Y-110350000D03*
G04 #@! TD*
D10*
G04 #@! TO.C,R5*
G36*
X108175581Y-103772876D02*
X108199281Y-103776391D01*
X108222523Y-103782213D01*
X108245082Y-103790285D01*
X108266742Y-103800529D01*
X108287292Y-103812847D01*
X108306537Y-103827119D01*
X108324290Y-103843210D01*
X108340381Y-103860963D01*
X108354653Y-103880208D01*
X108366971Y-103900758D01*
X108377215Y-103922418D01*
X108385287Y-103944977D01*
X108391109Y-103968219D01*
X108394624Y-103991919D01*
X108395800Y-104015850D01*
X108395800Y-104504150D01*
X108394624Y-104528081D01*
X108391109Y-104551781D01*
X108385287Y-104575023D01*
X108377215Y-104597582D01*
X108366971Y-104619242D01*
X108354653Y-104639792D01*
X108340381Y-104659037D01*
X108324290Y-104676790D01*
X108306537Y-104692881D01*
X108287292Y-104707153D01*
X108266742Y-104719471D01*
X108245082Y-104729715D01*
X108222523Y-104737787D01*
X108199281Y-104743609D01*
X108175581Y-104747124D01*
X108151650Y-104748300D01*
X107588350Y-104748300D01*
X107564419Y-104747124D01*
X107540719Y-104743609D01*
X107517477Y-104737787D01*
X107494918Y-104729715D01*
X107473258Y-104719471D01*
X107452708Y-104707153D01*
X107433463Y-104692881D01*
X107415710Y-104676790D01*
X107399619Y-104659037D01*
X107385347Y-104639792D01*
X107373029Y-104619242D01*
X107362785Y-104597582D01*
X107354713Y-104575023D01*
X107348891Y-104551781D01*
X107345376Y-104528081D01*
X107344200Y-104504150D01*
X107344200Y-104015850D01*
X107345376Y-103991919D01*
X107348891Y-103968219D01*
X107354713Y-103944977D01*
X107362785Y-103922418D01*
X107373029Y-103900758D01*
X107385347Y-103880208D01*
X107399619Y-103860963D01*
X107415710Y-103843210D01*
X107433463Y-103827119D01*
X107452708Y-103812847D01*
X107473258Y-103800529D01*
X107494918Y-103790285D01*
X107517477Y-103782213D01*
X107540719Y-103776391D01*
X107564419Y-103772876D01*
X107588350Y-103771700D01*
X108151650Y-103771700D01*
X108175581Y-103772876D01*
X108175581Y-103772876D01*
G37*
D11*
X107870000Y-104260000D03*
D10*
G36*
X108175581Y-102197876D02*
X108199281Y-102201391D01*
X108222523Y-102207213D01*
X108245082Y-102215285D01*
X108266742Y-102225529D01*
X108287292Y-102237847D01*
X108306537Y-102252119D01*
X108324290Y-102268210D01*
X108340381Y-102285963D01*
X108354653Y-102305208D01*
X108366971Y-102325758D01*
X108377215Y-102347418D01*
X108385287Y-102369977D01*
X108391109Y-102393219D01*
X108394624Y-102416919D01*
X108395800Y-102440850D01*
X108395800Y-102929150D01*
X108394624Y-102953081D01*
X108391109Y-102976781D01*
X108385287Y-103000023D01*
X108377215Y-103022582D01*
X108366971Y-103044242D01*
X108354653Y-103064792D01*
X108340381Y-103084037D01*
X108324290Y-103101790D01*
X108306537Y-103117881D01*
X108287292Y-103132153D01*
X108266742Y-103144471D01*
X108245082Y-103154715D01*
X108222523Y-103162787D01*
X108199281Y-103168609D01*
X108175581Y-103172124D01*
X108151650Y-103173300D01*
X107588350Y-103173300D01*
X107564419Y-103172124D01*
X107540719Y-103168609D01*
X107517477Y-103162787D01*
X107494918Y-103154715D01*
X107473258Y-103144471D01*
X107452708Y-103132153D01*
X107433463Y-103117881D01*
X107415710Y-103101790D01*
X107399619Y-103084037D01*
X107385347Y-103064792D01*
X107373029Y-103044242D01*
X107362785Y-103022582D01*
X107354713Y-103000023D01*
X107348891Y-102976781D01*
X107345376Y-102953081D01*
X107344200Y-102929150D01*
X107344200Y-102440850D01*
X107345376Y-102416919D01*
X107348891Y-102393219D01*
X107354713Y-102369977D01*
X107362785Y-102347418D01*
X107373029Y-102325758D01*
X107385347Y-102305208D01*
X107399619Y-102285963D01*
X107415710Y-102268210D01*
X107433463Y-102252119D01*
X107452708Y-102237847D01*
X107473258Y-102225529D01*
X107494918Y-102215285D01*
X107517477Y-102207213D01*
X107540719Y-102201391D01*
X107564419Y-102197876D01*
X107588350Y-102196700D01*
X108151650Y-102196700D01*
X108175581Y-102197876D01*
X108175581Y-102197876D01*
G37*
D11*
X107870000Y-102685000D03*
G04 #@! TD*
D10*
G04 #@! TO.C,R6*
G36*
X118923581Y-105176876D02*
X118947281Y-105180391D01*
X118970523Y-105186213D01*
X118993082Y-105194285D01*
X119014742Y-105204529D01*
X119035292Y-105216847D01*
X119054537Y-105231119D01*
X119072290Y-105247210D01*
X119088381Y-105264963D01*
X119102653Y-105284208D01*
X119114971Y-105304758D01*
X119125215Y-105326418D01*
X119133287Y-105348977D01*
X119139109Y-105372219D01*
X119142624Y-105395919D01*
X119143800Y-105419850D01*
X119143800Y-105908150D01*
X119142624Y-105932081D01*
X119139109Y-105955781D01*
X119133287Y-105979023D01*
X119125215Y-106001582D01*
X119114971Y-106023242D01*
X119102653Y-106043792D01*
X119088381Y-106063037D01*
X119072290Y-106080790D01*
X119054537Y-106096881D01*
X119035292Y-106111153D01*
X119014742Y-106123471D01*
X118993082Y-106133715D01*
X118970523Y-106141787D01*
X118947281Y-106147609D01*
X118923581Y-106151124D01*
X118899650Y-106152300D01*
X118336350Y-106152300D01*
X118312419Y-106151124D01*
X118288719Y-106147609D01*
X118265477Y-106141787D01*
X118242918Y-106133715D01*
X118221258Y-106123471D01*
X118200708Y-106111153D01*
X118181463Y-106096881D01*
X118163710Y-106080790D01*
X118147619Y-106063037D01*
X118133347Y-106043792D01*
X118121029Y-106023242D01*
X118110785Y-106001582D01*
X118102713Y-105979023D01*
X118096891Y-105955781D01*
X118093376Y-105932081D01*
X118092200Y-105908150D01*
X118092200Y-105419850D01*
X118093376Y-105395919D01*
X118096891Y-105372219D01*
X118102713Y-105348977D01*
X118110785Y-105326418D01*
X118121029Y-105304758D01*
X118133347Y-105284208D01*
X118147619Y-105264963D01*
X118163710Y-105247210D01*
X118181463Y-105231119D01*
X118200708Y-105216847D01*
X118221258Y-105204529D01*
X118242918Y-105194285D01*
X118265477Y-105186213D01*
X118288719Y-105180391D01*
X118312419Y-105176876D01*
X118336350Y-105175700D01*
X118899650Y-105175700D01*
X118923581Y-105176876D01*
X118923581Y-105176876D01*
G37*
D11*
X118618000Y-105664000D03*
D10*
G36*
X118923581Y-106751876D02*
X118947281Y-106755391D01*
X118970523Y-106761213D01*
X118993082Y-106769285D01*
X119014742Y-106779529D01*
X119035292Y-106791847D01*
X119054537Y-106806119D01*
X119072290Y-106822210D01*
X119088381Y-106839963D01*
X119102653Y-106859208D01*
X119114971Y-106879758D01*
X119125215Y-106901418D01*
X119133287Y-106923977D01*
X119139109Y-106947219D01*
X119142624Y-106970919D01*
X119143800Y-106994850D01*
X119143800Y-107483150D01*
X119142624Y-107507081D01*
X119139109Y-107530781D01*
X119133287Y-107554023D01*
X119125215Y-107576582D01*
X119114971Y-107598242D01*
X119102653Y-107618792D01*
X119088381Y-107638037D01*
X119072290Y-107655790D01*
X119054537Y-107671881D01*
X119035292Y-107686153D01*
X119014742Y-107698471D01*
X118993082Y-107708715D01*
X118970523Y-107716787D01*
X118947281Y-107722609D01*
X118923581Y-107726124D01*
X118899650Y-107727300D01*
X118336350Y-107727300D01*
X118312419Y-107726124D01*
X118288719Y-107722609D01*
X118265477Y-107716787D01*
X118242918Y-107708715D01*
X118221258Y-107698471D01*
X118200708Y-107686153D01*
X118181463Y-107671881D01*
X118163710Y-107655790D01*
X118147619Y-107638037D01*
X118133347Y-107618792D01*
X118121029Y-107598242D01*
X118110785Y-107576582D01*
X118102713Y-107554023D01*
X118096891Y-107530781D01*
X118093376Y-107507081D01*
X118092200Y-107483150D01*
X118092200Y-106994850D01*
X118093376Y-106970919D01*
X118096891Y-106947219D01*
X118102713Y-106923977D01*
X118110785Y-106901418D01*
X118121029Y-106879758D01*
X118133347Y-106859208D01*
X118147619Y-106839963D01*
X118163710Y-106822210D01*
X118181463Y-106806119D01*
X118200708Y-106791847D01*
X118221258Y-106779529D01*
X118242918Y-106769285D01*
X118265477Y-106761213D01*
X118288719Y-106755391D01*
X118312419Y-106751876D01*
X118336350Y-106750700D01*
X118899650Y-106750700D01*
X118923581Y-106751876D01*
X118923581Y-106751876D01*
G37*
D11*
X118618000Y-107239000D03*
G04 #@! TD*
D10*
G04 #@! TO.C,R7*
G36*
X108103081Y-99775376D02*
X108126781Y-99778891D01*
X108150023Y-99784713D01*
X108172582Y-99792785D01*
X108194242Y-99803029D01*
X108214792Y-99815347D01*
X108234037Y-99829619D01*
X108251790Y-99845710D01*
X108267881Y-99863463D01*
X108282153Y-99882708D01*
X108294471Y-99903258D01*
X108304715Y-99924918D01*
X108312787Y-99947477D01*
X108318609Y-99970719D01*
X108322124Y-99994419D01*
X108323300Y-100018350D01*
X108323300Y-100581650D01*
X108322124Y-100605581D01*
X108318609Y-100629281D01*
X108312787Y-100652523D01*
X108304715Y-100675082D01*
X108294471Y-100696742D01*
X108282153Y-100717292D01*
X108267881Y-100736537D01*
X108251790Y-100754290D01*
X108234037Y-100770381D01*
X108214792Y-100784653D01*
X108194242Y-100796971D01*
X108172582Y-100807215D01*
X108150023Y-100815287D01*
X108126781Y-100821109D01*
X108103081Y-100824624D01*
X108079150Y-100825800D01*
X107590850Y-100825800D01*
X107566919Y-100824624D01*
X107543219Y-100821109D01*
X107519977Y-100815287D01*
X107497418Y-100807215D01*
X107475758Y-100796971D01*
X107455208Y-100784653D01*
X107435963Y-100770381D01*
X107418210Y-100754290D01*
X107402119Y-100736537D01*
X107387847Y-100717292D01*
X107375529Y-100696742D01*
X107365285Y-100675082D01*
X107357213Y-100652523D01*
X107351391Y-100629281D01*
X107347876Y-100605581D01*
X107346700Y-100581650D01*
X107346700Y-100018350D01*
X107347876Y-99994419D01*
X107351391Y-99970719D01*
X107357213Y-99947477D01*
X107365285Y-99924918D01*
X107375529Y-99903258D01*
X107387847Y-99882708D01*
X107402119Y-99863463D01*
X107418210Y-99845710D01*
X107435963Y-99829619D01*
X107455208Y-99815347D01*
X107475758Y-99803029D01*
X107497418Y-99792785D01*
X107519977Y-99784713D01*
X107543219Y-99778891D01*
X107566919Y-99775376D01*
X107590850Y-99774200D01*
X108079150Y-99774200D01*
X108103081Y-99775376D01*
X108103081Y-99775376D01*
G37*
D11*
X107835000Y-100300000D03*
D10*
G36*
X109678081Y-99775376D02*
X109701781Y-99778891D01*
X109725023Y-99784713D01*
X109747582Y-99792785D01*
X109769242Y-99803029D01*
X109789792Y-99815347D01*
X109809037Y-99829619D01*
X109826790Y-99845710D01*
X109842881Y-99863463D01*
X109857153Y-99882708D01*
X109869471Y-99903258D01*
X109879715Y-99924918D01*
X109887787Y-99947477D01*
X109893609Y-99970719D01*
X109897124Y-99994419D01*
X109898300Y-100018350D01*
X109898300Y-100581650D01*
X109897124Y-100605581D01*
X109893609Y-100629281D01*
X109887787Y-100652523D01*
X109879715Y-100675082D01*
X109869471Y-100696742D01*
X109857153Y-100717292D01*
X109842881Y-100736537D01*
X109826790Y-100754290D01*
X109809037Y-100770381D01*
X109789792Y-100784653D01*
X109769242Y-100796971D01*
X109747582Y-100807215D01*
X109725023Y-100815287D01*
X109701781Y-100821109D01*
X109678081Y-100824624D01*
X109654150Y-100825800D01*
X109165850Y-100825800D01*
X109141919Y-100824624D01*
X109118219Y-100821109D01*
X109094977Y-100815287D01*
X109072418Y-100807215D01*
X109050758Y-100796971D01*
X109030208Y-100784653D01*
X109010963Y-100770381D01*
X108993210Y-100754290D01*
X108977119Y-100736537D01*
X108962847Y-100717292D01*
X108950529Y-100696742D01*
X108940285Y-100675082D01*
X108932213Y-100652523D01*
X108926391Y-100629281D01*
X108922876Y-100605581D01*
X108921700Y-100581650D01*
X108921700Y-100018350D01*
X108922876Y-99994419D01*
X108926391Y-99970719D01*
X108932213Y-99947477D01*
X108940285Y-99924918D01*
X108950529Y-99903258D01*
X108962847Y-99882708D01*
X108977119Y-99863463D01*
X108993210Y-99845710D01*
X109010963Y-99829619D01*
X109030208Y-99815347D01*
X109050758Y-99803029D01*
X109072418Y-99792785D01*
X109094977Y-99784713D01*
X109118219Y-99778891D01*
X109141919Y-99775376D01*
X109165850Y-99774200D01*
X109654150Y-99774200D01*
X109678081Y-99775376D01*
X109678081Y-99775376D01*
G37*
D11*
X109410000Y-100300000D03*
G04 #@! TD*
D10*
G04 #@! TO.C,R8*
G36*
X113295581Y-98175376D02*
X113319281Y-98178891D01*
X113342523Y-98184713D01*
X113365082Y-98192785D01*
X113386742Y-98203029D01*
X113407292Y-98215347D01*
X113426537Y-98229619D01*
X113444290Y-98245710D01*
X113460381Y-98263463D01*
X113474653Y-98282708D01*
X113486971Y-98303258D01*
X113497215Y-98324918D01*
X113505287Y-98347477D01*
X113511109Y-98370719D01*
X113514624Y-98394419D01*
X113515800Y-98418350D01*
X113515800Y-98981650D01*
X113514624Y-99005581D01*
X113511109Y-99029281D01*
X113505287Y-99052523D01*
X113497215Y-99075082D01*
X113486971Y-99096742D01*
X113474653Y-99117292D01*
X113460381Y-99136537D01*
X113444290Y-99154290D01*
X113426537Y-99170381D01*
X113407292Y-99184653D01*
X113386742Y-99196971D01*
X113365082Y-99207215D01*
X113342523Y-99215287D01*
X113319281Y-99221109D01*
X113295581Y-99224624D01*
X113271650Y-99225800D01*
X112783350Y-99225800D01*
X112759419Y-99224624D01*
X112735719Y-99221109D01*
X112712477Y-99215287D01*
X112689918Y-99207215D01*
X112668258Y-99196971D01*
X112647708Y-99184653D01*
X112628463Y-99170381D01*
X112610710Y-99154290D01*
X112594619Y-99136537D01*
X112580347Y-99117292D01*
X112568029Y-99096742D01*
X112557785Y-99075082D01*
X112549713Y-99052523D01*
X112543891Y-99029281D01*
X112540376Y-99005581D01*
X112539200Y-98981650D01*
X112539200Y-98418350D01*
X112540376Y-98394419D01*
X112543891Y-98370719D01*
X112549713Y-98347477D01*
X112557785Y-98324918D01*
X112568029Y-98303258D01*
X112580347Y-98282708D01*
X112594619Y-98263463D01*
X112610710Y-98245710D01*
X112628463Y-98229619D01*
X112647708Y-98215347D01*
X112668258Y-98203029D01*
X112689918Y-98192785D01*
X112712477Y-98184713D01*
X112735719Y-98178891D01*
X112759419Y-98175376D01*
X112783350Y-98174200D01*
X113271650Y-98174200D01*
X113295581Y-98175376D01*
X113295581Y-98175376D01*
G37*
D11*
X113027500Y-98700000D03*
D10*
G36*
X111720581Y-98175376D02*
X111744281Y-98178891D01*
X111767523Y-98184713D01*
X111790082Y-98192785D01*
X111811742Y-98203029D01*
X111832292Y-98215347D01*
X111851537Y-98229619D01*
X111869290Y-98245710D01*
X111885381Y-98263463D01*
X111899653Y-98282708D01*
X111911971Y-98303258D01*
X111922215Y-98324918D01*
X111930287Y-98347477D01*
X111936109Y-98370719D01*
X111939624Y-98394419D01*
X111940800Y-98418350D01*
X111940800Y-98981650D01*
X111939624Y-99005581D01*
X111936109Y-99029281D01*
X111930287Y-99052523D01*
X111922215Y-99075082D01*
X111911971Y-99096742D01*
X111899653Y-99117292D01*
X111885381Y-99136537D01*
X111869290Y-99154290D01*
X111851537Y-99170381D01*
X111832292Y-99184653D01*
X111811742Y-99196971D01*
X111790082Y-99207215D01*
X111767523Y-99215287D01*
X111744281Y-99221109D01*
X111720581Y-99224624D01*
X111696650Y-99225800D01*
X111208350Y-99225800D01*
X111184419Y-99224624D01*
X111160719Y-99221109D01*
X111137477Y-99215287D01*
X111114918Y-99207215D01*
X111093258Y-99196971D01*
X111072708Y-99184653D01*
X111053463Y-99170381D01*
X111035710Y-99154290D01*
X111019619Y-99136537D01*
X111005347Y-99117292D01*
X110993029Y-99096742D01*
X110982785Y-99075082D01*
X110974713Y-99052523D01*
X110968891Y-99029281D01*
X110965376Y-99005581D01*
X110964200Y-98981650D01*
X110964200Y-98418350D01*
X110965376Y-98394419D01*
X110968891Y-98370719D01*
X110974713Y-98347477D01*
X110982785Y-98324918D01*
X110993029Y-98303258D01*
X111005347Y-98282708D01*
X111019619Y-98263463D01*
X111035710Y-98245710D01*
X111053463Y-98229619D01*
X111072708Y-98215347D01*
X111093258Y-98203029D01*
X111114918Y-98192785D01*
X111137477Y-98184713D01*
X111160719Y-98178891D01*
X111184419Y-98175376D01*
X111208350Y-98174200D01*
X111696650Y-98174200D01*
X111720581Y-98175376D01*
X111720581Y-98175376D01*
G37*
D11*
X111452500Y-98700000D03*
G04 #@! TD*
D10*
G04 #@! TO.C,R9*
G36*
X118828081Y-101075376D02*
X118851781Y-101078891D01*
X118875023Y-101084713D01*
X118897582Y-101092785D01*
X118919242Y-101103029D01*
X118939792Y-101115347D01*
X118959037Y-101129619D01*
X118976790Y-101145710D01*
X118992881Y-101163463D01*
X119007153Y-101182708D01*
X119019471Y-101203258D01*
X119029715Y-101224918D01*
X119037787Y-101247477D01*
X119043609Y-101270719D01*
X119047124Y-101294419D01*
X119048300Y-101318350D01*
X119048300Y-101881650D01*
X119047124Y-101905581D01*
X119043609Y-101929281D01*
X119037787Y-101952523D01*
X119029715Y-101975082D01*
X119019471Y-101996742D01*
X119007153Y-102017292D01*
X118992881Y-102036537D01*
X118976790Y-102054290D01*
X118959037Y-102070381D01*
X118939792Y-102084653D01*
X118919242Y-102096971D01*
X118897582Y-102107215D01*
X118875023Y-102115287D01*
X118851781Y-102121109D01*
X118828081Y-102124624D01*
X118804150Y-102125800D01*
X118315850Y-102125800D01*
X118291919Y-102124624D01*
X118268219Y-102121109D01*
X118244977Y-102115287D01*
X118222418Y-102107215D01*
X118200758Y-102096971D01*
X118180208Y-102084653D01*
X118160963Y-102070381D01*
X118143210Y-102054290D01*
X118127119Y-102036537D01*
X118112847Y-102017292D01*
X118100529Y-101996742D01*
X118090285Y-101975082D01*
X118082213Y-101952523D01*
X118076391Y-101929281D01*
X118072876Y-101905581D01*
X118071700Y-101881650D01*
X118071700Y-101318350D01*
X118072876Y-101294419D01*
X118076391Y-101270719D01*
X118082213Y-101247477D01*
X118090285Y-101224918D01*
X118100529Y-101203258D01*
X118112847Y-101182708D01*
X118127119Y-101163463D01*
X118143210Y-101145710D01*
X118160963Y-101129619D01*
X118180208Y-101115347D01*
X118200758Y-101103029D01*
X118222418Y-101092785D01*
X118244977Y-101084713D01*
X118268219Y-101078891D01*
X118291919Y-101075376D01*
X118315850Y-101074200D01*
X118804150Y-101074200D01*
X118828081Y-101075376D01*
X118828081Y-101075376D01*
G37*
D11*
X118560000Y-101600000D03*
D10*
G36*
X120403081Y-101075376D02*
X120426781Y-101078891D01*
X120450023Y-101084713D01*
X120472582Y-101092785D01*
X120494242Y-101103029D01*
X120514792Y-101115347D01*
X120534037Y-101129619D01*
X120551790Y-101145710D01*
X120567881Y-101163463D01*
X120582153Y-101182708D01*
X120594471Y-101203258D01*
X120604715Y-101224918D01*
X120612787Y-101247477D01*
X120618609Y-101270719D01*
X120622124Y-101294419D01*
X120623300Y-101318350D01*
X120623300Y-101881650D01*
X120622124Y-101905581D01*
X120618609Y-101929281D01*
X120612787Y-101952523D01*
X120604715Y-101975082D01*
X120594471Y-101996742D01*
X120582153Y-102017292D01*
X120567881Y-102036537D01*
X120551790Y-102054290D01*
X120534037Y-102070381D01*
X120514792Y-102084653D01*
X120494242Y-102096971D01*
X120472582Y-102107215D01*
X120450023Y-102115287D01*
X120426781Y-102121109D01*
X120403081Y-102124624D01*
X120379150Y-102125800D01*
X119890850Y-102125800D01*
X119866919Y-102124624D01*
X119843219Y-102121109D01*
X119819977Y-102115287D01*
X119797418Y-102107215D01*
X119775758Y-102096971D01*
X119755208Y-102084653D01*
X119735963Y-102070381D01*
X119718210Y-102054290D01*
X119702119Y-102036537D01*
X119687847Y-102017292D01*
X119675529Y-101996742D01*
X119665285Y-101975082D01*
X119657213Y-101952523D01*
X119651391Y-101929281D01*
X119647876Y-101905581D01*
X119646700Y-101881650D01*
X119646700Y-101318350D01*
X119647876Y-101294419D01*
X119651391Y-101270719D01*
X119657213Y-101247477D01*
X119665285Y-101224918D01*
X119675529Y-101203258D01*
X119687847Y-101182708D01*
X119702119Y-101163463D01*
X119718210Y-101145710D01*
X119735963Y-101129619D01*
X119755208Y-101115347D01*
X119775758Y-101103029D01*
X119797418Y-101092785D01*
X119819977Y-101084713D01*
X119843219Y-101078891D01*
X119866919Y-101075376D01*
X119890850Y-101074200D01*
X120379150Y-101074200D01*
X120403081Y-101075376D01*
X120403081Y-101075376D01*
G37*
D11*
X120135000Y-101600000D03*
G04 #@! TD*
D10*
G04 #@! TO.C,R10*
G36*
X113303081Y-99715376D02*
X113326781Y-99718891D01*
X113350023Y-99724713D01*
X113372582Y-99732785D01*
X113394242Y-99743029D01*
X113414792Y-99755347D01*
X113434037Y-99769619D01*
X113451790Y-99785710D01*
X113467881Y-99803463D01*
X113482153Y-99822708D01*
X113494471Y-99843258D01*
X113504715Y-99864918D01*
X113512787Y-99887477D01*
X113518609Y-99910719D01*
X113522124Y-99934419D01*
X113523300Y-99958350D01*
X113523300Y-100521650D01*
X113522124Y-100545581D01*
X113518609Y-100569281D01*
X113512787Y-100592523D01*
X113504715Y-100615082D01*
X113494471Y-100636742D01*
X113482153Y-100657292D01*
X113467881Y-100676537D01*
X113451790Y-100694290D01*
X113434037Y-100710381D01*
X113414792Y-100724653D01*
X113394242Y-100736971D01*
X113372582Y-100747215D01*
X113350023Y-100755287D01*
X113326781Y-100761109D01*
X113303081Y-100764624D01*
X113279150Y-100765800D01*
X112790850Y-100765800D01*
X112766919Y-100764624D01*
X112743219Y-100761109D01*
X112719977Y-100755287D01*
X112697418Y-100747215D01*
X112675758Y-100736971D01*
X112655208Y-100724653D01*
X112635963Y-100710381D01*
X112618210Y-100694290D01*
X112602119Y-100676537D01*
X112587847Y-100657292D01*
X112575529Y-100636742D01*
X112565285Y-100615082D01*
X112557213Y-100592523D01*
X112551391Y-100569281D01*
X112547876Y-100545581D01*
X112546700Y-100521650D01*
X112546700Y-99958350D01*
X112547876Y-99934419D01*
X112551391Y-99910719D01*
X112557213Y-99887477D01*
X112565285Y-99864918D01*
X112575529Y-99843258D01*
X112587847Y-99822708D01*
X112602119Y-99803463D01*
X112618210Y-99785710D01*
X112635963Y-99769619D01*
X112655208Y-99755347D01*
X112675758Y-99743029D01*
X112697418Y-99732785D01*
X112719977Y-99724713D01*
X112743219Y-99718891D01*
X112766919Y-99715376D01*
X112790850Y-99714200D01*
X113279150Y-99714200D01*
X113303081Y-99715376D01*
X113303081Y-99715376D01*
G37*
D11*
X113035000Y-100240000D03*
D10*
G36*
X111728081Y-99715376D02*
X111751781Y-99718891D01*
X111775023Y-99724713D01*
X111797582Y-99732785D01*
X111819242Y-99743029D01*
X111839792Y-99755347D01*
X111859037Y-99769619D01*
X111876790Y-99785710D01*
X111892881Y-99803463D01*
X111907153Y-99822708D01*
X111919471Y-99843258D01*
X111929715Y-99864918D01*
X111937787Y-99887477D01*
X111943609Y-99910719D01*
X111947124Y-99934419D01*
X111948300Y-99958350D01*
X111948300Y-100521650D01*
X111947124Y-100545581D01*
X111943609Y-100569281D01*
X111937787Y-100592523D01*
X111929715Y-100615082D01*
X111919471Y-100636742D01*
X111907153Y-100657292D01*
X111892881Y-100676537D01*
X111876790Y-100694290D01*
X111859037Y-100710381D01*
X111839792Y-100724653D01*
X111819242Y-100736971D01*
X111797582Y-100747215D01*
X111775023Y-100755287D01*
X111751781Y-100761109D01*
X111728081Y-100764624D01*
X111704150Y-100765800D01*
X111215850Y-100765800D01*
X111191919Y-100764624D01*
X111168219Y-100761109D01*
X111144977Y-100755287D01*
X111122418Y-100747215D01*
X111100758Y-100736971D01*
X111080208Y-100724653D01*
X111060963Y-100710381D01*
X111043210Y-100694290D01*
X111027119Y-100676537D01*
X111012847Y-100657292D01*
X111000529Y-100636742D01*
X110990285Y-100615082D01*
X110982213Y-100592523D01*
X110976391Y-100569281D01*
X110972876Y-100545581D01*
X110971700Y-100521650D01*
X110971700Y-99958350D01*
X110972876Y-99934419D01*
X110976391Y-99910719D01*
X110982213Y-99887477D01*
X110990285Y-99864918D01*
X111000529Y-99843258D01*
X111012847Y-99822708D01*
X111027119Y-99803463D01*
X111043210Y-99785710D01*
X111060963Y-99769619D01*
X111080208Y-99755347D01*
X111100758Y-99743029D01*
X111122418Y-99732785D01*
X111144977Y-99724713D01*
X111168219Y-99718891D01*
X111191919Y-99715376D01*
X111215850Y-99714200D01*
X111704150Y-99714200D01*
X111728081Y-99715376D01*
X111728081Y-99715376D01*
G37*
D11*
X111460000Y-100240000D03*
G04 #@! TD*
D10*
G04 #@! TO.C,R11*
G36*
X119590581Y-98755376D02*
X119614281Y-98758891D01*
X119637523Y-98764713D01*
X119660082Y-98772785D01*
X119681742Y-98783029D01*
X119702292Y-98795347D01*
X119721537Y-98809619D01*
X119739290Y-98825710D01*
X119755381Y-98843463D01*
X119769653Y-98862708D01*
X119781971Y-98883258D01*
X119792215Y-98904918D01*
X119800287Y-98927477D01*
X119806109Y-98950719D01*
X119809624Y-98974419D01*
X119810800Y-98998350D01*
X119810800Y-99561650D01*
X119809624Y-99585581D01*
X119806109Y-99609281D01*
X119800287Y-99632523D01*
X119792215Y-99655082D01*
X119781971Y-99676742D01*
X119769653Y-99697292D01*
X119755381Y-99716537D01*
X119739290Y-99734290D01*
X119721537Y-99750381D01*
X119702292Y-99764653D01*
X119681742Y-99776971D01*
X119660082Y-99787215D01*
X119637523Y-99795287D01*
X119614281Y-99801109D01*
X119590581Y-99804624D01*
X119566650Y-99805800D01*
X119078350Y-99805800D01*
X119054419Y-99804624D01*
X119030719Y-99801109D01*
X119007477Y-99795287D01*
X118984918Y-99787215D01*
X118963258Y-99776971D01*
X118942708Y-99764653D01*
X118923463Y-99750381D01*
X118905710Y-99734290D01*
X118889619Y-99716537D01*
X118875347Y-99697292D01*
X118863029Y-99676742D01*
X118852785Y-99655082D01*
X118844713Y-99632523D01*
X118838891Y-99609281D01*
X118835376Y-99585581D01*
X118834200Y-99561650D01*
X118834200Y-98998350D01*
X118835376Y-98974419D01*
X118838891Y-98950719D01*
X118844713Y-98927477D01*
X118852785Y-98904918D01*
X118863029Y-98883258D01*
X118875347Y-98862708D01*
X118889619Y-98843463D01*
X118905710Y-98825710D01*
X118923463Y-98809619D01*
X118942708Y-98795347D01*
X118963258Y-98783029D01*
X118984918Y-98772785D01*
X119007477Y-98764713D01*
X119030719Y-98758891D01*
X119054419Y-98755376D01*
X119078350Y-98754200D01*
X119566650Y-98754200D01*
X119590581Y-98755376D01*
X119590581Y-98755376D01*
G37*
D11*
X119322500Y-99280000D03*
D10*
G36*
X121165581Y-98755376D02*
X121189281Y-98758891D01*
X121212523Y-98764713D01*
X121235082Y-98772785D01*
X121256742Y-98783029D01*
X121277292Y-98795347D01*
X121296537Y-98809619D01*
X121314290Y-98825710D01*
X121330381Y-98843463D01*
X121344653Y-98862708D01*
X121356971Y-98883258D01*
X121367215Y-98904918D01*
X121375287Y-98927477D01*
X121381109Y-98950719D01*
X121384624Y-98974419D01*
X121385800Y-98998350D01*
X121385800Y-99561650D01*
X121384624Y-99585581D01*
X121381109Y-99609281D01*
X121375287Y-99632523D01*
X121367215Y-99655082D01*
X121356971Y-99676742D01*
X121344653Y-99697292D01*
X121330381Y-99716537D01*
X121314290Y-99734290D01*
X121296537Y-99750381D01*
X121277292Y-99764653D01*
X121256742Y-99776971D01*
X121235082Y-99787215D01*
X121212523Y-99795287D01*
X121189281Y-99801109D01*
X121165581Y-99804624D01*
X121141650Y-99805800D01*
X120653350Y-99805800D01*
X120629419Y-99804624D01*
X120605719Y-99801109D01*
X120582477Y-99795287D01*
X120559918Y-99787215D01*
X120538258Y-99776971D01*
X120517708Y-99764653D01*
X120498463Y-99750381D01*
X120480710Y-99734290D01*
X120464619Y-99716537D01*
X120450347Y-99697292D01*
X120438029Y-99676742D01*
X120427785Y-99655082D01*
X120419713Y-99632523D01*
X120413891Y-99609281D01*
X120410376Y-99585581D01*
X120409200Y-99561650D01*
X120409200Y-98998350D01*
X120410376Y-98974419D01*
X120413891Y-98950719D01*
X120419713Y-98927477D01*
X120427785Y-98904918D01*
X120438029Y-98883258D01*
X120450347Y-98862708D01*
X120464619Y-98843463D01*
X120480710Y-98825710D01*
X120498463Y-98809619D01*
X120517708Y-98795347D01*
X120538258Y-98783029D01*
X120559918Y-98772785D01*
X120582477Y-98764713D01*
X120605719Y-98758891D01*
X120629419Y-98755376D01*
X120653350Y-98754200D01*
X121141650Y-98754200D01*
X121165581Y-98755376D01*
X121165581Y-98755376D01*
G37*
D11*
X120897500Y-99280000D03*
G04 #@! TD*
D10*
G04 #@! TO.C,R13*
G36*
X115958081Y-109245376D02*
X115981781Y-109248891D01*
X116005023Y-109254713D01*
X116027582Y-109262785D01*
X116049242Y-109273029D01*
X116069792Y-109285347D01*
X116089037Y-109299619D01*
X116106790Y-109315710D01*
X116122881Y-109333463D01*
X116137153Y-109352708D01*
X116149471Y-109373258D01*
X116159715Y-109394918D01*
X116167787Y-109417477D01*
X116173609Y-109440719D01*
X116177124Y-109464419D01*
X116178300Y-109488350D01*
X116178300Y-110051650D01*
X116177124Y-110075581D01*
X116173609Y-110099281D01*
X116167787Y-110122523D01*
X116159715Y-110145082D01*
X116149471Y-110166742D01*
X116137153Y-110187292D01*
X116122881Y-110206537D01*
X116106790Y-110224290D01*
X116089037Y-110240381D01*
X116069792Y-110254653D01*
X116049242Y-110266971D01*
X116027582Y-110277215D01*
X116005023Y-110285287D01*
X115981781Y-110291109D01*
X115958081Y-110294624D01*
X115934150Y-110295800D01*
X115445850Y-110295800D01*
X115421919Y-110294624D01*
X115398219Y-110291109D01*
X115374977Y-110285287D01*
X115352418Y-110277215D01*
X115330758Y-110266971D01*
X115310208Y-110254653D01*
X115290963Y-110240381D01*
X115273210Y-110224290D01*
X115257119Y-110206537D01*
X115242847Y-110187292D01*
X115230529Y-110166742D01*
X115220285Y-110145082D01*
X115212213Y-110122523D01*
X115206391Y-110099281D01*
X115202876Y-110075581D01*
X115201700Y-110051650D01*
X115201700Y-109488350D01*
X115202876Y-109464419D01*
X115206391Y-109440719D01*
X115212213Y-109417477D01*
X115220285Y-109394918D01*
X115230529Y-109373258D01*
X115242847Y-109352708D01*
X115257119Y-109333463D01*
X115273210Y-109315710D01*
X115290963Y-109299619D01*
X115310208Y-109285347D01*
X115330758Y-109273029D01*
X115352418Y-109262785D01*
X115374977Y-109254713D01*
X115398219Y-109248891D01*
X115421919Y-109245376D01*
X115445850Y-109244200D01*
X115934150Y-109244200D01*
X115958081Y-109245376D01*
X115958081Y-109245376D01*
G37*
D11*
X115690000Y-109770000D03*
D10*
G36*
X117533081Y-109245376D02*
X117556781Y-109248891D01*
X117580023Y-109254713D01*
X117602582Y-109262785D01*
X117624242Y-109273029D01*
X117644792Y-109285347D01*
X117664037Y-109299619D01*
X117681790Y-109315710D01*
X117697881Y-109333463D01*
X117712153Y-109352708D01*
X117724471Y-109373258D01*
X117734715Y-109394918D01*
X117742787Y-109417477D01*
X117748609Y-109440719D01*
X117752124Y-109464419D01*
X117753300Y-109488350D01*
X117753300Y-110051650D01*
X117752124Y-110075581D01*
X117748609Y-110099281D01*
X117742787Y-110122523D01*
X117734715Y-110145082D01*
X117724471Y-110166742D01*
X117712153Y-110187292D01*
X117697881Y-110206537D01*
X117681790Y-110224290D01*
X117664037Y-110240381D01*
X117644792Y-110254653D01*
X117624242Y-110266971D01*
X117602582Y-110277215D01*
X117580023Y-110285287D01*
X117556781Y-110291109D01*
X117533081Y-110294624D01*
X117509150Y-110295800D01*
X117020850Y-110295800D01*
X116996919Y-110294624D01*
X116973219Y-110291109D01*
X116949977Y-110285287D01*
X116927418Y-110277215D01*
X116905758Y-110266971D01*
X116885208Y-110254653D01*
X116865963Y-110240381D01*
X116848210Y-110224290D01*
X116832119Y-110206537D01*
X116817847Y-110187292D01*
X116805529Y-110166742D01*
X116795285Y-110145082D01*
X116787213Y-110122523D01*
X116781391Y-110099281D01*
X116777876Y-110075581D01*
X116776700Y-110051650D01*
X116776700Y-109488350D01*
X116777876Y-109464419D01*
X116781391Y-109440719D01*
X116787213Y-109417477D01*
X116795285Y-109394918D01*
X116805529Y-109373258D01*
X116817847Y-109352708D01*
X116832119Y-109333463D01*
X116848210Y-109315710D01*
X116865963Y-109299619D01*
X116885208Y-109285347D01*
X116905758Y-109273029D01*
X116927418Y-109262785D01*
X116949977Y-109254713D01*
X116973219Y-109248891D01*
X116996919Y-109245376D01*
X117020850Y-109244200D01*
X117509150Y-109244200D01*
X117533081Y-109245376D01*
X117533081Y-109245376D01*
G37*
D11*
X117265000Y-109770000D03*
G04 #@! TD*
D15*
G04 #@! TO.C,SW1*
X115310000Y-117690000D03*
X112810000Y-117690000D03*
X110310000Y-117690000D03*
G04 #@! TD*
D16*
G04 #@! TO.C,U2*
X110840000Y-102330000D03*
X110840000Y-103600000D03*
X110840000Y-104870000D03*
X110840000Y-106140000D03*
X115850000Y-106140000D03*
X115850000Y-104870000D03*
X115850000Y-103600000D03*
X115850000Y-102330000D03*
G04 #@! TD*
D17*
G04 #@! TO.C,U3*
X125651000Y-103226000D03*
X128016000Y-103226000D03*
X130716000Y-103226000D03*
X124026000Y-98351000D03*
X133026000Y-98351000D03*
X125651000Y-93726000D03*
X128016000Y-93726000D03*
X130716000Y-93726000D03*
G04 #@! TD*
D18*
G04 #@! TO.C,J1*
X107740000Y-96180000D03*
X110280000Y-96200000D03*
X112820000Y-96160000D03*
X115360000Y-96160000D03*
X117900000Y-96150000D03*
G04 #@! TD*
M02*
