G04 #@! TF.GenerationSoftware,KiCad,Pcbnew,(5.0.2)-1*
G04 #@! TF.CreationDate,2019-05-31T16:15:03-05:00*
G04 #@! TF.ProjectId,ppg,7070672e-6b69-4636-9164-5f7063625858,V01*
G04 #@! TF.SameCoordinates,Original*
G04 #@! TF.FileFunction,Soldermask,Bot*
G04 #@! TF.FilePolarity,Negative*
%FSLAX46Y46*%
G04 Gerber Fmt 4.6, Leading zero omitted, Abs format (unit mm)*
G04 Created by KiCad (PCBNEW (5.0.2)-1) date 5/31/2019 4:15:03 PM*
%MOMM*%
%LPD*%
G01*
G04 APERTURE LIST*
%ADD10C,0.100000*%
%ADD11C,0.976600*%
%ADD12O,2.601600X0.901600*%
%ADD13O,0.901600X2.601600*%
%ADD14R,1.901600X1.101600*%
%ADD15C,1.851600*%
G04 APERTURE END LIST*
D10*
G04 #@! TO.C,C1*
G36*
X125235581Y-117717876D02*
X125259281Y-117721391D01*
X125282523Y-117727213D01*
X125305082Y-117735285D01*
X125326742Y-117745529D01*
X125347292Y-117757847D01*
X125366537Y-117772119D01*
X125384290Y-117788210D01*
X125400381Y-117805963D01*
X125414653Y-117825208D01*
X125426971Y-117845758D01*
X125437215Y-117867418D01*
X125445287Y-117889977D01*
X125451109Y-117913219D01*
X125454624Y-117936919D01*
X125455800Y-117960850D01*
X125455800Y-118449150D01*
X125454624Y-118473081D01*
X125451109Y-118496781D01*
X125445287Y-118520023D01*
X125437215Y-118542582D01*
X125426971Y-118564242D01*
X125414653Y-118584792D01*
X125400381Y-118604037D01*
X125384290Y-118621790D01*
X125366537Y-118637881D01*
X125347292Y-118652153D01*
X125326742Y-118664471D01*
X125305082Y-118674715D01*
X125282523Y-118682787D01*
X125259281Y-118688609D01*
X125235581Y-118692124D01*
X125211650Y-118693300D01*
X124648350Y-118693300D01*
X124624419Y-118692124D01*
X124600719Y-118688609D01*
X124577477Y-118682787D01*
X124554918Y-118674715D01*
X124533258Y-118664471D01*
X124512708Y-118652153D01*
X124493463Y-118637881D01*
X124475710Y-118621790D01*
X124459619Y-118604037D01*
X124445347Y-118584792D01*
X124433029Y-118564242D01*
X124422785Y-118542582D01*
X124414713Y-118520023D01*
X124408891Y-118496781D01*
X124405376Y-118473081D01*
X124404200Y-118449150D01*
X124404200Y-117960850D01*
X124405376Y-117936919D01*
X124408891Y-117913219D01*
X124414713Y-117889977D01*
X124422785Y-117867418D01*
X124433029Y-117845758D01*
X124445347Y-117825208D01*
X124459619Y-117805963D01*
X124475710Y-117788210D01*
X124493463Y-117772119D01*
X124512708Y-117757847D01*
X124533258Y-117745529D01*
X124554918Y-117735285D01*
X124577477Y-117727213D01*
X124600719Y-117721391D01*
X124624419Y-117717876D01*
X124648350Y-117716700D01*
X125211650Y-117716700D01*
X125235581Y-117717876D01*
X125235581Y-117717876D01*
G37*
D11*
X124930000Y-118205000D03*
D10*
G36*
X125235581Y-116142876D02*
X125259281Y-116146391D01*
X125282523Y-116152213D01*
X125305082Y-116160285D01*
X125326742Y-116170529D01*
X125347292Y-116182847D01*
X125366537Y-116197119D01*
X125384290Y-116213210D01*
X125400381Y-116230963D01*
X125414653Y-116250208D01*
X125426971Y-116270758D01*
X125437215Y-116292418D01*
X125445287Y-116314977D01*
X125451109Y-116338219D01*
X125454624Y-116361919D01*
X125455800Y-116385850D01*
X125455800Y-116874150D01*
X125454624Y-116898081D01*
X125451109Y-116921781D01*
X125445287Y-116945023D01*
X125437215Y-116967582D01*
X125426971Y-116989242D01*
X125414653Y-117009792D01*
X125400381Y-117029037D01*
X125384290Y-117046790D01*
X125366537Y-117062881D01*
X125347292Y-117077153D01*
X125326742Y-117089471D01*
X125305082Y-117099715D01*
X125282523Y-117107787D01*
X125259281Y-117113609D01*
X125235581Y-117117124D01*
X125211650Y-117118300D01*
X124648350Y-117118300D01*
X124624419Y-117117124D01*
X124600719Y-117113609D01*
X124577477Y-117107787D01*
X124554918Y-117099715D01*
X124533258Y-117089471D01*
X124512708Y-117077153D01*
X124493463Y-117062881D01*
X124475710Y-117046790D01*
X124459619Y-117029037D01*
X124445347Y-117009792D01*
X124433029Y-116989242D01*
X124422785Y-116967582D01*
X124414713Y-116945023D01*
X124408891Y-116921781D01*
X124405376Y-116898081D01*
X124404200Y-116874150D01*
X124404200Y-116385850D01*
X124405376Y-116361919D01*
X124408891Y-116338219D01*
X124414713Y-116314977D01*
X124422785Y-116292418D01*
X124433029Y-116270758D01*
X124445347Y-116250208D01*
X124459619Y-116230963D01*
X124475710Y-116213210D01*
X124493463Y-116197119D01*
X124512708Y-116182847D01*
X124533258Y-116170529D01*
X124554918Y-116160285D01*
X124577477Y-116152213D01*
X124600719Y-116146391D01*
X124624419Y-116142876D01*
X124648350Y-116141700D01*
X125211650Y-116141700D01*
X125235581Y-116142876D01*
X125235581Y-116142876D01*
G37*
D11*
X124930000Y-116630000D03*
G04 #@! TD*
D10*
G04 #@! TO.C,C4*
G36*
X134935581Y-95947876D02*
X134959281Y-95951391D01*
X134982523Y-95957213D01*
X135005082Y-95965285D01*
X135026742Y-95975529D01*
X135047292Y-95987847D01*
X135066537Y-96002119D01*
X135084290Y-96018210D01*
X135100381Y-96035963D01*
X135114653Y-96055208D01*
X135126971Y-96075758D01*
X135137215Y-96097418D01*
X135145287Y-96119977D01*
X135151109Y-96143219D01*
X135154624Y-96166919D01*
X135155800Y-96190850D01*
X135155800Y-96679150D01*
X135154624Y-96703081D01*
X135151109Y-96726781D01*
X135145287Y-96750023D01*
X135137215Y-96772582D01*
X135126971Y-96794242D01*
X135114653Y-96814792D01*
X135100381Y-96834037D01*
X135084290Y-96851790D01*
X135066537Y-96867881D01*
X135047292Y-96882153D01*
X135026742Y-96894471D01*
X135005082Y-96904715D01*
X134982523Y-96912787D01*
X134959281Y-96918609D01*
X134935581Y-96922124D01*
X134911650Y-96923300D01*
X134348350Y-96923300D01*
X134324419Y-96922124D01*
X134300719Y-96918609D01*
X134277477Y-96912787D01*
X134254918Y-96904715D01*
X134233258Y-96894471D01*
X134212708Y-96882153D01*
X134193463Y-96867881D01*
X134175710Y-96851790D01*
X134159619Y-96834037D01*
X134145347Y-96814792D01*
X134133029Y-96794242D01*
X134122785Y-96772582D01*
X134114713Y-96750023D01*
X134108891Y-96726781D01*
X134105376Y-96703081D01*
X134104200Y-96679150D01*
X134104200Y-96190850D01*
X134105376Y-96166919D01*
X134108891Y-96143219D01*
X134114713Y-96119977D01*
X134122785Y-96097418D01*
X134133029Y-96075758D01*
X134145347Y-96055208D01*
X134159619Y-96035963D01*
X134175710Y-96018210D01*
X134193463Y-96002119D01*
X134212708Y-95987847D01*
X134233258Y-95975529D01*
X134254918Y-95965285D01*
X134277477Y-95957213D01*
X134300719Y-95951391D01*
X134324419Y-95947876D01*
X134348350Y-95946700D01*
X134911650Y-95946700D01*
X134935581Y-95947876D01*
X134935581Y-95947876D01*
G37*
D11*
X134630000Y-96435000D03*
D10*
G36*
X134935581Y-97522876D02*
X134959281Y-97526391D01*
X134982523Y-97532213D01*
X135005082Y-97540285D01*
X135026742Y-97550529D01*
X135047292Y-97562847D01*
X135066537Y-97577119D01*
X135084290Y-97593210D01*
X135100381Y-97610963D01*
X135114653Y-97630208D01*
X135126971Y-97650758D01*
X135137215Y-97672418D01*
X135145287Y-97694977D01*
X135151109Y-97718219D01*
X135154624Y-97741919D01*
X135155800Y-97765850D01*
X135155800Y-98254150D01*
X135154624Y-98278081D01*
X135151109Y-98301781D01*
X135145287Y-98325023D01*
X135137215Y-98347582D01*
X135126971Y-98369242D01*
X135114653Y-98389792D01*
X135100381Y-98409037D01*
X135084290Y-98426790D01*
X135066537Y-98442881D01*
X135047292Y-98457153D01*
X135026742Y-98469471D01*
X135005082Y-98479715D01*
X134982523Y-98487787D01*
X134959281Y-98493609D01*
X134935581Y-98497124D01*
X134911650Y-98498300D01*
X134348350Y-98498300D01*
X134324419Y-98497124D01*
X134300719Y-98493609D01*
X134277477Y-98487787D01*
X134254918Y-98479715D01*
X134233258Y-98469471D01*
X134212708Y-98457153D01*
X134193463Y-98442881D01*
X134175710Y-98426790D01*
X134159619Y-98409037D01*
X134145347Y-98389792D01*
X134133029Y-98369242D01*
X134122785Y-98347582D01*
X134114713Y-98325023D01*
X134108891Y-98301781D01*
X134105376Y-98278081D01*
X134104200Y-98254150D01*
X134104200Y-97765850D01*
X134105376Y-97741919D01*
X134108891Y-97718219D01*
X134114713Y-97694977D01*
X134122785Y-97672418D01*
X134133029Y-97650758D01*
X134145347Y-97630208D01*
X134159619Y-97610963D01*
X134175710Y-97593210D01*
X134193463Y-97577119D01*
X134212708Y-97562847D01*
X134233258Y-97550529D01*
X134254918Y-97540285D01*
X134277477Y-97532213D01*
X134300719Y-97526391D01*
X134324419Y-97522876D01*
X134348350Y-97521700D01*
X134911650Y-97521700D01*
X134935581Y-97522876D01*
X134935581Y-97522876D01*
G37*
D11*
X134630000Y-98010000D03*
G04 #@! TD*
D10*
G04 #@! TO.C,C5*
G36*
X134383081Y-102885376D02*
X134406781Y-102888891D01*
X134430023Y-102894713D01*
X134452582Y-102902785D01*
X134474242Y-102913029D01*
X134494792Y-102925347D01*
X134514037Y-102939619D01*
X134531790Y-102955710D01*
X134547881Y-102973463D01*
X134562153Y-102992708D01*
X134574471Y-103013258D01*
X134584715Y-103034918D01*
X134592787Y-103057477D01*
X134598609Y-103080719D01*
X134602124Y-103104419D01*
X134603300Y-103128350D01*
X134603300Y-103691650D01*
X134602124Y-103715581D01*
X134598609Y-103739281D01*
X134592787Y-103762523D01*
X134584715Y-103785082D01*
X134574471Y-103806742D01*
X134562153Y-103827292D01*
X134547881Y-103846537D01*
X134531790Y-103864290D01*
X134514037Y-103880381D01*
X134494792Y-103894653D01*
X134474242Y-103906971D01*
X134452582Y-103917215D01*
X134430023Y-103925287D01*
X134406781Y-103931109D01*
X134383081Y-103934624D01*
X134359150Y-103935800D01*
X133870850Y-103935800D01*
X133846919Y-103934624D01*
X133823219Y-103931109D01*
X133799977Y-103925287D01*
X133777418Y-103917215D01*
X133755758Y-103906971D01*
X133735208Y-103894653D01*
X133715963Y-103880381D01*
X133698210Y-103864290D01*
X133682119Y-103846537D01*
X133667847Y-103827292D01*
X133655529Y-103806742D01*
X133645285Y-103785082D01*
X133637213Y-103762523D01*
X133631391Y-103739281D01*
X133627876Y-103715581D01*
X133626700Y-103691650D01*
X133626700Y-103128350D01*
X133627876Y-103104419D01*
X133631391Y-103080719D01*
X133637213Y-103057477D01*
X133645285Y-103034918D01*
X133655529Y-103013258D01*
X133667847Y-102992708D01*
X133682119Y-102973463D01*
X133698210Y-102955710D01*
X133715963Y-102939619D01*
X133735208Y-102925347D01*
X133755758Y-102913029D01*
X133777418Y-102902785D01*
X133799977Y-102894713D01*
X133823219Y-102888891D01*
X133846919Y-102885376D01*
X133870850Y-102884200D01*
X134359150Y-102884200D01*
X134383081Y-102885376D01*
X134383081Y-102885376D01*
G37*
D11*
X134115000Y-103410000D03*
D10*
G36*
X132808081Y-102885376D02*
X132831781Y-102888891D01*
X132855023Y-102894713D01*
X132877582Y-102902785D01*
X132899242Y-102913029D01*
X132919792Y-102925347D01*
X132939037Y-102939619D01*
X132956790Y-102955710D01*
X132972881Y-102973463D01*
X132987153Y-102992708D01*
X132999471Y-103013258D01*
X133009715Y-103034918D01*
X133017787Y-103057477D01*
X133023609Y-103080719D01*
X133027124Y-103104419D01*
X133028300Y-103128350D01*
X133028300Y-103691650D01*
X133027124Y-103715581D01*
X133023609Y-103739281D01*
X133017787Y-103762523D01*
X133009715Y-103785082D01*
X132999471Y-103806742D01*
X132987153Y-103827292D01*
X132972881Y-103846537D01*
X132956790Y-103864290D01*
X132939037Y-103880381D01*
X132919792Y-103894653D01*
X132899242Y-103906971D01*
X132877582Y-103917215D01*
X132855023Y-103925287D01*
X132831781Y-103931109D01*
X132808081Y-103934624D01*
X132784150Y-103935800D01*
X132295850Y-103935800D01*
X132271919Y-103934624D01*
X132248219Y-103931109D01*
X132224977Y-103925287D01*
X132202418Y-103917215D01*
X132180758Y-103906971D01*
X132160208Y-103894653D01*
X132140963Y-103880381D01*
X132123210Y-103864290D01*
X132107119Y-103846537D01*
X132092847Y-103827292D01*
X132080529Y-103806742D01*
X132070285Y-103785082D01*
X132062213Y-103762523D01*
X132056391Y-103739281D01*
X132052876Y-103715581D01*
X132051700Y-103691650D01*
X132051700Y-103128350D01*
X132052876Y-103104419D01*
X132056391Y-103080719D01*
X132062213Y-103057477D01*
X132070285Y-103034918D01*
X132080529Y-103013258D01*
X132092847Y-102992708D01*
X132107119Y-102973463D01*
X132123210Y-102955710D01*
X132140963Y-102939619D01*
X132160208Y-102925347D01*
X132180758Y-102913029D01*
X132202418Y-102902785D01*
X132224977Y-102894713D01*
X132248219Y-102888891D01*
X132271919Y-102885376D01*
X132295850Y-102884200D01*
X132784150Y-102884200D01*
X132808081Y-102885376D01*
X132808081Y-102885376D01*
G37*
D11*
X132540000Y-103410000D03*
G04 #@! TD*
D10*
G04 #@! TO.C,R1*
G36*
X123590581Y-106855376D02*
X123614281Y-106858891D01*
X123637523Y-106864713D01*
X123660082Y-106872785D01*
X123681742Y-106883029D01*
X123702292Y-106895347D01*
X123721537Y-106909619D01*
X123739290Y-106925710D01*
X123755381Y-106943463D01*
X123769653Y-106962708D01*
X123781971Y-106983258D01*
X123792215Y-107004918D01*
X123800287Y-107027477D01*
X123806109Y-107050719D01*
X123809624Y-107074419D01*
X123810800Y-107098350D01*
X123810800Y-107661650D01*
X123809624Y-107685581D01*
X123806109Y-107709281D01*
X123800287Y-107732523D01*
X123792215Y-107755082D01*
X123781971Y-107776742D01*
X123769653Y-107797292D01*
X123755381Y-107816537D01*
X123739290Y-107834290D01*
X123721537Y-107850381D01*
X123702292Y-107864653D01*
X123681742Y-107876971D01*
X123660082Y-107887215D01*
X123637523Y-107895287D01*
X123614281Y-107901109D01*
X123590581Y-107904624D01*
X123566650Y-107905800D01*
X123078350Y-107905800D01*
X123054419Y-107904624D01*
X123030719Y-107901109D01*
X123007477Y-107895287D01*
X122984918Y-107887215D01*
X122963258Y-107876971D01*
X122942708Y-107864653D01*
X122923463Y-107850381D01*
X122905710Y-107834290D01*
X122889619Y-107816537D01*
X122875347Y-107797292D01*
X122863029Y-107776742D01*
X122852785Y-107755082D01*
X122844713Y-107732523D01*
X122838891Y-107709281D01*
X122835376Y-107685581D01*
X122834200Y-107661650D01*
X122834200Y-107098350D01*
X122835376Y-107074419D01*
X122838891Y-107050719D01*
X122844713Y-107027477D01*
X122852785Y-107004918D01*
X122863029Y-106983258D01*
X122875347Y-106962708D01*
X122889619Y-106943463D01*
X122905710Y-106925710D01*
X122923463Y-106909619D01*
X122942708Y-106895347D01*
X122963258Y-106883029D01*
X122984918Y-106872785D01*
X123007477Y-106864713D01*
X123030719Y-106858891D01*
X123054419Y-106855376D01*
X123078350Y-106854200D01*
X123566650Y-106854200D01*
X123590581Y-106855376D01*
X123590581Y-106855376D01*
G37*
D11*
X123322500Y-107380000D03*
D10*
G36*
X125165581Y-106855376D02*
X125189281Y-106858891D01*
X125212523Y-106864713D01*
X125235082Y-106872785D01*
X125256742Y-106883029D01*
X125277292Y-106895347D01*
X125296537Y-106909619D01*
X125314290Y-106925710D01*
X125330381Y-106943463D01*
X125344653Y-106962708D01*
X125356971Y-106983258D01*
X125367215Y-107004918D01*
X125375287Y-107027477D01*
X125381109Y-107050719D01*
X125384624Y-107074419D01*
X125385800Y-107098350D01*
X125385800Y-107661650D01*
X125384624Y-107685581D01*
X125381109Y-107709281D01*
X125375287Y-107732523D01*
X125367215Y-107755082D01*
X125356971Y-107776742D01*
X125344653Y-107797292D01*
X125330381Y-107816537D01*
X125314290Y-107834290D01*
X125296537Y-107850381D01*
X125277292Y-107864653D01*
X125256742Y-107876971D01*
X125235082Y-107887215D01*
X125212523Y-107895287D01*
X125189281Y-107901109D01*
X125165581Y-107904624D01*
X125141650Y-107905800D01*
X124653350Y-107905800D01*
X124629419Y-107904624D01*
X124605719Y-107901109D01*
X124582477Y-107895287D01*
X124559918Y-107887215D01*
X124538258Y-107876971D01*
X124517708Y-107864653D01*
X124498463Y-107850381D01*
X124480710Y-107834290D01*
X124464619Y-107816537D01*
X124450347Y-107797292D01*
X124438029Y-107776742D01*
X124427785Y-107755082D01*
X124419713Y-107732523D01*
X124413891Y-107709281D01*
X124410376Y-107685581D01*
X124409200Y-107661650D01*
X124409200Y-107098350D01*
X124410376Y-107074419D01*
X124413891Y-107050719D01*
X124419713Y-107027477D01*
X124427785Y-107004918D01*
X124438029Y-106983258D01*
X124450347Y-106962708D01*
X124464619Y-106943463D01*
X124480710Y-106925710D01*
X124498463Y-106909619D01*
X124517708Y-106895347D01*
X124538258Y-106883029D01*
X124559918Y-106872785D01*
X124582477Y-106864713D01*
X124605719Y-106858891D01*
X124629419Y-106855376D01*
X124653350Y-106854200D01*
X125141650Y-106854200D01*
X125165581Y-106855376D01*
X125165581Y-106855376D01*
G37*
D11*
X124897500Y-107380000D03*
G04 #@! TD*
D12*
G04 #@! TO.C,U1*
X120560000Y-102070000D03*
X120560000Y-103270000D03*
X120560000Y-104470000D03*
X120560000Y-105670000D03*
X120560000Y-106870000D03*
X120560000Y-108070000D03*
X120560000Y-109270000D03*
X120560000Y-110470000D03*
X120560000Y-111670000D03*
X120560000Y-112870000D03*
X120560000Y-114070000D03*
X120560000Y-115270000D03*
D13*
X118260000Y-117770000D03*
X117260000Y-117770000D03*
X115960000Y-117770000D03*
X114760000Y-117770000D03*
X113560000Y-117770000D03*
X112360000Y-117770000D03*
X111060000Y-117770000D03*
X110060000Y-117770000D03*
D12*
X107760000Y-115270000D03*
X107760000Y-114070000D03*
X107760000Y-112870000D03*
X107760000Y-111670000D03*
X107760000Y-110470000D03*
X107760000Y-109270000D03*
X107760000Y-108070000D03*
X107760000Y-106870000D03*
X107760000Y-105670000D03*
X107760000Y-104470000D03*
X107760000Y-103270000D03*
X107760000Y-102070000D03*
D14*
X119760000Y-117370000D03*
X108560000Y-117370000D03*
X108560000Y-98370000D03*
X119760000Y-98370000D03*
G04 #@! TD*
D15*
G04 #@! TO.C,U3*
X125651000Y-103226000D03*
X128016000Y-103226000D03*
X130716000Y-103226000D03*
X124026000Y-98351000D03*
X133026000Y-98351000D03*
X125651000Y-93726000D03*
X128016000Y-93726000D03*
X130716000Y-93726000D03*
G04 #@! TD*
M02*
