G04 #@! TF.GenerationSoftware,KiCad,Pcbnew,(5.0.2)-1*
G04 #@! TF.CreationDate,2019-05-31T16:15:03-05:00*
G04 #@! TF.ProjectId,ppg,7070672e-6b69-4636-9164-5f7063625858,V01*
G04 #@! TF.SameCoordinates,Original*
G04 #@! TF.FileFunction,Copper,L1,Top*
G04 #@! TF.FilePolarity,Positive*
%FSLAX46Y46*%
G04 Gerber Fmt 4.6, Leading zero omitted, Abs format (unit mm)*
G04 Created by KiCad (PCBNEW (5.0.2)-1) date 5/31/2019 4:15:03 PM*
%MOMM*%
%LPD*%
G01*
G04 APERTURE LIST*
G04 #@! TA.AperFunction,Conductor*
%ADD10C,0.100000*%
G04 #@! TD*
G04 #@! TA.AperFunction,SMDPad,CuDef*
%ADD11C,0.875000*%
G04 #@! TD*
G04 #@! TA.AperFunction,SMDPad,CuDef*
%ADD12R,3.500000X3.300000*%
G04 #@! TD*
G04 #@! TA.AperFunction,SMDPad,CuDef*
%ADD13R,4.000000X4.000000*%
G04 #@! TD*
G04 #@! TA.AperFunction,SMDPad,CuDef*
%ADD14C,0.950000*%
G04 #@! TD*
G04 #@! TA.AperFunction,SMDPad,CuDef*
%ADD15R,1.250000X2.750000*%
G04 #@! TD*
G04 #@! TA.AperFunction,SMDPad,CuDef*
%ADD16R,1.200000X0.500000*%
G04 #@! TD*
G04 #@! TA.AperFunction,ComponentPad*
%ADD17C,1.750000*%
G04 #@! TD*
G04 #@! TA.AperFunction,SMDPad,CuDef*
%ADD18R,1.000000X1.750000*%
G04 #@! TD*
G04 #@! TA.AperFunction,ViaPad*
%ADD19C,0.685800*%
G04 #@! TD*
G04 #@! TA.AperFunction,Conductor*
%ADD20C,0.152400*%
G04 #@! TD*
G04 APERTURE END LIST*
D10*
G04 #@! TO.N,/BT_status*
G04 #@! TO.C,R12*
G36*
X116826191Y-107476053D02*
X116847426Y-107479203D01*
X116868250Y-107484419D01*
X116888462Y-107491651D01*
X116907868Y-107500830D01*
X116926281Y-107511866D01*
X116943524Y-107524654D01*
X116959430Y-107539070D01*
X116973846Y-107554976D01*
X116986634Y-107572219D01*
X116997670Y-107590632D01*
X117006849Y-107610038D01*
X117014081Y-107630250D01*
X117019297Y-107651074D01*
X117022447Y-107672309D01*
X117023500Y-107693750D01*
X117023500Y-108206250D01*
X117022447Y-108227691D01*
X117019297Y-108248926D01*
X117014081Y-108269750D01*
X117006849Y-108289962D01*
X116997670Y-108309368D01*
X116986634Y-108327781D01*
X116973846Y-108345024D01*
X116959430Y-108360930D01*
X116943524Y-108375346D01*
X116926281Y-108388134D01*
X116907868Y-108399170D01*
X116888462Y-108408349D01*
X116868250Y-108415581D01*
X116847426Y-108420797D01*
X116826191Y-108423947D01*
X116804750Y-108425000D01*
X116367250Y-108425000D01*
X116345809Y-108423947D01*
X116324574Y-108420797D01*
X116303750Y-108415581D01*
X116283538Y-108408349D01*
X116264132Y-108399170D01*
X116245719Y-108388134D01*
X116228476Y-108375346D01*
X116212570Y-108360930D01*
X116198154Y-108345024D01*
X116185366Y-108327781D01*
X116174330Y-108309368D01*
X116165151Y-108289962D01*
X116157919Y-108269750D01*
X116152703Y-108248926D01*
X116149553Y-108227691D01*
X116148500Y-108206250D01*
X116148500Y-107693750D01*
X116149553Y-107672309D01*
X116152703Y-107651074D01*
X116157919Y-107630250D01*
X116165151Y-107610038D01*
X116174330Y-107590632D01*
X116185366Y-107572219D01*
X116198154Y-107554976D01*
X116212570Y-107539070D01*
X116228476Y-107524654D01*
X116245719Y-107511866D01*
X116264132Y-107500830D01*
X116283538Y-107491651D01*
X116303750Y-107484419D01*
X116324574Y-107479203D01*
X116345809Y-107476053D01*
X116367250Y-107475000D01*
X116804750Y-107475000D01*
X116826191Y-107476053D01*
X116826191Y-107476053D01*
G37*
D11*
G04 #@! TD*
G04 #@! TO.P,R12,1*
G04 #@! TO.N,/BT_status*
X116586000Y-107950000D03*
D10*
G04 #@! TO.N,Net-(R12-Pad2)*
G04 #@! TO.C,R12*
G36*
X115251191Y-107476053D02*
X115272426Y-107479203D01*
X115293250Y-107484419D01*
X115313462Y-107491651D01*
X115332868Y-107500830D01*
X115351281Y-107511866D01*
X115368524Y-107524654D01*
X115384430Y-107539070D01*
X115398846Y-107554976D01*
X115411634Y-107572219D01*
X115422670Y-107590632D01*
X115431849Y-107610038D01*
X115439081Y-107630250D01*
X115444297Y-107651074D01*
X115447447Y-107672309D01*
X115448500Y-107693750D01*
X115448500Y-108206250D01*
X115447447Y-108227691D01*
X115444297Y-108248926D01*
X115439081Y-108269750D01*
X115431849Y-108289962D01*
X115422670Y-108309368D01*
X115411634Y-108327781D01*
X115398846Y-108345024D01*
X115384430Y-108360930D01*
X115368524Y-108375346D01*
X115351281Y-108388134D01*
X115332868Y-108399170D01*
X115313462Y-108408349D01*
X115293250Y-108415581D01*
X115272426Y-108420797D01*
X115251191Y-108423947D01*
X115229750Y-108425000D01*
X114792250Y-108425000D01*
X114770809Y-108423947D01*
X114749574Y-108420797D01*
X114728750Y-108415581D01*
X114708538Y-108408349D01*
X114689132Y-108399170D01*
X114670719Y-108388134D01*
X114653476Y-108375346D01*
X114637570Y-108360930D01*
X114623154Y-108345024D01*
X114610366Y-108327781D01*
X114599330Y-108309368D01*
X114590151Y-108289962D01*
X114582919Y-108269750D01*
X114577703Y-108248926D01*
X114574553Y-108227691D01*
X114573500Y-108206250D01*
X114573500Y-107693750D01*
X114574553Y-107672309D01*
X114577703Y-107651074D01*
X114582919Y-107630250D01*
X114590151Y-107610038D01*
X114599330Y-107590632D01*
X114610366Y-107572219D01*
X114623154Y-107554976D01*
X114637570Y-107539070D01*
X114653476Y-107524654D01*
X114670719Y-107511866D01*
X114689132Y-107500830D01*
X114708538Y-107491651D01*
X114728750Y-107484419D01*
X114749574Y-107479203D01*
X114770809Y-107476053D01*
X114792250Y-107475000D01*
X115229750Y-107475000D01*
X115251191Y-107476053D01*
X115251191Y-107476053D01*
G37*
D11*
G04 #@! TD*
G04 #@! TO.P,R12,2*
G04 #@! TO.N,Net-(R12-Pad2)*
X115011000Y-107950000D03*
D12*
G04 #@! TO.P,BT1,1*
G04 #@! TO.N,Net-(BT1-Pad1)*
X117110000Y-112890000D03*
X132910000Y-112890000D03*
D13*
G04 #@! TO.P,BT1,2*
G04 #@! TO.N,GND*
X125010000Y-112890000D03*
G04 #@! TD*
D10*
G04 #@! TO.N,/VDD*
G04 #@! TO.C,C2*
G36*
X108045191Y-98146053D02*
X108066426Y-98149203D01*
X108087250Y-98154419D01*
X108107462Y-98161651D01*
X108126868Y-98170830D01*
X108145281Y-98181866D01*
X108162524Y-98194654D01*
X108178430Y-98209070D01*
X108192846Y-98224976D01*
X108205634Y-98242219D01*
X108216670Y-98260632D01*
X108225849Y-98280038D01*
X108233081Y-98300250D01*
X108238297Y-98321074D01*
X108241447Y-98342309D01*
X108242500Y-98363750D01*
X108242500Y-98876250D01*
X108241447Y-98897691D01*
X108238297Y-98918926D01*
X108233081Y-98939750D01*
X108225849Y-98959962D01*
X108216670Y-98979368D01*
X108205634Y-98997781D01*
X108192846Y-99015024D01*
X108178430Y-99030930D01*
X108162524Y-99045346D01*
X108145281Y-99058134D01*
X108126868Y-99069170D01*
X108107462Y-99078349D01*
X108087250Y-99085581D01*
X108066426Y-99090797D01*
X108045191Y-99093947D01*
X108023750Y-99095000D01*
X107586250Y-99095000D01*
X107564809Y-99093947D01*
X107543574Y-99090797D01*
X107522750Y-99085581D01*
X107502538Y-99078349D01*
X107483132Y-99069170D01*
X107464719Y-99058134D01*
X107447476Y-99045346D01*
X107431570Y-99030930D01*
X107417154Y-99015024D01*
X107404366Y-98997781D01*
X107393330Y-98979368D01*
X107384151Y-98959962D01*
X107376919Y-98939750D01*
X107371703Y-98918926D01*
X107368553Y-98897691D01*
X107367500Y-98876250D01*
X107367500Y-98363750D01*
X107368553Y-98342309D01*
X107371703Y-98321074D01*
X107376919Y-98300250D01*
X107384151Y-98280038D01*
X107393330Y-98260632D01*
X107404366Y-98242219D01*
X107417154Y-98224976D01*
X107431570Y-98209070D01*
X107447476Y-98194654D01*
X107464719Y-98181866D01*
X107483132Y-98170830D01*
X107502538Y-98161651D01*
X107522750Y-98154419D01*
X107543574Y-98149203D01*
X107564809Y-98146053D01*
X107586250Y-98145000D01*
X108023750Y-98145000D01*
X108045191Y-98146053D01*
X108045191Y-98146053D01*
G37*
D11*
G04 #@! TD*
G04 #@! TO.P,C2,1*
G04 #@! TO.N,/VDD*
X107805000Y-98620000D03*
D10*
G04 #@! TO.N,GND*
G04 #@! TO.C,C2*
G36*
X109620191Y-98146053D02*
X109641426Y-98149203D01*
X109662250Y-98154419D01*
X109682462Y-98161651D01*
X109701868Y-98170830D01*
X109720281Y-98181866D01*
X109737524Y-98194654D01*
X109753430Y-98209070D01*
X109767846Y-98224976D01*
X109780634Y-98242219D01*
X109791670Y-98260632D01*
X109800849Y-98280038D01*
X109808081Y-98300250D01*
X109813297Y-98321074D01*
X109816447Y-98342309D01*
X109817500Y-98363750D01*
X109817500Y-98876250D01*
X109816447Y-98897691D01*
X109813297Y-98918926D01*
X109808081Y-98939750D01*
X109800849Y-98959962D01*
X109791670Y-98979368D01*
X109780634Y-98997781D01*
X109767846Y-99015024D01*
X109753430Y-99030930D01*
X109737524Y-99045346D01*
X109720281Y-99058134D01*
X109701868Y-99069170D01*
X109682462Y-99078349D01*
X109662250Y-99085581D01*
X109641426Y-99090797D01*
X109620191Y-99093947D01*
X109598750Y-99095000D01*
X109161250Y-99095000D01*
X109139809Y-99093947D01*
X109118574Y-99090797D01*
X109097750Y-99085581D01*
X109077538Y-99078349D01*
X109058132Y-99069170D01*
X109039719Y-99058134D01*
X109022476Y-99045346D01*
X109006570Y-99030930D01*
X108992154Y-99015024D01*
X108979366Y-98997781D01*
X108968330Y-98979368D01*
X108959151Y-98959962D01*
X108951919Y-98939750D01*
X108946703Y-98918926D01*
X108943553Y-98897691D01*
X108942500Y-98876250D01*
X108942500Y-98363750D01*
X108943553Y-98342309D01*
X108946703Y-98321074D01*
X108951919Y-98300250D01*
X108959151Y-98280038D01*
X108968330Y-98260632D01*
X108979366Y-98242219D01*
X108992154Y-98224976D01*
X109006570Y-98209070D01*
X109022476Y-98194654D01*
X109039719Y-98181866D01*
X109058132Y-98170830D01*
X109077538Y-98161651D01*
X109097750Y-98154419D01*
X109118574Y-98149203D01*
X109139809Y-98146053D01*
X109161250Y-98145000D01*
X109598750Y-98145000D01*
X109620191Y-98146053D01*
X109620191Y-98146053D01*
G37*
D11*
G04 #@! TD*
G04 #@! TO.P,C2,2*
G04 #@! TO.N,GND*
X109380000Y-98620000D03*
D10*
G04 #@! TO.N,/VDD*
G04 #@! TO.C,C3*
G36*
X116005191Y-98066053D02*
X116026426Y-98069203D01*
X116047250Y-98074419D01*
X116067462Y-98081651D01*
X116086868Y-98090830D01*
X116105281Y-98101866D01*
X116122524Y-98114654D01*
X116138430Y-98129070D01*
X116152846Y-98144976D01*
X116165634Y-98162219D01*
X116176670Y-98180632D01*
X116185849Y-98200038D01*
X116193081Y-98220250D01*
X116198297Y-98241074D01*
X116201447Y-98262309D01*
X116202500Y-98283750D01*
X116202500Y-98796250D01*
X116201447Y-98817691D01*
X116198297Y-98838926D01*
X116193081Y-98859750D01*
X116185849Y-98879962D01*
X116176670Y-98899368D01*
X116165634Y-98917781D01*
X116152846Y-98935024D01*
X116138430Y-98950930D01*
X116122524Y-98965346D01*
X116105281Y-98978134D01*
X116086868Y-98989170D01*
X116067462Y-98998349D01*
X116047250Y-99005581D01*
X116026426Y-99010797D01*
X116005191Y-99013947D01*
X115983750Y-99015000D01*
X115546250Y-99015000D01*
X115524809Y-99013947D01*
X115503574Y-99010797D01*
X115482750Y-99005581D01*
X115462538Y-98998349D01*
X115443132Y-98989170D01*
X115424719Y-98978134D01*
X115407476Y-98965346D01*
X115391570Y-98950930D01*
X115377154Y-98935024D01*
X115364366Y-98917781D01*
X115353330Y-98899368D01*
X115344151Y-98879962D01*
X115336919Y-98859750D01*
X115331703Y-98838926D01*
X115328553Y-98817691D01*
X115327500Y-98796250D01*
X115327500Y-98283750D01*
X115328553Y-98262309D01*
X115331703Y-98241074D01*
X115336919Y-98220250D01*
X115344151Y-98200038D01*
X115353330Y-98180632D01*
X115364366Y-98162219D01*
X115377154Y-98144976D01*
X115391570Y-98129070D01*
X115407476Y-98114654D01*
X115424719Y-98101866D01*
X115443132Y-98090830D01*
X115462538Y-98081651D01*
X115482750Y-98074419D01*
X115503574Y-98069203D01*
X115524809Y-98066053D01*
X115546250Y-98065000D01*
X115983750Y-98065000D01*
X116005191Y-98066053D01*
X116005191Y-98066053D01*
G37*
D11*
G04 #@! TD*
G04 #@! TO.P,C3,2*
G04 #@! TO.N,/VDD*
X115765000Y-98540000D03*
D10*
G04 #@! TO.N,GND*
G04 #@! TO.C,C3*
G36*
X117580191Y-98066053D02*
X117601426Y-98069203D01*
X117622250Y-98074419D01*
X117642462Y-98081651D01*
X117661868Y-98090830D01*
X117680281Y-98101866D01*
X117697524Y-98114654D01*
X117713430Y-98129070D01*
X117727846Y-98144976D01*
X117740634Y-98162219D01*
X117751670Y-98180632D01*
X117760849Y-98200038D01*
X117768081Y-98220250D01*
X117773297Y-98241074D01*
X117776447Y-98262309D01*
X117777500Y-98283750D01*
X117777500Y-98796250D01*
X117776447Y-98817691D01*
X117773297Y-98838926D01*
X117768081Y-98859750D01*
X117760849Y-98879962D01*
X117751670Y-98899368D01*
X117740634Y-98917781D01*
X117727846Y-98935024D01*
X117713430Y-98950930D01*
X117697524Y-98965346D01*
X117680281Y-98978134D01*
X117661868Y-98989170D01*
X117642462Y-98998349D01*
X117622250Y-99005581D01*
X117601426Y-99010797D01*
X117580191Y-99013947D01*
X117558750Y-99015000D01*
X117121250Y-99015000D01*
X117099809Y-99013947D01*
X117078574Y-99010797D01*
X117057750Y-99005581D01*
X117037538Y-98998349D01*
X117018132Y-98989170D01*
X116999719Y-98978134D01*
X116982476Y-98965346D01*
X116966570Y-98950930D01*
X116952154Y-98935024D01*
X116939366Y-98917781D01*
X116928330Y-98899368D01*
X116919151Y-98879962D01*
X116911919Y-98859750D01*
X116906703Y-98838926D01*
X116903553Y-98817691D01*
X116902500Y-98796250D01*
X116902500Y-98283750D01*
X116903553Y-98262309D01*
X116906703Y-98241074D01*
X116911919Y-98220250D01*
X116919151Y-98200038D01*
X116928330Y-98180632D01*
X116939366Y-98162219D01*
X116952154Y-98144976D01*
X116966570Y-98129070D01*
X116982476Y-98114654D01*
X116999719Y-98101866D01*
X117018132Y-98090830D01*
X117037538Y-98081651D01*
X117057750Y-98074419D01*
X117078574Y-98069203D01*
X117099809Y-98066053D01*
X117121250Y-98065000D01*
X117558750Y-98065000D01*
X117580191Y-98066053D01*
X117580191Y-98066053D01*
G37*
D11*
G04 #@! TD*
G04 #@! TO.P,C3,1*
G04 #@! TO.N,GND*
X117340000Y-98540000D03*
D10*
G04 #@! TO.N,GND*
G04 #@! TO.C,D1*
G36*
X107780779Y-108896144D02*
X107803834Y-108899563D01*
X107826443Y-108905227D01*
X107848387Y-108913079D01*
X107869457Y-108923044D01*
X107889448Y-108935026D01*
X107908168Y-108948910D01*
X107925438Y-108964562D01*
X107941090Y-108981832D01*
X107954974Y-109000552D01*
X107966956Y-109020543D01*
X107976921Y-109041613D01*
X107984773Y-109063557D01*
X107990437Y-109086166D01*
X107993856Y-109109221D01*
X107995000Y-109132500D01*
X107995000Y-109707500D01*
X107993856Y-109730779D01*
X107990437Y-109753834D01*
X107984773Y-109776443D01*
X107976921Y-109798387D01*
X107966956Y-109819457D01*
X107954974Y-109839448D01*
X107941090Y-109858168D01*
X107925438Y-109875438D01*
X107908168Y-109891090D01*
X107889448Y-109904974D01*
X107869457Y-109916956D01*
X107848387Y-109926921D01*
X107826443Y-109934773D01*
X107803834Y-109940437D01*
X107780779Y-109943856D01*
X107757500Y-109945000D01*
X107282500Y-109945000D01*
X107259221Y-109943856D01*
X107236166Y-109940437D01*
X107213557Y-109934773D01*
X107191613Y-109926921D01*
X107170543Y-109916956D01*
X107150552Y-109904974D01*
X107131832Y-109891090D01*
X107114562Y-109875438D01*
X107098910Y-109858168D01*
X107085026Y-109839448D01*
X107073044Y-109819457D01*
X107063079Y-109798387D01*
X107055227Y-109776443D01*
X107049563Y-109753834D01*
X107046144Y-109730779D01*
X107045000Y-109707500D01*
X107045000Y-109132500D01*
X107046144Y-109109221D01*
X107049563Y-109086166D01*
X107055227Y-109063557D01*
X107063079Y-109041613D01*
X107073044Y-109020543D01*
X107085026Y-109000552D01*
X107098910Y-108981832D01*
X107114562Y-108964562D01*
X107131832Y-108948910D01*
X107150552Y-108935026D01*
X107170543Y-108923044D01*
X107191613Y-108913079D01*
X107213557Y-108905227D01*
X107236166Y-108899563D01*
X107259221Y-108896144D01*
X107282500Y-108895000D01*
X107757500Y-108895000D01*
X107780779Y-108896144D01*
X107780779Y-108896144D01*
G37*
D14*
G04 #@! TD*
G04 #@! TO.P,D1,1*
G04 #@! TO.N,GND*
X107520000Y-109420000D03*
D10*
G04 #@! TO.N,Net-(D1-Pad2)*
G04 #@! TO.C,D1*
G36*
X107780779Y-110646144D02*
X107803834Y-110649563D01*
X107826443Y-110655227D01*
X107848387Y-110663079D01*
X107869457Y-110673044D01*
X107889448Y-110685026D01*
X107908168Y-110698910D01*
X107925438Y-110714562D01*
X107941090Y-110731832D01*
X107954974Y-110750552D01*
X107966956Y-110770543D01*
X107976921Y-110791613D01*
X107984773Y-110813557D01*
X107990437Y-110836166D01*
X107993856Y-110859221D01*
X107995000Y-110882500D01*
X107995000Y-111457500D01*
X107993856Y-111480779D01*
X107990437Y-111503834D01*
X107984773Y-111526443D01*
X107976921Y-111548387D01*
X107966956Y-111569457D01*
X107954974Y-111589448D01*
X107941090Y-111608168D01*
X107925438Y-111625438D01*
X107908168Y-111641090D01*
X107889448Y-111654974D01*
X107869457Y-111666956D01*
X107848387Y-111676921D01*
X107826443Y-111684773D01*
X107803834Y-111690437D01*
X107780779Y-111693856D01*
X107757500Y-111695000D01*
X107282500Y-111695000D01*
X107259221Y-111693856D01*
X107236166Y-111690437D01*
X107213557Y-111684773D01*
X107191613Y-111676921D01*
X107170543Y-111666956D01*
X107150552Y-111654974D01*
X107131832Y-111641090D01*
X107114562Y-111625438D01*
X107098910Y-111608168D01*
X107085026Y-111589448D01*
X107073044Y-111569457D01*
X107063079Y-111548387D01*
X107055227Y-111526443D01*
X107049563Y-111503834D01*
X107046144Y-111480779D01*
X107045000Y-111457500D01*
X107045000Y-110882500D01*
X107046144Y-110859221D01*
X107049563Y-110836166D01*
X107055227Y-110813557D01*
X107063079Y-110791613D01*
X107073044Y-110770543D01*
X107085026Y-110750552D01*
X107098910Y-110731832D01*
X107114562Y-110714562D01*
X107131832Y-110698910D01*
X107150552Y-110685026D01*
X107170543Y-110673044D01*
X107191613Y-110663079D01*
X107213557Y-110655227D01*
X107236166Y-110649563D01*
X107259221Y-110646144D01*
X107282500Y-110645000D01*
X107757500Y-110645000D01*
X107780779Y-110646144D01*
X107780779Y-110646144D01*
G37*
D14*
G04 #@! TD*
G04 #@! TO.P,D1,2*
G04 #@! TO.N,Net-(D1-Pad2)*
X107520000Y-111170000D03*
D10*
G04 #@! TO.N,GND*
G04 #@! TO.C,D2*
G36*
X121652191Y-103412053D02*
X121673426Y-103415203D01*
X121694250Y-103420419D01*
X121714462Y-103427651D01*
X121733868Y-103436830D01*
X121752281Y-103447866D01*
X121769524Y-103460654D01*
X121785430Y-103475070D01*
X121799846Y-103490976D01*
X121812634Y-103508219D01*
X121823670Y-103526632D01*
X121832849Y-103546038D01*
X121840081Y-103566250D01*
X121845297Y-103587074D01*
X121848447Y-103608309D01*
X121849500Y-103629750D01*
X121849500Y-104142250D01*
X121848447Y-104163691D01*
X121845297Y-104184926D01*
X121840081Y-104205750D01*
X121832849Y-104225962D01*
X121823670Y-104245368D01*
X121812634Y-104263781D01*
X121799846Y-104281024D01*
X121785430Y-104296930D01*
X121769524Y-104311346D01*
X121752281Y-104324134D01*
X121733868Y-104335170D01*
X121714462Y-104344349D01*
X121694250Y-104351581D01*
X121673426Y-104356797D01*
X121652191Y-104359947D01*
X121630750Y-104361000D01*
X121193250Y-104361000D01*
X121171809Y-104359947D01*
X121150574Y-104356797D01*
X121129750Y-104351581D01*
X121109538Y-104344349D01*
X121090132Y-104335170D01*
X121071719Y-104324134D01*
X121054476Y-104311346D01*
X121038570Y-104296930D01*
X121024154Y-104281024D01*
X121011366Y-104263781D01*
X121000330Y-104245368D01*
X120991151Y-104225962D01*
X120983919Y-104205750D01*
X120978703Y-104184926D01*
X120975553Y-104163691D01*
X120974500Y-104142250D01*
X120974500Y-103629750D01*
X120975553Y-103608309D01*
X120978703Y-103587074D01*
X120983919Y-103566250D01*
X120991151Y-103546038D01*
X121000330Y-103526632D01*
X121011366Y-103508219D01*
X121024154Y-103490976D01*
X121038570Y-103475070D01*
X121054476Y-103460654D01*
X121071719Y-103447866D01*
X121090132Y-103436830D01*
X121109538Y-103427651D01*
X121129750Y-103420419D01*
X121150574Y-103415203D01*
X121171809Y-103412053D01*
X121193250Y-103411000D01*
X121630750Y-103411000D01*
X121652191Y-103412053D01*
X121652191Y-103412053D01*
G37*
D11*
G04 #@! TD*
G04 #@! TO.P,D2,1*
G04 #@! TO.N,GND*
X121412000Y-103886000D03*
D10*
G04 #@! TO.N,Net-(D2-Pad2)*
G04 #@! TO.C,D2*
G36*
X120077191Y-103412053D02*
X120098426Y-103415203D01*
X120119250Y-103420419D01*
X120139462Y-103427651D01*
X120158868Y-103436830D01*
X120177281Y-103447866D01*
X120194524Y-103460654D01*
X120210430Y-103475070D01*
X120224846Y-103490976D01*
X120237634Y-103508219D01*
X120248670Y-103526632D01*
X120257849Y-103546038D01*
X120265081Y-103566250D01*
X120270297Y-103587074D01*
X120273447Y-103608309D01*
X120274500Y-103629750D01*
X120274500Y-104142250D01*
X120273447Y-104163691D01*
X120270297Y-104184926D01*
X120265081Y-104205750D01*
X120257849Y-104225962D01*
X120248670Y-104245368D01*
X120237634Y-104263781D01*
X120224846Y-104281024D01*
X120210430Y-104296930D01*
X120194524Y-104311346D01*
X120177281Y-104324134D01*
X120158868Y-104335170D01*
X120139462Y-104344349D01*
X120119250Y-104351581D01*
X120098426Y-104356797D01*
X120077191Y-104359947D01*
X120055750Y-104361000D01*
X119618250Y-104361000D01*
X119596809Y-104359947D01*
X119575574Y-104356797D01*
X119554750Y-104351581D01*
X119534538Y-104344349D01*
X119515132Y-104335170D01*
X119496719Y-104324134D01*
X119479476Y-104311346D01*
X119463570Y-104296930D01*
X119449154Y-104281024D01*
X119436366Y-104263781D01*
X119425330Y-104245368D01*
X119416151Y-104225962D01*
X119408919Y-104205750D01*
X119403703Y-104184926D01*
X119400553Y-104163691D01*
X119399500Y-104142250D01*
X119399500Y-103629750D01*
X119400553Y-103608309D01*
X119403703Y-103587074D01*
X119408919Y-103566250D01*
X119416151Y-103546038D01*
X119425330Y-103526632D01*
X119436366Y-103508219D01*
X119449154Y-103490976D01*
X119463570Y-103475070D01*
X119479476Y-103460654D01*
X119496719Y-103447866D01*
X119515132Y-103436830D01*
X119534538Y-103427651D01*
X119554750Y-103420419D01*
X119575574Y-103415203D01*
X119596809Y-103412053D01*
X119618250Y-103411000D01*
X120055750Y-103411000D01*
X120077191Y-103412053D01*
X120077191Y-103412053D01*
G37*
D11*
G04 #@! TD*
G04 #@! TO.P,D2,2*
G04 #@! TO.N,Net-(D2-Pad2)*
X119837000Y-103886000D03*
D10*
G04 #@! TO.N,/VDD*
G04 #@! TO.C,R2*
G36*
X107807691Y-113903553D02*
X107828926Y-113906703D01*
X107849750Y-113911919D01*
X107869962Y-113919151D01*
X107889368Y-113928330D01*
X107907781Y-113939366D01*
X107925024Y-113952154D01*
X107940930Y-113966570D01*
X107955346Y-113982476D01*
X107968134Y-113999719D01*
X107979170Y-114018132D01*
X107988349Y-114037538D01*
X107995581Y-114057750D01*
X108000797Y-114078574D01*
X108003947Y-114099809D01*
X108005000Y-114121250D01*
X108005000Y-114558750D01*
X108003947Y-114580191D01*
X108000797Y-114601426D01*
X107995581Y-114622250D01*
X107988349Y-114642462D01*
X107979170Y-114661868D01*
X107968134Y-114680281D01*
X107955346Y-114697524D01*
X107940930Y-114713430D01*
X107925024Y-114727846D01*
X107907781Y-114740634D01*
X107889368Y-114751670D01*
X107869962Y-114760849D01*
X107849750Y-114768081D01*
X107828926Y-114773297D01*
X107807691Y-114776447D01*
X107786250Y-114777500D01*
X107273750Y-114777500D01*
X107252309Y-114776447D01*
X107231074Y-114773297D01*
X107210250Y-114768081D01*
X107190038Y-114760849D01*
X107170632Y-114751670D01*
X107152219Y-114740634D01*
X107134976Y-114727846D01*
X107119070Y-114713430D01*
X107104654Y-114697524D01*
X107091866Y-114680281D01*
X107080830Y-114661868D01*
X107071651Y-114642462D01*
X107064419Y-114622250D01*
X107059203Y-114601426D01*
X107056053Y-114580191D01*
X107055000Y-114558750D01*
X107055000Y-114121250D01*
X107056053Y-114099809D01*
X107059203Y-114078574D01*
X107064419Y-114057750D01*
X107071651Y-114037538D01*
X107080830Y-114018132D01*
X107091866Y-113999719D01*
X107104654Y-113982476D01*
X107119070Y-113966570D01*
X107134976Y-113952154D01*
X107152219Y-113939366D01*
X107170632Y-113928330D01*
X107190038Y-113919151D01*
X107210250Y-113911919D01*
X107231074Y-113906703D01*
X107252309Y-113903553D01*
X107273750Y-113902500D01*
X107786250Y-113902500D01*
X107807691Y-113903553D01*
X107807691Y-113903553D01*
G37*
D11*
G04 #@! TD*
G04 #@! TO.P,R2,2*
G04 #@! TO.N,/VDD*
X107530000Y-114340000D03*
D10*
G04 #@! TO.N,Net-(D1-Pad2)*
G04 #@! TO.C,R2*
G36*
X107807691Y-112328553D02*
X107828926Y-112331703D01*
X107849750Y-112336919D01*
X107869962Y-112344151D01*
X107889368Y-112353330D01*
X107907781Y-112364366D01*
X107925024Y-112377154D01*
X107940930Y-112391570D01*
X107955346Y-112407476D01*
X107968134Y-112424719D01*
X107979170Y-112443132D01*
X107988349Y-112462538D01*
X107995581Y-112482750D01*
X108000797Y-112503574D01*
X108003947Y-112524809D01*
X108005000Y-112546250D01*
X108005000Y-112983750D01*
X108003947Y-113005191D01*
X108000797Y-113026426D01*
X107995581Y-113047250D01*
X107988349Y-113067462D01*
X107979170Y-113086868D01*
X107968134Y-113105281D01*
X107955346Y-113122524D01*
X107940930Y-113138430D01*
X107925024Y-113152846D01*
X107907781Y-113165634D01*
X107889368Y-113176670D01*
X107869962Y-113185849D01*
X107849750Y-113193081D01*
X107828926Y-113198297D01*
X107807691Y-113201447D01*
X107786250Y-113202500D01*
X107273750Y-113202500D01*
X107252309Y-113201447D01*
X107231074Y-113198297D01*
X107210250Y-113193081D01*
X107190038Y-113185849D01*
X107170632Y-113176670D01*
X107152219Y-113165634D01*
X107134976Y-113152846D01*
X107119070Y-113138430D01*
X107104654Y-113122524D01*
X107091866Y-113105281D01*
X107080830Y-113086868D01*
X107071651Y-113067462D01*
X107064419Y-113047250D01*
X107059203Y-113026426D01*
X107056053Y-113005191D01*
X107055000Y-112983750D01*
X107055000Y-112546250D01*
X107056053Y-112524809D01*
X107059203Y-112503574D01*
X107064419Y-112482750D01*
X107071651Y-112462538D01*
X107080830Y-112443132D01*
X107091866Y-112424719D01*
X107104654Y-112407476D01*
X107119070Y-112391570D01*
X107134976Y-112377154D01*
X107152219Y-112364366D01*
X107170632Y-112353330D01*
X107190038Y-112344151D01*
X107210250Y-112336919D01*
X107231074Y-112331703D01*
X107252309Y-112328553D01*
X107273750Y-112327500D01*
X107786250Y-112327500D01*
X107807691Y-112328553D01*
X107807691Y-112328553D01*
G37*
D11*
G04 #@! TD*
G04 #@! TO.P,R2,1*
G04 #@! TO.N,Net-(D1-Pad2)*
X107530000Y-112765000D03*
D10*
G04 #@! TO.N,Net-(R3-Pad1)*
G04 #@! TO.C,R3*
G36*
X107280191Y-107446053D02*
X107301426Y-107449203D01*
X107322250Y-107454419D01*
X107342462Y-107461651D01*
X107361868Y-107470830D01*
X107380281Y-107481866D01*
X107397524Y-107494654D01*
X107413430Y-107509070D01*
X107427846Y-107524976D01*
X107440634Y-107542219D01*
X107451670Y-107560632D01*
X107460849Y-107580038D01*
X107468081Y-107600250D01*
X107473297Y-107621074D01*
X107476447Y-107642309D01*
X107477500Y-107663750D01*
X107477500Y-108176250D01*
X107476447Y-108197691D01*
X107473297Y-108218926D01*
X107468081Y-108239750D01*
X107460849Y-108259962D01*
X107451670Y-108279368D01*
X107440634Y-108297781D01*
X107427846Y-108315024D01*
X107413430Y-108330930D01*
X107397524Y-108345346D01*
X107380281Y-108358134D01*
X107361868Y-108369170D01*
X107342462Y-108378349D01*
X107322250Y-108385581D01*
X107301426Y-108390797D01*
X107280191Y-108393947D01*
X107258750Y-108395000D01*
X106821250Y-108395000D01*
X106799809Y-108393947D01*
X106778574Y-108390797D01*
X106757750Y-108385581D01*
X106737538Y-108378349D01*
X106718132Y-108369170D01*
X106699719Y-108358134D01*
X106682476Y-108345346D01*
X106666570Y-108330930D01*
X106652154Y-108315024D01*
X106639366Y-108297781D01*
X106628330Y-108279368D01*
X106619151Y-108259962D01*
X106611919Y-108239750D01*
X106606703Y-108218926D01*
X106603553Y-108197691D01*
X106602500Y-108176250D01*
X106602500Y-107663750D01*
X106603553Y-107642309D01*
X106606703Y-107621074D01*
X106611919Y-107600250D01*
X106619151Y-107580038D01*
X106628330Y-107560632D01*
X106639366Y-107542219D01*
X106652154Y-107524976D01*
X106666570Y-107509070D01*
X106682476Y-107494654D01*
X106699719Y-107481866D01*
X106718132Y-107470830D01*
X106737538Y-107461651D01*
X106757750Y-107454419D01*
X106778574Y-107449203D01*
X106799809Y-107446053D01*
X106821250Y-107445000D01*
X107258750Y-107445000D01*
X107280191Y-107446053D01*
X107280191Y-107446053D01*
G37*
D11*
G04 #@! TD*
G04 #@! TO.P,R3,1*
G04 #@! TO.N,Net-(R3-Pad1)*
X107040000Y-107920000D03*
D10*
G04 #@! TO.N,Net-(R3-Pad2)*
G04 #@! TO.C,R3*
G36*
X108855191Y-107446053D02*
X108876426Y-107449203D01*
X108897250Y-107454419D01*
X108917462Y-107461651D01*
X108936868Y-107470830D01*
X108955281Y-107481866D01*
X108972524Y-107494654D01*
X108988430Y-107509070D01*
X109002846Y-107524976D01*
X109015634Y-107542219D01*
X109026670Y-107560632D01*
X109035849Y-107580038D01*
X109043081Y-107600250D01*
X109048297Y-107621074D01*
X109051447Y-107642309D01*
X109052500Y-107663750D01*
X109052500Y-108176250D01*
X109051447Y-108197691D01*
X109048297Y-108218926D01*
X109043081Y-108239750D01*
X109035849Y-108259962D01*
X109026670Y-108279368D01*
X109015634Y-108297781D01*
X109002846Y-108315024D01*
X108988430Y-108330930D01*
X108972524Y-108345346D01*
X108955281Y-108358134D01*
X108936868Y-108369170D01*
X108917462Y-108378349D01*
X108897250Y-108385581D01*
X108876426Y-108390797D01*
X108855191Y-108393947D01*
X108833750Y-108395000D01*
X108396250Y-108395000D01*
X108374809Y-108393947D01*
X108353574Y-108390797D01*
X108332750Y-108385581D01*
X108312538Y-108378349D01*
X108293132Y-108369170D01*
X108274719Y-108358134D01*
X108257476Y-108345346D01*
X108241570Y-108330930D01*
X108227154Y-108315024D01*
X108214366Y-108297781D01*
X108203330Y-108279368D01*
X108194151Y-108259962D01*
X108186919Y-108239750D01*
X108181703Y-108218926D01*
X108178553Y-108197691D01*
X108177500Y-108176250D01*
X108177500Y-107663750D01*
X108178553Y-107642309D01*
X108181703Y-107621074D01*
X108186919Y-107600250D01*
X108194151Y-107580038D01*
X108203330Y-107560632D01*
X108214366Y-107542219D01*
X108227154Y-107524976D01*
X108241570Y-107509070D01*
X108257476Y-107494654D01*
X108274719Y-107481866D01*
X108293132Y-107470830D01*
X108312538Y-107461651D01*
X108332750Y-107454419D01*
X108353574Y-107449203D01*
X108374809Y-107446053D01*
X108396250Y-107445000D01*
X108833750Y-107445000D01*
X108855191Y-107446053D01*
X108855191Y-107446053D01*
G37*
D11*
G04 #@! TD*
G04 #@! TO.P,R3,2*
G04 #@! TO.N,Net-(R3-Pad2)*
X108615000Y-107920000D03*
D10*
G04 #@! TO.N,GND*
G04 #@! TO.C,R4*
G36*
X111935191Y-109876053D02*
X111956426Y-109879203D01*
X111977250Y-109884419D01*
X111997462Y-109891651D01*
X112016868Y-109900830D01*
X112035281Y-109911866D01*
X112052524Y-109924654D01*
X112068430Y-109939070D01*
X112082846Y-109954976D01*
X112095634Y-109972219D01*
X112106670Y-109990632D01*
X112115849Y-110010038D01*
X112123081Y-110030250D01*
X112128297Y-110051074D01*
X112131447Y-110072309D01*
X112132500Y-110093750D01*
X112132500Y-110606250D01*
X112131447Y-110627691D01*
X112128297Y-110648926D01*
X112123081Y-110669750D01*
X112115849Y-110689962D01*
X112106670Y-110709368D01*
X112095634Y-110727781D01*
X112082846Y-110745024D01*
X112068430Y-110760930D01*
X112052524Y-110775346D01*
X112035281Y-110788134D01*
X112016868Y-110799170D01*
X111997462Y-110808349D01*
X111977250Y-110815581D01*
X111956426Y-110820797D01*
X111935191Y-110823947D01*
X111913750Y-110825000D01*
X111476250Y-110825000D01*
X111454809Y-110823947D01*
X111433574Y-110820797D01*
X111412750Y-110815581D01*
X111392538Y-110808349D01*
X111373132Y-110799170D01*
X111354719Y-110788134D01*
X111337476Y-110775346D01*
X111321570Y-110760930D01*
X111307154Y-110745024D01*
X111294366Y-110727781D01*
X111283330Y-110709368D01*
X111274151Y-110689962D01*
X111266919Y-110669750D01*
X111261703Y-110648926D01*
X111258553Y-110627691D01*
X111257500Y-110606250D01*
X111257500Y-110093750D01*
X111258553Y-110072309D01*
X111261703Y-110051074D01*
X111266919Y-110030250D01*
X111274151Y-110010038D01*
X111283330Y-109990632D01*
X111294366Y-109972219D01*
X111307154Y-109954976D01*
X111321570Y-109939070D01*
X111337476Y-109924654D01*
X111354719Y-109911866D01*
X111373132Y-109900830D01*
X111392538Y-109891651D01*
X111412750Y-109884419D01*
X111433574Y-109879203D01*
X111454809Y-109876053D01*
X111476250Y-109875000D01*
X111913750Y-109875000D01*
X111935191Y-109876053D01*
X111935191Y-109876053D01*
G37*
D11*
G04 #@! TD*
G04 #@! TO.P,R4,1*
G04 #@! TO.N,GND*
X111695000Y-110350000D03*
D10*
G04 #@! TO.N,Net-(R3-Pad2)*
G04 #@! TO.C,R4*
G36*
X110360191Y-109876053D02*
X110381426Y-109879203D01*
X110402250Y-109884419D01*
X110422462Y-109891651D01*
X110441868Y-109900830D01*
X110460281Y-109911866D01*
X110477524Y-109924654D01*
X110493430Y-109939070D01*
X110507846Y-109954976D01*
X110520634Y-109972219D01*
X110531670Y-109990632D01*
X110540849Y-110010038D01*
X110548081Y-110030250D01*
X110553297Y-110051074D01*
X110556447Y-110072309D01*
X110557500Y-110093750D01*
X110557500Y-110606250D01*
X110556447Y-110627691D01*
X110553297Y-110648926D01*
X110548081Y-110669750D01*
X110540849Y-110689962D01*
X110531670Y-110709368D01*
X110520634Y-110727781D01*
X110507846Y-110745024D01*
X110493430Y-110760930D01*
X110477524Y-110775346D01*
X110460281Y-110788134D01*
X110441868Y-110799170D01*
X110422462Y-110808349D01*
X110402250Y-110815581D01*
X110381426Y-110820797D01*
X110360191Y-110823947D01*
X110338750Y-110825000D01*
X109901250Y-110825000D01*
X109879809Y-110823947D01*
X109858574Y-110820797D01*
X109837750Y-110815581D01*
X109817538Y-110808349D01*
X109798132Y-110799170D01*
X109779719Y-110788134D01*
X109762476Y-110775346D01*
X109746570Y-110760930D01*
X109732154Y-110745024D01*
X109719366Y-110727781D01*
X109708330Y-110709368D01*
X109699151Y-110689962D01*
X109691919Y-110669750D01*
X109686703Y-110648926D01*
X109683553Y-110627691D01*
X109682500Y-110606250D01*
X109682500Y-110093750D01*
X109683553Y-110072309D01*
X109686703Y-110051074D01*
X109691919Y-110030250D01*
X109699151Y-110010038D01*
X109708330Y-109990632D01*
X109719366Y-109972219D01*
X109732154Y-109954976D01*
X109746570Y-109939070D01*
X109762476Y-109924654D01*
X109779719Y-109911866D01*
X109798132Y-109900830D01*
X109817538Y-109891651D01*
X109837750Y-109884419D01*
X109858574Y-109879203D01*
X109879809Y-109876053D01*
X109901250Y-109875000D01*
X110338750Y-109875000D01*
X110360191Y-109876053D01*
X110360191Y-109876053D01*
G37*
D11*
G04 #@! TD*
G04 #@! TO.P,R4,2*
G04 #@! TO.N,Net-(R3-Pad2)*
X110120000Y-110350000D03*
D10*
G04 #@! TO.N,/SCL*
G04 #@! TO.C,R5*
G36*
X108147691Y-103823553D02*
X108168926Y-103826703D01*
X108189750Y-103831919D01*
X108209962Y-103839151D01*
X108229368Y-103848330D01*
X108247781Y-103859366D01*
X108265024Y-103872154D01*
X108280930Y-103886570D01*
X108295346Y-103902476D01*
X108308134Y-103919719D01*
X108319170Y-103938132D01*
X108328349Y-103957538D01*
X108335581Y-103977750D01*
X108340797Y-103998574D01*
X108343947Y-104019809D01*
X108345000Y-104041250D01*
X108345000Y-104478750D01*
X108343947Y-104500191D01*
X108340797Y-104521426D01*
X108335581Y-104542250D01*
X108328349Y-104562462D01*
X108319170Y-104581868D01*
X108308134Y-104600281D01*
X108295346Y-104617524D01*
X108280930Y-104633430D01*
X108265024Y-104647846D01*
X108247781Y-104660634D01*
X108229368Y-104671670D01*
X108209962Y-104680849D01*
X108189750Y-104688081D01*
X108168926Y-104693297D01*
X108147691Y-104696447D01*
X108126250Y-104697500D01*
X107613750Y-104697500D01*
X107592309Y-104696447D01*
X107571074Y-104693297D01*
X107550250Y-104688081D01*
X107530038Y-104680849D01*
X107510632Y-104671670D01*
X107492219Y-104660634D01*
X107474976Y-104647846D01*
X107459070Y-104633430D01*
X107444654Y-104617524D01*
X107431866Y-104600281D01*
X107420830Y-104581868D01*
X107411651Y-104562462D01*
X107404419Y-104542250D01*
X107399203Y-104521426D01*
X107396053Y-104500191D01*
X107395000Y-104478750D01*
X107395000Y-104041250D01*
X107396053Y-104019809D01*
X107399203Y-103998574D01*
X107404419Y-103977750D01*
X107411651Y-103957538D01*
X107420830Y-103938132D01*
X107431866Y-103919719D01*
X107444654Y-103902476D01*
X107459070Y-103886570D01*
X107474976Y-103872154D01*
X107492219Y-103859366D01*
X107510632Y-103848330D01*
X107530038Y-103839151D01*
X107550250Y-103831919D01*
X107571074Y-103826703D01*
X107592309Y-103823553D01*
X107613750Y-103822500D01*
X108126250Y-103822500D01*
X108147691Y-103823553D01*
X108147691Y-103823553D01*
G37*
D11*
G04 #@! TD*
G04 #@! TO.P,R5,1*
G04 #@! TO.N,/SCL*
X107870000Y-104260000D03*
D10*
G04 #@! TO.N,Net-(R10-Pad1)*
G04 #@! TO.C,R5*
G36*
X108147691Y-102248553D02*
X108168926Y-102251703D01*
X108189750Y-102256919D01*
X108209962Y-102264151D01*
X108229368Y-102273330D01*
X108247781Y-102284366D01*
X108265024Y-102297154D01*
X108280930Y-102311570D01*
X108295346Y-102327476D01*
X108308134Y-102344719D01*
X108319170Y-102363132D01*
X108328349Y-102382538D01*
X108335581Y-102402750D01*
X108340797Y-102423574D01*
X108343947Y-102444809D01*
X108345000Y-102466250D01*
X108345000Y-102903750D01*
X108343947Y-102925191D01*
X108340797Y-102946426D01*
X108335581Y-102967250D01*
X108328349Y-102987462D01*
X108319170Y-103006868D01*
X108308134Y-103025281D01*
X108295346Y-103042524D01*
X108280930Y-103058430D01*
X108265024Y-103072846D01*
X108247781Y-103085634D01*
X108229368Y-103096670D01*
X108209962Y-103105849D01*
X108189750Y-103113081D01*
X108168926Y-103118297D01*
X108147691Y-103121447D01*
X108126250Y-103122500D01*
X107613750Y-103122500D01*
X107592309Y-103121447D01*
X107571074Y-103118297D01*
X107550250Y-103113081D01*
X107530038Y-103105849D01*
X107510632Y-103096670D01*
X107492219Y-103085634D01*
X107474976Y-103072846D01*
X107459070Y-103058430D01*
X107444654Y-103042524D01*
X107431866Y-103025281D01*
X107420830Y-103006868D01*
X107411651Y-102987462D01*
X107404419Y-102967250D01*
X107399203Y-102946426D01*
X107396053Y-102925191D01*
X107395000Y-102903750D01*
X107395000Y-102466250D01*
X107396053Y-102444809D01*
X107399203Y-102423574D01*
X107404419Y-102402750D01*
X107411651Y-102382538D01*
X107420830Y-102363132D01*
X107431866Y-102344719D01*
X107444654Y-102327476D01*
X107459070Y-102311570D01*
X107474976Y-102297154D01*
X107492219Y-102284366D01*
X107510632Y-102273330D01*
X107530038Y-102264151D01*
X107550250Y-102256919D01*
X107571074Y-102251703D01*
X107592309Y-102248553D01*
X107613750Y-102247500D01*
X108126250Y-102247500D01*
X108147691Y-102248553D01*
X108147691Y-102248553D01*
G37*
D11*
G04 #@! TD*
G04 #@! TO.P,R5,2*
G04 #@! TO.N,Net-(R10-Pad1)*
X107870000Y-102685000D03*
D10*
G04 #@! TO.N,Net-(R11-Pad2)*
G04 #@! TO.C,R6*
G36*
X118895691Y-105227553D02*
X118916926Y-105230703D01*
X118937750Y-105235919D01*
X118957962Y-105243151D01*
X118977368Y-105252330D01*
X118995781Y-105263366D01*
X119013024Y-105276154D01*
X119028930Y-105290570D01*
X119043346Y-105306476D01*
X119056134Y-105323719D01*
X119067170Y-105342132D01*
X119076349Y-105361538D01*
X119083581Y-105381750D01*
X119088797Y-105402574D01*
X119091947Y-105423809D01*
X119093000Y-105445250D01*
X119093000Y-105882750D01*
X119091947Y-105904191D01*
X119088797Y-105925426D01*
X119083581Y-105946250D01*
X119076349Y-105966462D01*
X119067170Y-105985868D01*
X119056134Y-106004281D01*
X119043346Y-106021524D01*
X119028930Y-106037430D01*
X119013024Y-106051846D01*
X118995781Y-106064634D01*
X118977368Y-106075670D01*
X118957962Y-106084849D01*
X118937750Y-106092081D01*
X118916926Y-106097297D01*
X118895691Y-106100447D01*
X118874250Y-106101500D01*
X118361750Y-106101500D01*
X118340309Y-106100447D01*
X118319074Y-106097297D01*
X118298250Y-106092081D01*
X118278038Y-106084849D01*
X118258632Y-106075670D01*
X118240219Y-106064634D01*
X118222976Y-106051846D01*
X118207070Y-106037430D01*
X118192654Y-106021524D01*
X118179866Y-106004281D01*
X118168830Y-105985868D01*
X118159651Y-105966462D01*
X118152419Y-105946250D01*
X118147203Y-105925426D01*
X118144053Y-105904191D01*
X118143000Y-105882750D01*
X118143000Y-105445250D01*
X118144053Y-105423809D01*
X118147203Y-105402574D01*
X118152419Y-105381750D01*
X118159651Y-105361538D01*
X118168830Y-105342132D01*
X118179866Y-105323719D01*
X118192654Y-105306476D01*
X118207070Y-105290570D01*
X118222976Y-105276154D01*
X118240219Y-105263366D01*
X118258632Y-105252330D01*
X118278038Y-105243151D01*
X118298250Y-105235919D01*
X118319074Y-105230703D01*
X118340309Y-105227553D01*
X118361750Y-105226500D01*
X118874250Y-105226500D01*
X118895691Y-105227553D01*
X118895691Y-105227553D01*
G37*
D11*
G04 #@! TD*
G04 #@! TO.P,R6,2*
G04 #@! TO.N,Net-(R11-Pad2)*
X118618000Y-105664000D03*
D10*
G04 #@! TO.N,/SDA*
G04 #@! TO.C,R6*
G36*
X118895691Y-106802553D02*
X118916926Y-106805703D01*
X118937750Y-106810919D01*
X118957962Y-106818151D01*
X118977368Y-106827330D01*
X118995781Y-106838366D01*
X119013024Y-106851154D01*
X119028930Y-106865570D01*
X119043346Y-106881476D01*
X119056134Y-106898719D01*
X119067170Y-106917132D01*
X119076349Y-106936538D01*
X119083581Y-106956750D01*
X119088797Y-106977574D01*
X119091947Y-106998809D01*
X119093000Y-107020250D01*
X119093000Y-107457750D01*
X119091947Y-107479191D01*
X119088797Y-107500426D01*
X119083581Y-107521250D01*
X119076349Y-107541462D01*
X119067170Y-107560868D01*
X119056134Y-107579281D01*
X119043346Y-107596524D01*
X119028930Y-107612430D01*
X119013024Y-107626846D01*
X118995781Y-107639634D01*
X118977368Y-107650670D01*
X118957962Y-107659849D01*
X118937750Y-107667081D01*
X118916926Y-107672297D01*
X118895691Y-107675447D01*
X118874250Y-107676500D01*
X118361750Y-107676500D01*
X118340309Y-107675447D01*
X118319074Y-107672297D01*
X118298250Y-107667081D01*
X118278038Y-107659849D01*
X118258632Y-107650670D01*
X118240219Y-107639634D01*
X118222976Y-107626846D01*
X118207070Y-107612430D01*
X118192654Y-107596524D01*
X118179866Y-107579281D01*
X118168830Y-107560868D01*
X118159651Y-107541462D01*
X118152419Y-107521250D01*
X118147203Y-107500426D01*
X118144053Y-107479191D01*
X118143000Y-107457750D01*
X118143000Y-107020250D01*
X118144053Y-106998809D01*
X118147203Y-106977574D01*
X118152419Y-106956750D01*
X118159651Y-106936538D01*
X118168830Y-106917132D01*
X118179866Y-106898719D01*
X118192654Y-106881476D01*
X118207070Y-106865570D01*
X118222976Y-106851154D01*
X118240219Y-106838366D01*
X118258632Y-106827330D01*
X118278038Y-106818151D01*
X118298250Y-106810919D01*
X118319074Y-106805703D01*
X118340309Y-106802553D01*
X118361750Y-106801500D01*
X118874250Y-106801500D01*
X118895691Y-106802553D01*
X118895691Y-106802553D01*
G37*
D11*
G04 #@! TD*
G04 #@! TO.P,R6,1*
G04 #@! TO.N,/SDA*
X118618000Y-107239000D03*
D10*
G04 #@! TO.N,/VDD*
G04 #@! TO.C,R7*
G36*
X108075191Y-99826053D02*
X108096426Y-99829203D01*
X108117250Y-99834419D01*
X108137462Y-99841651D01*
X108156868Y-99850830D01*
X108175281Y-99861866D01*
X108192524Y-99874654D01*
X108208430Y-99889070D01*
X108222846Y-99904976D01*
X108235634Y-99922219D01*
X108246670Y-99940632D01*
X108255849Y-99960038D01*
X108263081Y-99980250D01*
X108268297Y-100001074D01*
X108271447Y-100022309D01*
X108272500Y-100043750D01*
X108272500Y-100556250D01*
X108271447Y-100577691D01*
X108268297Y-100598926D01*
X108263081Y-100619750D01*
X108255849Y-100639962D01*
X108246670Y-100659368D01*
X108235634Y-100677781D01*
X108222846Y-100695024D01*
X108208430Y-100710930D01*
X108192524Y-100725346D01*
X108175281Y-100738134D01*
X108156868Y-100749170D01*
X108137462Y-100758349D01*
X108117250Y-100765581D01*
X108096426Y-100770797D01*
X108075191Y-100773947D01*
X108053750Y-100775000D01*
X107616250Y-100775000D01*
X107594809Y-100773947D01*
X107573574Y-100770797D01*
X107552750Y-100765581D01*
X107532538Y-100758349D01*
X107513132Y-100749170D01*
X107494719Y-100738134D01*
X107477476Y-100725346D01*
X107461570Y-100710930D01*
X107447154Y-100695024D01*
X107434366Y-100677781D01*
X107423330Y-100659368D01*
X107414151Y-100639962D01*
X107406919Y-100619750D01*
X107401703Y-100598926D01*
X107398553Y-100577691D01*
X107397500Y-100556250D01*
X107397500Y-100043750D01*
X107398553Y-100022309D01*
X107401703Y-100001074D01*
X107406919Y-99980250D01*
X107414151Y-99960038D01*
X107423330Y-99940632D01*
X107434366Y-99922219D01*
X107447154Y-99904976D01*
X107461570Y-99889070D01*
X107477476Y-99874654D01*
X107494719Y-99861866D01*
X107513132Y-99850830D01*
X107532538Y-99841651D01*
X107552750Y-99834419D01*
X107573574Y-99829203D01*
X107594809Y-99826053D01*
X107616250Y-99825000D01*
X108053750Y-99825000D01*
X108075191Y-99826053D01*
X108075191Y-99826053D01*
G37*
D11*
G04 #@! TD*
G04 #@! TO.P,R7,1*
G04 #@! TO.N,/VDD*
X107835000Y-100300000D03*
D10*
G04 #@! TO.N,Net-(J1-Pad3)*
G04 #@! TO.C,R7*
G36*
X109650191Y-99826053D02*
X109671426Y-99829203D01*
X109692250Y-99834419D01*
X109712462Y-99841651D01*
X109731868Y-99850830D01*
X109750281Y-99861866D01*
X109767524Y-99874654D01*
X109783430Y-99889070D01*
X109797846Y-99904976D01*
X109810634Y-99922219D01*
X109821670Y-99940632D01*
X109830849Y-99960038D01*
X109838081Y-99980250D01*
X109843297Y-100001074D01*
X109846447Y-100022309D01*
X109847500Y-100043750D01*
X109847500Y-100556250D01*
X109846447Y-100577691D01*
X109843297Y-100598926D01*
X109838081Y-100619750D01*
X109830849Y-100639962D01*
X109821670Y-100659368D01*
X109810634Y-100677781D01*
X109797846Y-100695024D01*
X109783430Y-100710930D01*
X109767524Y-100725346D01*
X109750281Y-100738134D01*
X109731868Y-100749170D01*
X109712462Y-100758349D01*
X109692250Y-100765581D01*
X109671426Y-100770797D01*
X109650191Y-100773947D01*
X109628750Y-100775000D01*
X109191250Y-100775000D01*
X109169809Y-100773947D01*
X109148574Y-100770797D01*
X109127750Y-100765581D01*
X109107538Y-100758349D01*
X109088132Y-100749170D01*
X109069719Y-100738134D01*
X109052476Y-100725346D01*
X109036570Y-100710930D01*
X109022154Y-100695024D01*
X109009366Y-100677781D01*
X108998330Y-100659368D01*
X108989151Y-100639962D01*
X108981919Y-100619750D01*
X108976703Y-100598926D01*
X108973553Y-100577691D01*
X108972500Y-100556250D01*
X108972500Y-100043750D01*
X108973553Y-100022309D01*
X108976703Y-100001074D01*
X108981919Y-99980250D01*
X108989151Y-99960038D01*
X108998330Y-99940632D01*
X109009366Y-99922219D01*
X109022154Y-99904976D01*
X109036570Y-99889070D01*
X109052476Y-99874654D01*
X109069719Y-99861866D01*
X109088132Y-99850830D01*
X109107538Y-99841651D01*
X109127750Y-99834419D01*
X109148574Y-99829203D01*
X109169809Y-99826053D01*
X109191250Y-99825000D01*
X109628750Y-99825000D01*
X109650191Y-99826053D01*
X109650191Y-99826053D01*
G37*
D11*
G04 #@! TD*
G04 #@! TO.P,R7,2*
G04 #@! TO.N,Net-(J1-Pad3)*
X109410000Y-100300000D03*
D10*
G04 #@! TO.N,Net-(J1-Pad3)*
G04 #@! TO.C,R8*
G36*
X113267691Y-98226053D02*
X113288926Y-98229203D01*
X113309750Y-98234419D01*
X113329962Y-98241651D01*
X113349368Y-98250830D01*
X113367781Y-98261866D01*
X113385024Y-98274654D01*
X113400930Y-98289070D01*
X113415346Y-98304976D01*
X113428134Y-98322219D01*
X113439170Y-98340632D01*
X113448349Y-98360038D01*
X113455581Y-98380250D01*
X113460797Y-98401074D01*
X113463947Y-98422309D01*
X113465000Y-98443750D01*
X113465000Y-98956250D01*
X113463947Y-98977691D01*
X113460797Y-98998926D01*
X113455581Y-99019750D01*
X113448349Y-99039962D01*
X113439170Y-99059368D01*
X113428134Y-99077781D01*
X113415346Y-99095024D01*
X113400930Y-99110930D01*
X113385024Y-99125346D01*
X113367781Y-99138134D01*
X113349368Y-99149170D01*
X113329962Y-99158349D01*
X113309750Y-99165581D01*
X113288926Y-99170797D01*
X113267691Y-99173947D01*
X113246250Y-99175000D01*
X112808750Y-99175000D01*
X112787309Y-99173947D01*
X112766074Y-99170797D01*
X112745250Y-99165581D01*
X112725038Y-99158349D01*
X112705632Y-99149170D01*
X112687219Y-99138134D01*
X112669976Y-99125346D01*
X112654070Y-99110930D01*
X112639654Y-99095024D01*
X112626866Y-99077781D01*
X112615830Y-99059368D01*
X112606651Y-99039962D01*
X112599419Y-99019750D01*
X112594203Y-98998926D01*
X112591053Y-98977691D01*
X112590000Y-98956250D01*
X112590000Y-98443750D01*
X112591053Y-98422309D01*
X112594203Y-98401074D01*
X112599419Y-98380250D01*
X112606651Y-98360038D01*
X112615830Y-98340632D01*
X112626866Y-98322219D01*
X112639654Y-98304976D01*
X112654070Y-98289070D01*
X112669976Y-98274654D01*
X112687219Y-98261866D01*
X112705632Y-98250830D01*
X112725038Y-98241651D01*
X112745250Y-98234419D01*
X112766074Y-98229203D01*
X112787309Y-98226053D01*
X112808750Y-98225000D01*
X113246250Y-98225000D01*
X113267691Y-98226053D01*
X113267691Y-98226053D01*
G37*
D11*
G04 #@! TD*
G04 #@! TO.P,R8,2*
G04 #@! TO.N,Net-(J1-Pad3)*
X113027500Y-98700000D03*
D10*
G04 #@! TO.N,GND*
G04 #@! TO.C,R8*
G36*
X111692691Y-98226053D02*
X111713926Y-98229203D01*
X111734750Y-98234419D01*
X111754962Y-98241651D01*
X111774368Y-98250830D01*
X111792781Y-98261866D01*
X111810024Y-98274654D01*
X111825930Y-98289070D01*
X111840346Y-98304976D01*
X111853134Y-98322219D01*
X111864170Y-98340632D01*
X111873349Y-98360038D01*
X111880581Y-98380250D01*
X111885797Y-98401074D01*
X111888947Y-98422309D01*
X111890000Y-98443750D01*
X111890000Y-98956250D01*
X111888947Y-98977691D01*
X111885797Y-98998926D01*
X111880581Y-99019750D01*
X111873349Y-99039962D01*
X111864170Y-99059368D01*
X111853134Y-99077781D01*
X111840346Y-99095024D01*
X111825930Y-99110930D01*
X111810024Y-99125346D01*
X111792781Y-99138134D01*
X111774368Y-99149170D01*
X111754962Y-99158349D01*
X111734750Y-99165581D01*
X111713926Y-99170797D01*
X111692691Y-99173947D01*
X111671250Y-99175000D01*
X111233750Y-99175000D01*
X111212309Y-99173947D01*
X111191074Y-99170797D01*
X111170250Y-99165581D01*
X111150038Y-99158349D01*
X111130632Y-99149170D01*
X111112219Y-99138134D01*
X111094976Y-99125346D01*
X111079070Y-99110930D01*
X111064654Y-99095024D01*
X111051866Y-99077781D01*
X111040830Y-99059368D01*
X111031651Y-99039962D01*
X111024419Y-99019750D01*
X111019203Y-98998926D01*
X111016053Y-98977691D01*
X111015000Y-98956250D01*
X111015000Y-98443750D01*
X111016053Y-98422309D01*
X111019203Y-98401074D01*
X111024419Y-98380250D01*
X111031651Y-98360038D01*
X111040830Y-98340632D01*
X111051866Y-98322219D01*
X111064654Y-98304976D01*
X111079070Y-98289070D01*
X111094976Y-98274654D01*
X111112219Y-98261866D01*
X111130632Y-98250830D01*
X111150038Y-98241651D01*
X111170250Y-98234419D01*
X111191074Y-98229203D01*
X111212309Y-98226053D01*
X111233750Y-98225000D01*
X111671250Y-98225000D01*
X111692691Y-98226053D01*
X111692691Y-98226053D01*
G37*
D11*
G04 #@! TD*
G04 #@! TO.P,R8,1*
G04 #@! TO.N,GND*
X111452500Y-98700000D03*
D10*
G04 #@! TO.N,Net-(R9-Pad2)*
G04 #@! TO.C,R9*
G36*
X118800191Y-101126053D02*
X118821426Y-101129203D01*
X118842250Y-101134419D01*
X118862462Y-101141651D01*
X118881868Y-101150830D01*
X118900281Y-101161866D01*
X118917524Y-101174654D01*
X118933430Y-101189070D01*
X118947846Y-101204976D01*
X118960634Y-101222219D01*
X118971670Y-101240632D01*
X118980849Y-101260038D01*
X118988081Y-101280250D01*
X118993297Y-101301074D01*
X118996447Y-101322309D01*
X118997500Y-101343750D01*
X118997500Y-101856250D01*
X118996447Y-101877691D01*
X118993297Y-101898926D01*
X118988081Y-101919750D01*
X118980849Y-101939962D01*
X118971670Y-101959368D01*
X118960634Y-101977781D01*
X118947846Y-101995024D01*
X118933430Y-102010930D01*
X118917524Y-102025346D01*
X118900281Y-102038134D01*
X118881868Y-102049170D01*
X118862462Y-102058349D01*
X118842250Y-102065581D01*
X118821426Y-102070797D01*
X118800191Y-102073947D01*
X118778750Y-102075000D01*
X118341250Y-102075000D01*
X118319809Y-102073947D01*
X118298574Y-102070797D01*
X118277750Y-102065581D01*
X118257538Y-102058349D01*
X118238132Y-102049170D01*
X118219719Y-102038134D01*
X118202476Y-102025346D01*
X118186570Y-102010930D01*
X118172154Y-101995024D01*
X118159366Y-101977781D01*
X118148330Y-101959368D01*
X118139151Y-101939962D01*
X118131919Y-101919750D01*
X118126703Y-101898926D01*
X118123553Y-101877691D01*
X118122500Y-101856250D01*
X118122500Y-101343750D01*
X118123553Y-101322309D01*
X118126703Y-101301074D01*
X118131919Y-101280250D01*
X118139151Y-101260038D01*
X118148330Y-101240632D01*
X118159366Y-101222219D01*
X118172154Y-101204976D01*
X118186570Y-101189070D01*
X118202476Y-101174654D01*
X118219719Y-101161866D01*
X118238132Y-101150830D01*
X118257538Y-101141651D01*
X118277750Y-101134419D01*
X118298574Y-101129203D01*
X118319809Y-101126053D01*
X118341250Y-101125000D01*
X118778750Y-101125000D01*
X118800191Y-101126053D01*
X118800191Y-101126053D01*
G37*
D11*
G04 #@! TD*
G04 #@! TO.P,R9,2*
G04 #@! TO.N,Net-(R9-Pad2)*
X118560000Y-101600000D03*
D10*
G04 #@! TO.N,Net-(D2-Pad2)*
G04 #@! TO.C,R9*
G36*
X120375191Y-101126053D02*
X120396426Y-101129203D01*
X120417250Y-101134419D01*
X120437462Y-101141651D01*
X120456868Y-101150830D01*
X120475281Y-101161866D01*
X120492524Y-101174654D01*
X120508430Y-101189070D01*
X120522846Y-101204976D01*
X120535634Y-101222219D01*
X120546670Y-101240632D01*
X120555849Y-101260038D01*
X120563081Y-101280250D01*
X120568297Y-101301074D01*
X120571447Y-101322309D01*
X120572500Y-101343750D01*
X120572500Y-101856250D01*
X120571447Y-101877691D01*
X120568297Y-101898926D01*
X120563081Y-101919750D01*
X120555849Y-101939962D01*
X120546670Y-101959368D01*
X120535634Y-101977781D01*
X120522846Y-101995024D01*
X120508430Y-102010930D01*
X120492524Y-102025346D01*
X120475281Y-102038134D01*
X120456868Y-102049170D01*
X120437462Y-102058349D01*
X120417250Y-102065581D01*
X120396426Y-102070797D01*
X120375191Y-102073947D01*
X120353750Y-102075000D01*
X119916250Y-102075000D01*
X119894809Y-102073947D01*
X119873574Y-102070797D01*
X119852750Y-102065581D01*
X119832538Y-102058349D01*
X119813132Y-102049170D01*
X119794719Y-102038134D01*
X119777476Y-102025346D01*
X119761570Y-102010930D01*
X119747154Y-101995024D01*
X119734366Y-101977781D01*
X119723330Y-101959368D01*
X119714151Y-101939962D01*
X119706919Y-101919750D01*
X119701703Y-101898926D01*
X119698553Y-101877691D01*
X119697500Y-101856250D01*
X119697500Y-101343750D01*
X119698553Y-101322309D01*
X119701703Y-101301074D01*
X119706919Y-101280250D01*
X119714151Y-101260038D01*
X119723330Y-101240632D01*
X119734366Y-101222219D01*
X119747154Y-101204976D01*
X119761570Y-101189070D01*
X119777476Y-101174654D01*
X119794719Y-101161866D01*
X119813132Y-101150830D01*
X119832538Y-101141651D01*
X119852750Y-101134419D01*
X119873574Y-101129203D01*
X119894809Y-101126053D01*
X119916250Y-101125000D01*
X120353750Y-101125000D01*
X120375191Y-101126053D01*
X120375191Y-101126053D01*
G37*
D11*
G04 #@! TD*
G04 #@! TO.P,R9,1*
G04 #@! TO.N,Net-(D2-Pad2)*
X120135000Y-101600000D03*
D10*
G04 #@! TO.N,/SCLK*
G04 #@! TO.C,R10*
G36*
X113275191Y-99766053D02*
X113296426Y-99769203D01*
X113317250Y-99774419D01*
X113337462Y-99781651D01*
X113356868Y-99790830D01*
X113375281Y-99801866D01*
X113392524Y-99814654D01*
X113408430Y-99829070D01*
X113422846Y-99844976D01*
X113435634Y-99862219D01*
X113446670Y-99880632D01*
X113455849Y-99900038D01*
X113463081Y-99920250D01*
X113468297Y-99941074D01*
X113471447Y-99962309D01*
X113472500Y-99983750D01*
X113472500Y-100496250D01*
X113471447Y-100517691D01*
X113468297Y-100538926D01*
X113463081Y-100559750D01*
X113455849Y-100579962D01*
X113446670Y-100599368D01*
X113435634Y-100617781D01*
X113422846Y-100635024D01*
X113408430Y-100650930D01*
X113392524Y-100665346D01*
X113375281Y-100678134D01*
X113356868Y-100689170D01*
X113337462Y-100698349D01*
X113317250Y-100705581D01*
X113296426Y-100710797D01*
X113275191Y-100713947D01*
X113253750Y-100715000D01*
X112816250Y-100715000D01*
X112794809Y-100713947D01*
X112773574Y-100710797D01*
X112752750Y-100705581D01*
X112732538Y-100698349D01*
X112713132Y-100689170D01*
X112694719Y-100678134D01*
X112677476Y-100665346D01*
X112661570Y-100650930D01*
X112647154Y-100635024D01*
X112634366Y-100617781D01*
X112623330Y-100599368D01*
X112614151Y-100579962D01*
X112606919Y-100559750D01*
X112601703Y-100538926D01*
X112598553Y-100517691D01*
X112597500Y-100496250D01*
X112597500Y-99983750D01*
X112598553Y-99962309D01*
X112601703Y-99941074D01*
X112606919Y-99920250D01*
X112614151Y-99900038D01*
X112623330Y-99880632D01*
X112634366Y-99862219D01*
X112647154Y-99844976D01*
X112661570Y-99829070D01*
X112677476Y-99814654D01*
X112694719Y-99801866D01*
X112713132Y-99790830D01*
X112732538Y-99781651D01*
X112752750Y-99774419D01*
X112773574Y-99769203D01*
X112794809Y-99766053D01*
X112816250Y-99765000D01*
X113253750Y-99765000D01*
X113275191Y-99766053D01*
X113275191Y-99766053D01*
G37*
D11*
G04 #@! TD*
G04 #@! TO.P,R10,2*
G04 #@! TO.N,/SCLK*
X113035000Y-100240000D03*
D10*
G04 #@! TO.N,Net-(R10-Pad1)*
G04 #@! TO.C,R10*
G36*
X111700191Y-99766053D02*
X111721426Y-99769203D01*
X111742250Y-99774419D01*
X111762462Y-99781651D01*
X111781868Y-99790830D01*
X111800281Y-99801866D01*
X111817524Y-99814654D01*
X111833430Y-99829070D01*
X111847846Y-99844976D01*
X111860634Y-99862219D01*
X111871670Y-99880632D01*
X111880849Y-99900038D01*
X111888081Y-99920250D01*
X111893297Y-99941074D01*
X111896447Y-99962309D01*
X111897500Y-99983750D01*
X111897500Y-100496250D01*
X111896447Y-100517691D01*
X111893297Y-100538926D01*
X111888081Y-100559750D01*
X111880849Y-100579962D01*
X111871670Y-100599368D01*
X111860634Y-100617781D01*
X111847846Y-100635024D01*
X111833430Y-100650930D01*
X111817524Y-100665346D01*
X111800281Y-100678134D01*
X111781868Y-100689170D01*
X111762462Y-100698349D01*
X111742250Y-100705581D01*
X111721426Y-100710797D01*
X111700191Y-100713947D01*
X111678750Y-100715000D01*
X111241250Y-100715000D01*
X111219809Y-100713947D01*
X111198574Y-100710797D01*
X111177750Y-100705581D01*
X111157538Y-100698349D01*
X111138132Y-100689170D01*
X111119719Y-100678134D01*
X111102476Y-100665346D01*
X111086570Y-100650930D01*
X111072154Y-100635024D01*
X111059366Y-100617781D01*
X111048330Y-100599368D01*
X111039151Y-100579962D01*
X111031919Y-100559750D01*
X111026703Y-100538926D01*
X111023553Y-100517691D01*
X111022500Y-100496250D01*
X111022500Y-99983750D01*
X111023553Y-99962309D01*
X111026703Y-99941074D01*
X111031919Y-99920250D01*
X111039151Y-99900038D01*
X111048330Y-99880632D01*
X111059366Y-99862219D01*
X111072154Y-99844976D01*
X111086570Y-99829070D01*
X111102476Y-99814654D01*
X111119719Y-99801866D01*
X111138132Y-99790830D01*
X111157538Y-99781651D01*
X111177750Y-99774419D01*
X111198574Y-99769203D01*
X111219809Y-99766053D01*
X111241250Y-99765000D01*
X111678750Y-99765000D01*
X111700191Y-99766053D01*
X111700191Y-99766053D01*
G37*
D11*
G04 #@! TD*
G04 #@! TO.P,R10,1*
G04 #@! TO.N,Net-(R10-Pad1)*
X111460000Y-100240000D03*
D10*
G04 #@! TO.N,/SDAT*
G04 #@! TO.C,R11*
G36*
X119562691Y-98806053D02*
X119583926Y-98809203D01*
X119604750Y-98814419D01*
X119624962Y-98821651D01*
X119644368Y-98830830D01*
X119662781Y-98841866D01*
X119680024Y-98854654D01*
X119695930Y-98869070D01*
X119710346Y-98884976D01*
X119723134Y-98902219D01*
X119734170Y-98920632D01*
X119743349Y-98940038D01*
X119750581Y-98960250D01*
X119755797Y-98981074D01*
X119758947Y-99002309D01*
X119760000Y-99023750D01*
X119760000Y-99536250D01*
X119758947Y-99557691D01*
X119755797Y-99578926D01*
X119750581Y-99599750D01*
X119743349Y-99619962D01*
X119734170Y-99639368D01*
X119723134Y-99657781D01*
X119710346Y-99675024D01*
X119695930Y-99690930D01*
X119680024Y-99705346D01*
X119662781Y-99718134D01*
X119644368Y-99729170D01*
X119624962Y-99738349D01*
X119604750Y-99745581D01*
X119583926Y-99750797D01*
X119562691Y-99753947D01*
X119541250Y-99755000D01*
X119103750Y-99755000D01*
X119082309Y-99753947D01*
X119061074Y-99750797D01*
X119040250Y-99745581D01*
X119020038Y-99738349D01*
X119000632Y-99729170D01*
X118982219Y-99718134D01*
X118964976Y-99705346D01*
X118949070Y-99690930D01*
X118934654Y-99675024D01*
X118921866Y-99657781D01*
X118910830Y-99639368D01*
X118901651Y-99619962D01*
X118894419Y-99599750D01*
X118889203Y-99578926D01*
X118886053Y-99557691D01*
X118885000Y-99536250D01*
X118885000Y-99023750D01*
X118886053Y-99002309D01*
X118889203Y-98981074D01*
X118894419Y-98960250D01*
X118901651Y-98940038D01*
X118910830Y-98920632D01*
X118921866Y-98902219D01*
X118934654Y-98884976D01*
X118949070Y-98869070D01*
X118964976Y-98854654D01*
X118982219Y-98841866D01*
X119000632Y-98830830D01*
X119020038Y-98821651D01*
X119040250Y-98814419D01*
X119061074Y-98809203D01*
X119082309Y-98806053D01*
X119103750Y-98805000D01*
X119541250Y-98805000D01*
X119562691Y-98806053D01*
X119562691Y-98806053D01*
G37*
D11*
G04 #@! TD*
G04 #@! TO.P,R11,1*
G04 #@! TO.N,/SDAT*
X119322500Y-99280000D03*
D10*
G04 #@! TO.N,Net-(R11-Pad2)*
G04 #@! TO.C,R11*
G36*
X121137691Y-98806053D02*
X121158926Y-98809203D01*
X121179750Y-98814419D01*
X121199962Y-98821651D01*
X121219368Y-98830830D01*
X121237781Y-98841866D01*
X121255024Y-98854654D01*
X121270930Y-98869070D01*
X121285346Y-98884976D01*
X121298134Y-98902219D01*
X121309170Y-98920632D01*
X121318349Y-98940038D01*
X121325581Y-98960250D01*
X121330797Y-98981074D01*
X121333947Y-99002309D01*
X121335000Y-99023750D01*
X121335000Y-99536250D01*
X121333947Y-99557691D01*
X121330797Y-99578926D01*
X121325581Y-99599750D01*
X121318349Y-99619962D01*
X121309170Y-99639368D01*
X121298134Y-99657781D01*
X121285346Y-99675024D01*
X121270930Y-99690930D01*
X121255024Y-99705346D01*
X121237781Y-99718134D01*
X121219368Y-99729170D01*
X121199962Y-99738349D01*
X121179750Y-99745581D01*
X121158926Y-99750797D01*
X121137691Y-99753947D01*
X121116250Y-99755000D01*
X120678750Y-99755000D01*
X120657309Y-99753947D01*
X120636074Y-99750797D01*
X120615250Y-99745581D01*
X120595038Y-99738349D01*
X120575632Y-99729170D01*
X120557219Y-99718134D01*
X120539976Y-99705346D01*
X120524070Y-99690930D01*
X120509654Y-99675024D01*
X120496866Y-99657781D01*
X120485830Y-99639368D01*
X120476651Y-99619962D01*
X120469419Y-99599750D01*
X120464203Y-99578926D01*
X120461053Y-99557691D01*
X120460000Y-99536250D01*
X120460000Y-99023750D01*
X120461053Y-99002309D01*
X120464203Y-98981074D01*
X120469419Y-98960250D01*
X120476651Y-98940038D01*
X120485830Y-98920632D01*
X120496866Y-98902219D01*
X120509654Y-98884976D01*
X120524070Y-98869070D01*
X120539976Y-98854654D01*
X120557219Y-98841866D01*
X120575632Y-98830830D01*
X120595038Y-98821651D01*
X120615250Y-98814419D01*
X120636074Y-98809203D01*
X120657309Y-98806053D01*
X120678750Y-98805000D01*
X121116250Y-98805000D01*
X121137691Y-98806053D01*
X121137691Y-98806053D01*
G37*
D11*
G04 #@! TD*
G04 #@! TO.P,R11,2*
G04 #@! TO.N,Net-(R11-Pad2)*
X120897500Y-99280000D03*
D10*
G04 #@! TO.N,Net-(R12-Pad2)*
G04 #@! TO.C,R13*
G36*
X115930191Y-109296053D02*
X115951426Y-109299203D01*
X115972250Y-109304419D01*
X115992462Y-109311651D01*
X116011868Y-109320830D01*
X116030281Y-109331866D01*
X116047524Y-109344654D01*
X116063430Y-109359070D01*
X116077846Y-109374976D01*
X116090634Y-109392219D01*
X116101670Y-109410632D01*
X116110849Y-109430038D01*
X116118081Y-109450250D01*
X116123297Y-109471074D01*
X116126447Y-109492309D01*
X116127500Y-109513750D01*
X116127500Y-110026250D01*
X116126447Y-110047691D01*
X116123297Y-110068926D01*
X116118081Y-110089750D01*
X116110849Y-110109962D01*
X116101670Y-110129368D01*
X116090634Y-110147781D01*
X116077846Y-110165024D01*
X116063430Y-110180930D01*
X116047524Y-110195346D01*
X116030281Y-110208134D01*
X116011868Y-110219170D01*
X115992462Y-110228349D01*
X115972250Y-110235581D01*
X115951426Y-110240797D01*
X115930191Y-110243947D01*
X115908750Y-110245000D01*
X115471250Y-110245000D01*
X115449809Y-110243947D01*
X115428574Y-110240797D01*
X115407750Y-110235581D01*
X115387538Y-110228349D01*
X115368132Y-110219170D01*
X115349719Y-110208134D01*
X115332476Y-110195346D01*
X115316570Y-110180930D01*
X115302154Y-110165024D01*
X115289366Y-110147781D01*
X115278330Y-110129368D01*
X115269151Y-110109962D01*
X115261919Y-110089750D01*
X115256703Y-110068926D01*
X115253553Y-110047691D01*
X115252500Y-110026250D01*
X115252500Y-109513750D01*
X115253553Y-109492309D01*
X115256703Y-109471074D01*
X115261919Y-109450250D01*
X115269151Y-109430038D01*
X115278330Y-109410632D01*
X115289366Y-109392219D01*
X115302154Y-109374976D01*
X115316570Y-109359070D01*
X115332476Y-109344654D01*
X115349719Y-109331866D01*
X115368132Y-109320830D01*
X115387538Y-109311651D01*
X115407750Y-109304419D01*
X115428574Y-109299203D01*
X115449809Y-109296053D01*
X115471250Y-109295000D01*
X115908750Y-109295000D01*
X115930191Y-109296053D01*
X115930191Y-109296053D01*
G37*
D11*
G04 #@! TD*
G04 #@! TO.P,R13,2*
G04 #@! TO.N,Net-(R12-Pad2)*
X115690000Y-109770000D03*
D10*
G04 #@! TO.N,/INT*
G04 #@! TO.C,R13*
G36*
X117505191Y-109296053D02*
X117526426Y-109299203D01*
X117547250Y-109304419D01*
X117567462Y-109311651D01*
X117586868Y-109320830D01*
X117605281Y-109331866D01*
X117622524Y-109344654D01*
X117638430Y-109359070D01*
X117652846Y-109374976D01*
X117665634Y-109392219D01*
X117676670Y-109410632D01*
X117685849Y-109430038D01*
X117693081Y-109450250D01*
X117698297Y-109471074D01*
X117701447Y-109492309D01*
X117702500Y-109513750D01*
X117702500Y-110026250D01*
X117701447Y-110047691D01*
X117698297Y-110068926D01*
X117693081Y-110089750D01*
X117685849Y-110109962D01*
X117676670Y-110129368D01*
X117665634Y-110147781D01*
X117652846Y-110165024D01*
X117638430Y-110180930D01*
X117622524Y-110195346D01*
X117605281Y-110208134D01*
X117586868Y-110219170D01*
X117567462Y-110228349D01*
X117547250Y-110235581D01*
X117526426Y-110240797D01*
X117505191Y-110243947D01*
X117483750Y-110245000D01*
X117046250Y-110245000D01*
X117024809Y-110243947D01*
X117003574Y-110240797D01*
X116982750Y-110235581D01*
X116962538Y-110228349D01*
X116943132Y-110219170D01*
X116924719Y-110208134D01*
X116907476Y-110195346D01*
X116891570Y-110180930D01*
X116877154Y-110165024D01*
X116864366Y-110147781D01*
X116853330Y-110129368D01*
X116844151Y-110109962D01*
X116836919Y-110089750D01*
X116831703Y-110068926D01*
X116828553Y-110047691D01*
X116827500Y-110026250D01*
X116827500Y-109513750D01*
X116828553Y-109492309D01*
X116831703Y-109471074D01*
X116836919Y-109450250D01*
X116844151Y-109430038D01*
X116853330Y-109410632D01*
X116864366Y-109392219D01*
X116877154Y-109374976D01*
X116891570Y-109359070D01*
X116907476Y-109344654D01*
X116924719Y-109331866D01*
X116943132Y-109320830D01*
X116962538Y-109311651D01*
X116982750Y-109304419D01*
X117003574Y-109299203D01*
X117024809Y-109296053D01*
X117046250Y-109295000D01*
X117483750Y-109295000D01*
X117505191Y-109296053D01*
X117505191Y-109296053D01*
G37*
D11*
G04 #@! TD*
G04 #@! TO.P,R13,1*
G04 #@! TO.N,/INT*
X117265000Y-109770000D03*
D15*
G04 #@! TO.P,SW1,1*
G04 #@! TO.N,Net-(BT1-Pad1)*
X115310000Y-117690000D03*
G04 #@! TO.P,SW1,2*
G04 #@! TO.N,/VDD*
X112810000Y-117690000D03*
G04 #@! TO.P,SW1,3*
G04 #@! TO.N,N/C*
X110310000Y-117690000D03*
G04 #@! TD*
D16*
G04 #@! TO.P,U2,1*
G04 #@! TO.N,/TxD*
X110840000Y-102330000D03*
G04 #@! TO.P,U2,2*
G04 #@! TO.N,/RxD*
X110840000Y-103600000D03*
G04 #@! TO.P,U2,3*
G04 #@! TO.N,Net-(R10-Pad1)*
X110840000Y-104870000D03*
G04 #@! TO.P,U2,4*
G04 #@! TO.N,GND*
X110840000Y-106140000D03*
G04 #@! TO.P,U2,5*
G04 #@! TO.N,Net-(R11-Pad2)*
X115850000Y-106140000D03*
G04 #@! TO.P,U2,6*
G04 #@! TO.N,Net-(R12-Pad2)*
X115850000Y-104870000D03*
G04 #@! TO.P,U2,7*
G04 #@! TO.N,Net-(R9-Pad2)*
X115850000Y-103600000D03*
G04 #@! TO.P,U2,8*
G04 #@! TO.N,/VDD*
X115850000Y-102330000D03*
G04 #@! TD*
D17*
G04 #@! TO.P,U3,1*
G04 #@! TO.N,/INT*
X125651000Y-103226000D03*
G04 #@! TO.P,U3,2*
G04 #@! TO.N,/SCL*
X128016000Y-103226000D03*
G04 #@! TO.P,U3,3*
G04 #@! TO.N,/SDA*
X130716000Y-103226000D03*
G04 #@! TO.P,U3,4*
G04 #@! TO.N,GND*
X124026000Y-98351000D03*
G04 #@! TO.P,U3,5*
G04 #@! TO.N,/VDD*
X133026000Y-98351000D03*
G04 #@! TO.P,U3,6*
G04 #@! TO.N,Net-(U3-Pad6)*
X125651000Y-93726000D03*
G04 #@! TO.P,U3,7*
G04 #@! TO.N,Net-(U3-Pad7)*
X128016000Y-93726000D03*
G04 #@! TO.P,U3,8*
G04 #@! TO.N,Net-(U3-Pad8)*
X130716000Y-93726000D03*
G04 #@! TD*
D18*
G04 #@! TO.P,J1,1*
G04 #@! TO.N,/VDD*
X107740000Y-96180000D03*
G04 #@! TO.P,J1,2*
G04 #@! TO.N,GND*
X110280000Y-96200000D03*
G04 #@! TO.P,J1,3*
G04 #@! TO.N,Net-(J1-Pad3)*
X112820000Y-96160000D03*
G04 #@! TO.P,J1,4*
G04 #@! TO.N,/SCLK*
X115360000Y-96160000D03*
G04 #@! TO.P,J1,5*
G04 #@! TO.N,/SDAT*
X117900000Y-96150000D03*
G04 #@! TD*
D19*
G04 #@! TO.N,GND*
X127430000Y-118210000D03*
X111410000Y-114100000D03*
X128360000Y-112310000D03*
X125552436Y-100330000D03*
X122893346Y-105286049D03*
X126492000Y-97790000D03*
X117793000Y-99568000D03*
X110998000Y-96266000D03*
G04 #@! TO.N,/VDD*
X112930000Y-113880000D03*
X124100000Y-103780000D03*
X127254000Y-107442000D03*
X127254000Y-109220000D03*
G04 #@! TO.N,Net-(D2-Pad2)*
X118364000Y-103632000D03*
X123444000Y-101092000D03*
G04 #@! TO.N,Net-(R3-Pad1)*
X106470300Y-113150000D03*
G04 #@! TO.N,Net-(R3-Pad2)*
X110120000Y-111290000D03*
G04 #@! TO.N,/SCL*
X128510000Y-98080000D03*
X117460000Y-104260000D03*
G04 #@! TO.N,Net-(R10-Pad1)*
X109982000Y-101600000D03*
X110490000Y-99568000D03*
G04 #@! TO.N,Net-(R11-Pad2)*
X123444000Y-108712000D03*
X132842000Y-108204000D03*
G04 #@! TO.N,/SDA*
X123444000Y-105918000D03*
X126746000Y-105664000D03*
X124968000Y-105410000D03*
G04 #@! TO.N,Net-(J1-Pad3)*
X115080000Y-101110000D03*
X113730000Y-97630000D03*
G04 #@! TO.N,Net-(R9-Pad2)*
X114170000Y-102430000D03*
X116780000Y-101450000D03*
G04 #@! TO.N,/BT_status*
X117094000Y-106934000D03*
X112522000Y-108204000D03*
X114046000Y-109728000D03*
G04 #@! TO.N,/TxD*
X112550000Y-102330000D03*
G04 #@! TO.N,/RxD*
X112780000Y-103610000D03*
X109579635Y-105712822D03*
X111050000Y-107690000D03*
G04 #@! TD*
D20*
G04 #@! TO.N,Net-(BT1-Pad1)*
X115310000Y-116162600D02*
X115310000Y-117690000D01*
X115310000Y-114590000D02*
X115310000Y-116162600D01*
X117010000Y-112890000D02*
X115310000Y-114590000D01*
X117110000Y-112890000D02*
X117010000Y-112890000D01*
X117210000Y-112890000D02*
X117110000Y-112890000D01*
X119864000Y-110236000D02*
X117210000Y-112890000D01*
X128353600Y-110236000D02*
X119864000Y-110236000D01*
X131007600Y-112890000D02*
X128353600Y-110236000D01*
X132910000Y-112890000D02*
X131007600Y-112890000D01*
G04 #@! TO.N,GND*
X127162400Y-112890000D02*
X127700000Y-113427600D01*
X125010000Y-112890000D02*
X127162400Y-112890000D01*
X127700000Y-113427600D02*
X127700000Y-117940000D01*
X127700000Y-117940000D02*
X127430000Y-118210000D01*
X111410000Y-112965000D02*
X111285000Y-112840000D01*
X111410000Y-114100000D02*
X111410000Y-112965000D01*
X111695000Y-110350000D02*
X111695000Y-112430000D01*
X125590000Y-112310000D02*
X125010000Y-112890000D01*
X128360000Y-112310000D02*
X125590000Y-112310000D01*
X111372500Y-98620000D02*
X111452500Y-98700000D01*
X110280000Y-98610000D02*
X110270000Y-98620000D01*
X110280000Y-96200000D02*
X110280000Y-98610000D01*
X109380000Y-98620000D02*
X110270000Y-98620000D01*
X110270000Y-98620000D02*
X111372500Y-98620000D01*
X111405000Y-112720000D02*
X111285000Y-112840000D01*
X111695000Y-112430000D02*
X111405000Y-112720000D01*
X108710000Y-109420000D02*
X107520000Y-109420000D01*
X108790000Y-109500000D02*
X108710000Y-109420000D01*
X108790000Y-112540000D02*
X108790000Y-109500000D01*
X111405000Y-112720000D02*
X108970000Y-112720000D01*
X108970000Y-112720000D02*
X108790000Y-112540000D01*
X111695000Y-109775000D02*
X111695000Y-110350000D01*
X111695000Y-107397400D02*
X111695000Y-109775000D01*
X110840000Y-106542400D02*
X111695000Y-107397400D01*
X110840000Y-106140000D02*
X110840000Y-106542400D01*
X117860000Y-99635000D02*
X117860000Y-100050000D01*
X117860000Y-100050000D02*
X118155000Y-100345000D01*
X124120000Y-100259000D02*
X124206000Y-100345000D01*
X124120000Y-98097000D02*
X124120000Y-100259000D01*
X124206000Y-100345000D02*
X124460000Y-100345000D01*
X118155000Y-100345000D02*
X124206000Y-100345000D01*
X124714000Y-100330000D02*
X124968000Y-100330000D01*
X125552436Y-100330000D02*
X124968000Y-100330000D01*
X124475000Y-100330000D02*
X125552436Y-100330000D01*
X124460000Y-100345000D02*
X124475000Y-100330000D01*
X122893346Y-105286049D02*
X124025000Y-105335000D01*
X125552436Y-100330000D02*
X125552436Y-98729564D01*
X125552436Y-98729564D02*
X126492000Y-97790000D01*
X117793000Y-99568000D02*
X117860000Y-99635000D01*
X117793000Y-98993000D02*
X117340000Y-98540000D01*
X117793000Y-99568000D02*
X117793000Y-98993000D01*
X110346000Y-96266000D02*
X110280000Y-96200000D01*
X110998000Y-96266000D02*
X110346000Y-96266000D01*
X121412000Y-104140000D02*
X122936000Y-104140000D01*
X122893346Y-104182654D02*
X122893346Y-105286049D01*
X122936000Y-104140000D02*
X122893346Y-104182654D01*
G04 #@! TO.N,/VDD*
X107991612Y-114801612D02*
X112771612Y-114801612D01*
X107530000Y-114340000D02*
X107991612Y-114801612D01*
X112771612Y-114801612D02*
X112810000Y-114840000D01*
X112810000Y-115380000D02*
X112810000Y-117690000D01*
X112810000Y-114840000D02*
X112810000Y-115380000D01*
X112771612Y-114801612D02*
X112771612Y-114038388D01*
X112771612Y-114038388D02*
X112930000Y-113880000D01*
X107740000Y-100205000D02*
X107835000Y-100300000D01*
X107740000Y-96180000D02*
X107740000Y-100205000D01*
X115765000Y-102245000D02*
X115850000Y-102330000D01*
X115765000Y-98540000D02*
X115765000Y-102245000D01*
X116602400Y-102330000D02*
X116752400Y-102480000D01*
X115850000Y-102330000D02*
X116602400Y-102330000D01*
X116752400Y-102480000D02*
X117000000Y-102480000D01*
X117000000Y-102480000D02*
X117530000Y-103010000D01*
X117530000Y-103010000D02*
X123310000Y-103010000D01*
X123830000Y-103510000D02*
X124100000Y-103780000D01*
X123810000Y-103510000D02*
X123830000Y-103510000D01*
X123810000Y-103510000D02*
X123890000Y-103590000D01*
X123310000Y-103010000D02*
X123810000Y-103510000D01*
X127254000Y-107442000D02*
X127254000Y-109220000D01*
X116586000Y-97719000D02*
X115765000Y-98540000D01*
X116586000Y-94234000D02*
X116586000Y-97719000D01*
X107784000Y-94234000D02*
X116586000Y-94234000D01*
X107740000Y-96180000D02*
X107740000Y-94278000D01*
X107740000Y-94278000D02*
X107784000Y-94234000D01*
G04 #@! TO.N,Net-(D1-Pad2)*
X107605000Y-112840000D02*
X107530000Y-112765000D01*
X107520000Y-112755000D02*
X107530000Y-112765000D01*
X107520000Y-111170000D02*
X107520000Y-112755000D01*
G04 #@! TO.N,Net-(D2-Pad2)*
X119920000Y-103760000D02*
X118492000Y-103760000D01*
X118492000Y-103760000D02*
X118364000Y-103632000D01*
X122936000Y-101600000D02*
X120135000Y-101600000D01*
X123444000Y-101092000D02*
X122936000Y-101600000D01*
G04 #@! TO.N,Net-(R3-Pad1)*
X106502500Y-107920000D02*
X106203610Y-108218890D01*
X107040000Y-107920000D02*
X106502500Y-107920000D01*
X106203610Y-108218890D02*
X106203610Y-112883310D01*
X106203610Y-112883310D02*
X106470300Y-113150000D01*
G04 #@! TO.N,Net-(R3-Pad2)*
X110142500Y-110327500D02*
X110120000Y-110350000D01*
X110142500Y-108490000D02*
X110142500Y-110327500D01*
X110120000Y-110350000D02*
X110120000Y-111290000D01*
X109152500Y-107920000D02*
X109472500Y-108240000D01*
X108615000Y-107920000D02*
X109152500Y-107920000D01*
X109892500Y-108240000D02*
X110142500Y-108490000D01*
X109472500Y-108240000D02*
X109892500Y-108240000D01*
G04 #@! TO.N,/SCL*
X107870000Y-104260000D02*
X117460000Y-104260000D01*
X128110000Y-98480000D02*
X128110000Y-102972000D01*
X128510000Y-98080000D02*
X128110000Y-98480000D01*
G04 #@! TO.N,Net-(R10-Pad1)*
X107870000Y-102147500D02*
X108204000Y-101813500D01*
X107870000Y-102685000D02*
X107870000Y-102147500D01*
X108204000Y-101813500D02*
X109768500Y-101813500D01*
X109768500Y-101813500D02*
X109982000Y-101600000D01*
X110788000Y-99568000D02*
X111460000Y-100240000D01*
X110490000Y-99568000D02*
X110788000Y-99568000D01*
X110840000Y-104870000D02*
X109252000Y-104870000D01*
X109252000Y-104870000D02*
X108458000Y-105664000D01*
X108458000Y-105664000D02*
X106426000Y-105664000D01*
X106426000Y-105664000D02*
X106426000Y-102616000D01*
X106495000Y-102685000D02*
X106426000Y-102616000D01*
X107870000Y-102685000D02*
X106495000Y-102685000D01*
G04 #@! TO.N,Net-(R11-Pad2)*
X118364000Y-106156000D02*
X118364000Y-105664000D01*
X123190000Y-108458000D02*
X123444000Y-108712000D01*
X132842000Y-101566178D02*
X132842000Y-108204000D01*
X127795822Y-96520000D02*
X132842000Y-101566178D01*
X123698000Y-96520000D02*
X127795822Y-96520000D01*
X122709501Y-97508499D02*
X123698000Y-96520000D01*
X122669001Y-97508499D02*
X122709501Y-97508499D01*
X120897500Y-99280000D02*
X122669001Y-97508499D01*
X118142000Y-106140000D02*
X118618000Y-105664000D01*
X117856000Y-106140000D02*
X117856000Y-108458000D01*
X117856000Y-106140000D02*
X118142000Y-106140000D01*
X115850000Y-106140000D02*
X117856000Y-106140000D01*
X117856000Y-108458000D02*
X119888000Y-108458000D01*
X119516000Y-108458000D02*
X119888000Y-108458000D01*
X119888000Y-108458000D02*
X123190000Y-108458000D01*
G04 #@! TO.N,/SDA*
X123444000Y-105918000D02*
X122174000Y-107188000D01*
X130810000Y-102972000D02*
X130810000Y-105410000D01*
X130810000Y-105410000D02*
X130556000Y-105664000D01*
X130556000Y-105664000D02*
X126746000Y-105664000D01*
X123928933Y-105918000D02*
X123444000Y-105918000D01*
X123975067Y-105918000D02*
X123928933Y-105918000D01*
X124483067Y-105410000D02*
X123975067Y-105918000D01*
X124968000Y-105410000D02*
X124483067Y-105410000D01*
X118618000Y-107239000D02*
X120599000Y-107239000D01*
X120650000Y-107188000D02*
X120904000Y-107188000D01*
X120599000Y-107239000D02*
X120650000Y-107188000D01*
X122174000Y-107188000D02*
X120904000Y-107188000D01*
X120904000Y-107188000D02*
X120396000Y-107188000D01*
G04 #@! TO.N,Net-(J1-Pad3)*
X113027500Y-96367500D02*
X112820000Y-96160000D01*
X113027500Y-98700000D02*
X113027500Y-96367500D01*
X109410000Y-100300000D02*
X110180000Y-100300000D01*
X110180000Y-100300000D02*
X110180000Y-100970000D01*
X110180000Y-100970000D02*
X110320000Y-101110000D01*
X110320000Y-101110000D02*
X115080000Y-101110000D01*
X113730000Y-97997500D02*
X113027500Y-98700000D01*
X113730000Y-97630000D02*
X113730000Y-97997500D01*
G04 #@! TO.N,Net-(R9-Pad2)*
X115850000Y-103600000D02*
X114040000Y-103600000D01*
X114040000Y-103600000D02*
X114020000Y-103580000D01*
X114020000Y-103580000D02*
X114020000Y-102580000D01*
X114020000Y-102580000D02*
X114170000Y-102430000D01*
X118022500Y-101600000D02*
X117872500Y-101450000D01*
X118560000Y-101600000D02*
X118022500Y-101600000D01*
X117872500Y-101450000D02*
X116780000Y-101450000D01*
G04 #@! TO.N,/SCLK*
X114570000Y-96160000D02*
X115360000Y-96160000D01*
X114450000Y-96280000D02*
X114570000Y-96160000D01*
X114450000Y-100170000D02*
X114450000Y-96280000D01*
X113035000Y-100240000D02*
X114380000Y-100240000D01*
X114380000Y-100240000D02*
X114450000Y-100170000D01*
G04 #@! TO.N,/SDAT*
X119322500Y-98705000D02*
X119310000Y-98692500D01*
X119322500Y-99280000D02*
X119322500Y-98705000D01*
X119280000Y-96150000D02*
X119310000Y-96180000D01*
X117900000Y-96150000D02*
X119280000Y-96150000D01*
X119310000Y-98692500D02*
X119310000Y-96180000D01*
X119310000Y-96180000D02*
X119310000Y-96080000D01*
G04 #@! TO.N,/BT_status*
X117094000Y-107950000D02*
X117094000Y-106934000D01*
X112522000Y-108688933D02*
X113030000Y-109196933D01*
X112522000Y-108204000D02*
X112522000Y-108688933D01*
X113030000Y-109196933D02*
X113030000Y-109728000D01*
X113030000Y-109728000D02*
X114046000Y-109728000D01*
X117094000Y-107442000D02*
X116586000Y-107950000D01*
X117094000Y-106934000D02*
X117094000Y-107442000D01*
G04 #@! TO.N,Net-(R12-Pad2)*
X115690000Y-109195000D02*
X115680000Y-109185000D01*
X115690000Y-109770000D02*
X115690000Y-109195000D01*
X115519000Y-109599000D02*
X115690000Y-109770000D01*
X115519000Y-108712000D02*
X115519000Y-109599000D01*
X115850000Y-104870000D02*
X115097600Y-104870000D01*
X115097600Y-104870000D02*
X114811600Y-105156000D01*
X114811600Y-105156000D02*
X114046000Y-105156000D01*
X114046000Y-105156000D02*
X114046000Y-108712000D01*
X115011000Y-108661000D02*
X115062000Y-108712000D01*
X115011000Y-107950000D02*
X115011000Y-108661000D01*
X114046000Y-108712000D02*
X115062000Y-108712000D01*
X115062000Y-108712000D02*
X115519000Y-108712000D01*
G04 #@! TO.N,/TxD*
X110840000Y-102330000D02*
X112550000Y-102330000D01*
G04 #@! TO.N,/RxD*
X111592400Y-103600000D02*
X111602400Y-103610000D01*
X110840000Y-103600000D02*
X111592400Y-103600000D01*
X111602400Y-103610000D02*
X112690000Y-103610000D01*
X112690000Y-103610000D02*
X112780000Y-103610000D01*
X109579635Y-106197755D02*
X110000000Y-106618120D01*
X109579635Y-105712822D02*
X109579635Y-106197755D01*
X110000000Y-106618120D02*
X110000000Y-107650000D01*
X110000000Y-107650000D02*
X110040000Y-107690000D01*
X110040000Y-107690000D02*
X111050000Y-107690000D01*
G04 #@! TO.N,/INT*
X117265000Y-109770000D02*
X125630000Y-109770000D01*
X125630000Y-109770000D02*
X125925000Y-109475000D01*
X125745000Y-105230000D02*
X125745000Y-102972000D01*
X125925000Y-105410000D02*
X125745000Y-105230000D01*
X125925000Y-105410000D02*
X125925000Y-105220000D01*
X125925000Y-109475000D02*
X125925000Y-105410000D01*
G04 #@! TD*
M02*
