M48
;DRILL file {KiCad (5.0.2)-1} date 5/31/2019 4:15:07 PM
;FORMAT={-:-/ absolute / inch / decimal}
FMAT,2
INCH,TZ
T1C0.0130
T2C0.0394
%
G90
G05
T1
X4.1917Y-4.4547
X4.3142Y-4.1619
X4.33Y-4.
X4.3354Y-4.3815
X4.35Y-3.92
X4.37Y-3.79
X4.372Y-4.2398
X4.3862Y-4.4921
X4.43Y-4.26
X4.4311Y-4.0287
X4.4402Y-4.0791
X4.4461Y-4.4835
X4.4776Y-3.8437
X4.49Y-4.32
X4.4949Y-4.0327
X4.5307Y-3.9807
X4.5976Y-3.9941
X4.61Y-4.21
X4.6244Y-4.1047
X4.6375Y-3.92
X4.66Y-4.08
X4.8383Y-4.1451
X4.86Y-3.98
X4.86Y-4.17
X4.86Y-4.28
X4.8858Y-4.0858
X4.92Y-4.15
X4.943Y-3.95
X4.98Y-3.85
X4.99Y-4.16
X5.01Y-4.23
X5.01Y-4.3
X5.0169Y-4.6539
X5.0535Y-4.4217
X5.0594Y-3.8614
X5.23Y-4.26
T2
X4.8829Y-3.8721
X4.9469Y-3.69
X4.9469Y-4.064
X5.04Y-3.69
X5.04Y-4.064
X5.1463Y-3.69
X5.1463Y-4.064
X5.2372Y-3.8721
T0
M30
